<svg xmlns="http://www.w3.org/2000/svg" xmlns:xlink="http://www.w3.org/1999/xlink" version="1.1" stroke-linecap="round" stroke-linejoin="round" stroke-width="0" fill-rule="evenodd" clip-rule="evenodd" fill="currentColor" stroke="currentColor" viewBox="0.10652 -82.46386 54.999939999999995 82.49987" width="54.999939999999995mm" height="82.49987mm"><path fill="#000000" d="M55.10646 -80.46382L55.0896 -80.72457L55.04047 -80.97514L54.96123 -81.21352L54.85381 -81.43753L54.72061 -81.64502L54.56336 -81.83394L54.38452 -82.00224L54.18607 -82.14774L53.97002 -82.26828L53.7386 -82.36186L53.49389 -82.42635L53.23791 -82.4596L2.10652 -82.46386L1.84584 -82.447L1.59519 -82.3979L1.35694 -82.31858L1.13294 -82.21124L0.92532 -82.07796L0.73644 -81.92084L0.56814 -81.74192L0.42265 -81.54342L0.3021 -81.32744L0.20848 -81.09602L0.14404 -80.85127L0.11082 -80.59534L0.10652 -80.09707L0.10652 -1.96405L0.12339 -1.70327L0.17251 -1.45262L0.25176 -1.21437L0.35915 -0.99039L0.49237 -0.78277L0.64963 -0.5939L0.82847 -0.4256L1.02689 -0.28011L1.24294 -0.15956L1.47439 -0.06593L1.71907 -0.00154L1.97507 0.03167L2.34477 0.03601L53.10644 0.03601L53.36715 0.01915L53.61779 -0.02997L53.85605 -0.10921L54.08005 -0.21661L54.28764 -0.34993L54.47654 -0.50708L54.64484 -0.68592L54.79031 -0.88435L54.91086 -1.1004L55.00451 -1.33182L55.069 -1.57652L55.10225 -1.8325L55.10646 -2.33078L55.10646 -80.46382M4.10655 -79.96385A1.5 1.5 0 0 0 1.1065500000000004 -79.96385A1.5 1.5 0 0 0 4.10655 -79.96385M54.10644 -79.96385A1.5 1.5 0 0 0 51.10644 -79.96385A1.5 1.5 0 0 0 54.10644 -79.96385M54.10644 -2.46403A1.5 1.5 0 0 0 51.10644 -2.46403A1.5 1.5 0 0 0 54.10644 -2.46403M4.10655 -2.46403A1.5 1.5 0 0 0 1.1065500000000004 -2.46403A1.5 1.5 0 0 0 4.10655 -2.46403"/></svg>