<svg id="svg" version="1.1" xmlns="http://www.w3.org/2000/svg" xmlns:xlink="http://www.w3.org/1999/xlink" width="400" height="400" viewBox="0, 0, 400,400"><g id="svgg"><path id="path0" d="M80.100 10.262 C 71.773 12.069,66.229 14.006,57.968 17.994 L 50.603 21.551 55.733 26.998 C 58.555 29.993,70.269 42.121,81.765 53.949 L 102.667 75.453 107.527 74.171 C 151.092 62.678,181.910 117.787,149.848 149.848 C 117.777 181.920,62.683 151.111,74.170 107.527 L 75.451 102.667 66.384 93.333 C 61.397 88.200,49.594 76.150,40.155 66.556 L 22.993 49.111 20.693 52.755 C 17.497 57.817,14.578 64.637,11.745 73.655 L 9.333 81.333 9.333 200.000 L 9.333 318.667 11.745 326.345 C 21.565 357.609,42.548 378.546,73.778 388.242 C 81.261 390.566,81.644 390.591,113.856 390.908 L 146.379 391.227 192.801 344.320 C 231.166 305.555,239.126 297.098,238.665 295.595 C 224.940 250.925,280.723 216.866,313.663 249.805 C 345.762 281.904,314.886 337.213,271.194 325.879 L 266.445 324.647 242.777 348.768 C 229.760 362.035,215.119 377.005,210.241 382.036 L 201.373 391.184 260.020 390.913 L 318.667 390.641 326.222 388.269 C 357.581 378.422,378.467 357.572,388.248 326.345 L 390.654 318.667 390.913 247.778 L 391.172 176.889 353.586 176.881 C 287.913 176.868,273.441 173.131,250.599 150.290 C 227.754 127.444,224.062 113.202,224.023 47.778 L 224.000 8.889 154.889 8.960 C 99.523 9.016,84.649 9.275,80.100 10.262 M252.444 54.285 C 252.444 104.812,252.245 102.977,259.216 116.526 C 264.507 126.809,274.646 136.859,284.947 142.032 C 298.127 148.651,296.512 148.489,346.481 148.231 L 391.116 148.000 321.780 78.669 L 252.444 9.338 252.444 54.285 M112.009 100.675 C 104.472 103.196,98.650 112.900,99.974 120.736 C 103.572 142.032,134.680 140.706,135.824 119.209 C 136.525 106.032,124.341 96.550,112.009 100.675 M132.444 203.839 C 132.444 241.227,157.348 265.778,195.272 265.778 L 208.889 265.778 208.889 280.000 L 208.889 294.222 202.444 294.215 C 141.805 294.143,104.235 257.246,104.023 197.556 L 104.000 191.111 118.222 191.111 L 132.444 191.111 132.444 203.839 M274.222 265.395 C 261.608 271.942,260.225 289.612,271.753 296.923 C 288.816 307.744,307.744 288.816,296.923 271.753 C 292.544 264.847,281.329 261.706,274.222 265.395 " stroke="none" fill="#7540bf" fill-rule="evenodd"></path></g></svg>