<svg id="svg" version="1.1" xmlns="http://www.w3.org/2000/svg" xmlns:xlink="http://www.w3.org/1999/xlink" width="400" height="400" viewBox="0, 0, 400,400"><g id="svgg"><path id="path0" d="M215.798 7.802 C 215.497 8.257,214.533 8.414,211.851 8.445 C 208.726 8.482,208.279 8.577,208.105 9.243 C 207.927 9.921,207.495 10.000,203.953 10.000 C 201.004 10.000,200.025 10.127,200.100 10.500 C 200.173 10.865,199.185 11.031,196.432 11.116 C 193.753 11.198,192.540 11.396,192.232 11.801 C 191.924 12.206,190.791 12.390,188.289 12.440 C 185.735 12.490,184.692 12.663,184.462 13.075 C 184.240 13.472,183.377 13.640,181.573 13.638 C 178.124 13.633,176.400 13.969,176.400 14.645 C 176.400 15.080,175.572 15.200,172.576 15.200 C 170.428 15.200,168.850 15.357,168.974 15.558 C 169.346 16.160,168.088 16.400,164.555 16.400 C 161.919 16.400,161.124 16.532,160.945 17.000 C 160.766 17.467,159.976 17.600,157.390 17.600 C 153.723 17.600,152.800 17.810,152.800 18.643 C 152.800 19.080,151.988 19.200,149.043 19.200 C 146.072 19.200,145.237 19.326,145.055 19.800 C 144.874 20.272,144.053 20.400,141.200 20.400 C 138.347 20.400,137.526 20.528,137.345 21.000 C 137.164 21.471,136.353 21.600,133.586 21.600 C 130.983 21.600,129.900 21.757,129.457 22.200 C 129.042 22.615,128.015 22.802,126.129 22.805 C 122.862 22.812,121.600 23.102,121.600 23.847 C 121.600 24.279,120.767 24.400,117.787 24.400 C 114.768 24.400,113.927 24.525,113.745 25.000 C 113.564 25.470,112.756 25.600,110.006 25.600 C 107.376 25.600,106.373 25.750,106.000 26.200 C 105.637 26.638,104.674 26.800,102.440 26.800 C 100.204 26.800,99.116 26.984,98.406 27.481 C 97.729 27.955,96.359 28.213,93.885 28.331 C 91.367 28.452,90.275 28.661,90.125 29.050 C 89.970 29.456,89.040 29.600,86.586 29.600 C 84.160 29.600,83.094 29.763,82.657 30.200 C 82.228 30.629,81.184 30.800,79.000 30.800 C 76.816 30.800,75.772 30.971,75.343 31.400 C 74.915 31.828,73.862 32.002,71.671 32.006 C 68.517 32.012,67.290 32.374,67.772 33.155 C 67.963 33.464,67.243 33.600,65.411 33.600 C 63.437 33.600,62.717 33.751,62.545 34.200 C 62.403 34.570,61.795 34.800,60.957 34.800 C 60.017 34.800,59.600 34.985,59.600 35.400 C 59.600 35.800,59.200 36.000,58.400 36.000 C 57.600 36.000,57.200 36.200,57.200 36.600 C 57.200 36.930,56.975 37.210,56.700 37.223 C 52.813 37.401,52.000 37.713,52.000 39.024 C 52.000 39.873,51.818 40.000,50.600 40.000 C 49.622 40.000,49.200 40.181,49.200 40.600 C 49.200 41.109,48.235 41.414,47.124 41.255 C 46.973 41.234,46.736 41.573,46.597 42.008 C 46.434 42.522,45.991 42.800,45.336 42.800 C 44.673 42.800,44.255 43.066,44.123 43.573 C 44.012 43.999,43.309 44.637,42.560 44.992 C 41.812 45.347,41.200 45.787,41.200 45.969 C 41.200 46.151,40.660 46.408,40.000 46.540 C 39.296 46.681,38.800 47.032,38.800 47.390 C 38.800 47.726,38.569 48.000,38.288 48.000 C 38.006 48.000,37.549 48.495,37.272 49.100 C 36.281 51.264,35.804 52.000,35.390 52.000 C 35.159 52.000,34.941 52.393,34.904 52.873 C 34.868 53.354,34.560 53.903,34.219 54.093 C 33.879 54.284,33.600 54.701,33.600 55.020 C 33.600 55.339,33.324 55.600,32.987 55.600 C 32.651 55.600,32.259 55.915,32.118 56.300 C 31.976 56.685,31.622 57.144,31.330 57.320 C 31.039 57.496,30.800 57.824,30.800 58.048 C 30.800 58.273,30.530 58.727,30.200 59.057 C 29.870 59.387,29.600 60.004,29.600 60.429 C 29.600 60.853,29.330 61.200,29.000 61.200 C 28.670 61.200,28.400 61.442,28.400 61.738 C 28.400 62.034,28.040 62.602,27.600 63.000 C 27.160 63.398,26.800 64.067,26.800 64.486 C 26.800 64.924,26.619 65.135,26.373 64.983 C 26.138 64.838,25.847 65.097,25.726 65.560 C 25.606 66.022,25.258 66.400,24.953 66.400 C 24.649 66.400,24.400 66.741,24.400 67.157 C 24.400 67.574,24.119 68.022,23.775 68.154 C 23.431 68.286,23.261 68.576,23.398 68.797 C 23.535 69.019,23.437 69.200,23.181 69.200 C 22.924 69.200,22.818 69.470,22.945 69.800 C 23.151 70.337,22.755 70.582,21.900 70.447 C 21.735 70.421,21.600 70.760,21.600 71.200 C 21.600 71.640,21.459 72.000,21.288 72.000 C 21.116 72.000,20.765 72.556,20.509 73.237 C 20.248 73.928,19.856 74.358,19.621 74.213 C 19.378 74.063,19.200 74.302,19.200 74.776 C 19.200 75.242,18.939 75.600,18.600 75.600 C 18.270 75.600,18.000 75.743,18.000 75.919 C 18.000 76.269,16.994 77.671,15.900 78.847 C 15.515 79.261,15.200 79.870,15.200 80.200 C 15.200 80.530,15.011 80.800,14.779 80.800 C 14.548 80.800,14.175 81.326,13.951 81.968 C 13.727 82.610,13.287 83.235,12.972 83.355 C 12.657 83.476,12.400 83.831,12.400 84.145 C 12.400 84.458,12.130 84.818,11.800 84.945 C 11.470 85.071,11.200 85.368,11.200 85.604 C 11.200 86.093,10.603 86.877,9.300 88.100 C 8.805 88.564,8.400 89.163,8.400 89.429 C 8.400 89.696,8.130 90.018,7.800 90.145 C 7.360 90.313,7.200 91.007,7.200 92.745 C 7.200 94.482,7.040 95.176,6.600 95.345 C 6.270 95.471,6.000 96.022,6.000 96.568 C 6.000 97.114,5.755 97.704,5.456 97.880 C 5.121 98.077,4.831 99.243,4.701 100.919 C 4.584 102.422,4.230 103.943,3.910 104.319 C 3.515 104.782,3.302 106.142,3.241 108.573 C 3.176 111.195,2.994 112.262,2.558 112.581 C 1.721 113.194,1.906 124.249,2.762 124.777 C 3.155 125.020,3.371 126.188,3.479 128.662 C 3.587 131.147,3.807 132.332,4.217 132.644 C 4.647 132.972,4.800 133.980,4.800 136.495 C 4.800 139.036,4.953 140.029,5.400 140.400 C 5.836 140.762,6.000 141.721,6.000 143.917 C 6.000 146.132,6.172 147.127,6.644 147.649 C 7.118 148.173,7.277 149.102,7.246 151.165 C 7.207 153.690,7.741 155.997,8.364 156.002 C 8.494 156.003,8.660 157.578,8.733 159.502 C 8.820 161.795,9.061 163.217,9.433 163.631 C 9.829 164.073,10.000 165.297,10.000 167.703 C 10.000 170.227,10.160 171.303,10.600 171.743 C 11.024 172.167,11.200 173.203,11.200 175.282 C 11.200 177.219,11.400 178.508,11.787 179.060 C 12.125 179.543,12.462 181.252,12.582 183.094 C 12.697 184.852,13.061 186.810,13.393 187.445 C 13.762 188.152,13.996 189.690,13.998 191.411 C 13.999 193.353,14.201 194.508,14.649 195.148 C 15.117 195.817,15.282 196.874,15.242 198.951 C 15.203 200.949,15.368 202.069,15.780 202.614 C 16.171 203.131,16.379 204.361,16.387 206.211 C 16.395 208.003,16.611 209.323,16.981 209.852 C 17.319 210.335,17.678 212.211,17.839 214.341 C 18.041 217.019,18.260 218.000,18.657 218.000 C 19.076 218.000,19.200 218.870,19.200 221.813 C 19.200 224.832,19.325 225.673,19.800 225.855 C 20.270 226.036,20.400 226.844,20.400 229.594 C 20.400 232.083,20.560 233.235,20.950 233.559 C 21.307 233.855,21.563 235.198,21.677 237.378 C 21.774 239.228,22.074 241.007,22.343 241.332 C 22.613 241.657,22.937 243.515,23.064 245.461 C 23.191 247.408,23.543 249.399,23.847 249.886 C 24.180 250.419,24.400 251.881,24.400 253.557 C 24.400 255.584,24.575 256.518,25.044 256.986 C 25.525 257.468,25.677 258.356,25.646 260.515 C 25.621 262.301,25.821 263.814,26.171 264.486 C 26.483 265.083,26.866 267.213,27.023 269.219 C 27.219 271.721,27.480 272.932,27.854 273.076 C 28.258 273.231,28.400 274.204,28.400 276.823 C 28.400 279.646,28.529 280.432,29.038 280.717 C 29.555 281.007,29.669 281.773,29.637 284.749 C 29.606 287.676,29.720 288.471,30.199 288.655 C 30.661 288.832,30.801 289.593,30.802 291.943 C 30.804 293.930,31.023 295.419,31.429 296.196 C 31.772 296.854,32.157 298.880,32.286 300.697 C 32.429 302.730,32.727 304.173,33.059 304.449 C 33.434 304.760,33.600 305.917,33.600 308.220 C 33.600 310.752,33.754 311.697,34.249 312.192 C 34.746 312.689,34.885 313.552,34.840 315.876 C 34.800 317.909,34.968 319.197,35.348 319.777 C 35.660 320.253,36.045 322.203,36.204 324.111 C 36.384 326.267,36.702 327.753,37.046 328.039 C 37.404 328.335,37.600 329.337,37.600 330.862 C 37.600 332.593,37.760 333.287,38.200 333.455 C 38.542 333.587,38.800 334.183,38.800 334.843 C 38.800 335.479,38.964 336.000,39.164 336.000 C 39.677 336.000,41.200 339.266,41.200 340.364 C 41.200 340.938,41.495 341.352,42.000 341.484 C 42.521 341.620,42.800 342.030,42.800 342.659 C 42.800 343.190,43.070 343.729,43.400 343.855 C 43.730 343.982,44.000 344.407,44.000 344.800 C 44.000 345.193,44.270 345.618,44.600 345.745 C 44.930 345.871,45.200 346.431,45.200 346.987 C 45.200 347.573,45.429 348.000,45.742 348.000 C 46.040 348.000,46.451 348.585,46.655 349.300 C 46.940 350.302,47.275 350.629,48.113 350.727 C 49.023 350.833,49.200 351.046,49.200 352.039 C 49.200 352.702,49.454 353.323,49.776 353.446 C 50.092 353.567,50.466 354.192,50.607 354.833 C 50.748 355.475,51.119 356.000,51.432 356.000 C 51.744 356.000,52.000 356.270,52.000 356.600 C 52.000 356.930,52.270 357.200,52.600 357.200 C 52.930 357.200,53.200 357.475,53.200 357.810 C 53.200 358.165,53.692 358.518,54.378 358.656 C 55.276 358.835,55.618 359.173,55.816 360.074 C 55.991 360.868,56.261 361.186,56.638 361.041 C 57.003 360.901,57.200 361.101,57.200 361.613 C 57.200 362.046,57.470 362.400,57.800 362.400 C 58.139 362.400,58.400 362.758,58.400 363.224 C 58.400 363.677,58.571 363.942,58.780 363.812 C 58.989 363.683,59.355 363.943,59.594 364.389 C 59.833 364.835,60.292 365.200,60.614 365.200 C 60.936 365.200,61.200 365.470,61.200 365.800 C 61.200 366.200,61.600 366.400,62.400 366.400 C 63.060 366.400,63.600 366.552,63.600 366.738 C 63.600 367.296,65.389 369.200,65.913 369.200 C 66.181 369.200,66.400 369.470,66.400 369.800 C 66.400 370.166,66.773 370.400,67.357 370.400 C 67.884 370.400,68.418 370.670,68.545 371.000 C 68.671 371.330,69.044 371.600,69.373 371.600 C 69.703 371.600,70.165 371.960,70.400 372.400 C 70.650 372.868,71.238 373.200,71.814 373.200 C 72.424 373.200,72.800 373.429,72.800 373.800 C 72.800 374.130,73.070 374.400,73.400 374.400 C 73.730 374.400,74.000 374.670,74.000 375.000 C 74.000 375.333,74.356 375.600,74.800 375.600 C 75.244 375.600,75.600 375.867,75.600 376.200 C 75.600 376.530,75.861 376.800,76.180 376.800 C 76.499 376.800,76.904 377.025,77.080 377.300 C 77.691 378.255,79.974 379.600,80.984 379.600 C 81.620 379.600,82.000 379.824,82.000 380.200 C 82.000 380.533,82.356 380.800,82.800 380.800 C 83.240 380.800,83.600 381.044,83.600 381.342 C 83.600 381.640,84.185 382.060,84.900 382.275 C 85.615 382.490,86.155 382.876,86.100 383.133 C 86.045 383.390,86.283 383.600,86.629 383.600 C 86.974 383.600,87.527 383.870,87.857 384.200 C 88.187 384.530,88.984 384.800,89.629 384.800 C 90.284 384.800,91.169 385.169,91.637 385.637 C 92.133 386.133,92.785 386.393,93.237 386.274 C 93.797 386.128,94.000 386.285,94.000 386.863 C 94.000 387.373,94.246 387.625,94.700 387.579 C 97.051 387.340,99.200 387.636,99.200 388.200 C 99.200 388.600,99.600 388.800,100.400 388.800 C 101.200 388.800,101.600 389.000,101.600 389.400 C 101.600 389.886,102.244 390.000,105.000 390.000 C 108.133 390.000,108.400 390.063,108.400 390.800 C 108.400 391.448,108.667 391.600,109.800 391.600 C 110.570 391.600,111.200 391.780,111.200 392.000 C 111.200 392.520,112.678 392.520,113.000 392.000 C 113.372 391.399,114.635 391.519,115.209 392.210 C 115.930 393.080,128.733 393.041,129.067 392.168 C 129.233 391.736,130.136 391.600,132.829 391.600 C 135.962 391.600,136.421 391.508,136.800 390.800 C 137.182 390.087,137.638 390.000,141.014 390.000 C 143.829 390.000,144.774 389.872,144.700 389.500 C 144.626 389.132,145.681 388.970,148.700 388.886 C 151.982 388.795,152.800 388.655,152.800 388.186 C 152.800 387.670,157.379 387.263,159.854 387.560 C 160.104 387.590,160.414 387.341,160.542 387.007 C 160.720 386.542,161.456 386.399,163.687 386.395 C 167.132 386.388,168.400 386.108,168.400 385.353 C 168.400 384.886,174.118 384.440,176.100 384.753 C 176.265 384.779,176.400 384.530,176.400 384.200 C 176.400 383.709,177.090 383.600,180.213 383.600 C 183.232 383.600,184.073 383.475,184.255 383.000 C 184.436 382.528,185.254 382.400,188.080 382.400 C 191.338 382.400,191.694 382.325,191.884 381.600 C 192.070 380.890,197.108 380.343,199.700 380.753 C 199.865 380.779,200.000 380.530,200.000 380.200 C 200.000 379.709,200.684 379.600,203.757 379.600 C 206.728 379.600,207.563 379.474,207.745 379.000 C 207.927 378.525,208.768 378.400,211.787 378.400 C 214.910 378.400,215.600 378.291,215.600 377.800 C 215.600 377.314,216.242 377.200,218.976 377.200 C 220.833 377.200,222.466 377.017,222.604 376.793 C 222.742 376.570,223.023 376.491,223.228 376.617 C 223.432 376.744,223.600 376.567,223.600 376.224 C 223.600 375.703,224.221 375.600,227.357 375.600 C 230.328 375.600,231.163 375.474,231.345 375.000 C 231.526 374.528,232.347 374.400,235.200 374.400 C 238.053 374.400,238.874 374.272,239.055 373.800 C 239.235 373.331,240.043 373.199,242.743 373.194 C 246.111 373.188,247.523 372.846,247.088 372.143 C 246.971 371.953,247.353 371.789,247.937 371.779 C 253.945 371.680,254.800 371.583,254.800 371.000 C 254.800 370.507,255.511 370.400,258.800 370.400 C 262.089 370.400,262.800 370.293,262.800 369.800 C 262.800 369.313,263.452 369.200,266.269 369.200 C 268.684 369.200,269.929 369.029,270.369 368.637 C 270.765 368.284,272.339 367.996,274.600 367.864 C 276.580 367.748,278.245 367.641,278.300 367.626 C 278.355 367.612,278.400 367.330,278.400 367.000 C 278.400 366.509,279.090 366.400,282.213 366.400 C 285.232 366.400,286.073 366.275,286.255 365.800 C 286.435 365.332,287.230 365.200,289.866 365.200 C 291.992 365.200,293.157 365.053,293.003 364.805 C 292.863 364.578,293.023 364.511,293.379 364.647 C 293.721 364.778,294.000 364.686,294.000 364.443 C 294.000 364.155,295.157 364.000,297.311 364.000 C 299.600 364.000,300.885 363.816,301.475 363.403 C 301.993 363.040,303.515 362.753,305.355 362.672 C 307.479 362.579,308.604 362.339,309.123 361.870 C 309.697 361.351,310.652 361.200,313.374 361.200 C 316.136 361.200,316.842 361.086,316.681 360.667 C 316.568 360.373,316.684 360.122,316.938 360.109 C 317.192 360.095,318.975 360.042,320.900 359.991 C 323.554 359.920,324.400 359.765,324.400 359.349 C 324.400 358.922,325.252 358.800,328.237 358.800 C 331.738 358.800,332.093 358.730,332.284 358.000 C 332.472 357.281,332.830 357.200,335.818 357.200 C 339.220 357.200,340.400 356.729,340.400 355.371 C 340.400 355.003,340.827 354.800,341.600 354.800 C 342.260 354.800,342.800 354.632,342.800 354.427 C 342.800 354.037,344.034 353.545,345.400 353.392 C 345.840 353.343,346.335 353.279,346.500 353.251 C 346.665 353.223,346.800 352.930,346.800 352.600 C 346.800 352.270,347.070 352.000,347.400 352.000 C 347.730 352.000,348.000 351.730,348.000 351.400 C 348.000 350.981,348.422 350.800,349.400 350.800 C 350.378 350.800,350.800 350.619,350.800 350.200 C 350.800 349.829,351.176 349.600,351.786 349.600 C 352.362 349.600,352.950 349.268,353.200 348.800 C 353.435 348.360,353.946 348.000,354.334 348.000 C 355.243 348.000,356.000 347.237,356.000 346.320 C 356.000 345.698,356.660 345.395,357.685 345.548 C 358.130 345.614,360.000 343.761,360.000 343.254 C 360.000 343.004,360.454 342.800,361.010 342.800 C 361.722 342.800,362.133 342.502,362.404 341.790 C 362.615 341.234,363.061 340.675,363.394 340.547 C 363.727 340.419,364.000 340.083,364.000 339.800 C 364.000 339.517,364.270 339.182,364.600 339.055 C 364.930 338.929,365.200 338.549,365.200 338.213 C 365.200 337.871,365.547 337.600,365.985 337.600 C 367.016 337.600,369.992 334.496,370.270 333.129 C 370.413 332.428,370.680 332.132,371.044 332.272 C 371.430 332.420,371.600 332.171,371.600 331.457 C 371.600 330.838,371.918 330.258,372.400 330.000 C 372.840 329.765,373.200 329.308,373.200 328.986 C 373.200 328.664,373.470 328.400,373.800 328.400 C 374.130 328.400,374.400 328.130,374.400 327.800 C 374.400 327.470,374.670 327.200,375.000 327.200 C 375.330 327.200,375.600 326.924,375.600 326.587 C 375.600 326.251,375.859 325.876,376.176 325.754 C 376.492 325.633,376.866 325.008,377.007 324.367 C 377.148 323.725,377.519 323.200,377.832 323.200 C 378.173 323.200,378.400 322.796,378.400 322.187 C 378.400 321.631,378.670 321.071,379.000 320.945 C 379.330 320.818,379.600 320.374,379.600 319.957 C 379.600 319.541,379.870 319.200,380.200 319.200 C 380.530 319.200,380.800 318.930,380.800 318.600 C 380.800 318.270,381.036 318.000,381.325 318.000 C 382.042 318.000,383.600 315.820,383.600 314.816 C 383.600 314.357,383.863 314.000,384.200 314.000 C 384.595 314.000,384.800 313.605,384.800 312.847 C 384.800 312.030,385.033 311.632,385.600 311.484 C 386.040 311.369,386.400 311.007,386.400 310.680 C 386.400 310.353,386.670 309.982,387.000 309.855 C 387.330 309.729,387.600 309.189,387.600 308.655 C 387.600 308.122,387.870 307.582,388.200 307.455 C 388.544 307.323,388.800 306.726,388.800 306.055 C 388.800 305.385,389.056 304.787,389.400 304.655 C 389.730 304.529,390.000 304.239,390.000 304.013 C 390.000 303.786,390.349 303.251,390.775 302.825 C 391.299 302.301,391.543 301.521,391.528 300.423 C 391.516 299.528,391.745 298.507,392.039 298.154 C 392.332 297.800,392.632 297.059,392.706 296.507 C 392.780 295.954,393.101 295.242,393.420 294.923 C 393.739 294.604,394.000 293.916,394.000 293.395 C 394.000 292.874,394.180 292.336,394.400 292.200 C 394.620 292.064,394.800 291.513,394.800 290.976 C 394.800 290.439,394.620 290.000,394.400 290.000 C 394.180 290.000,394.000 289.820,394.000 289.600 C 394.000 289.380,394.270 289.200,394.600 289.200 C 394.989 289.200,395.200 288.810,395.200 288.089 C 395.200 287.478,395.480 286.578,395.823 286.089 C 396.207 285.540,396.275 285.200,395.999 285.200 C 395.754 285.200,395.666 285.017,395.804 284.793 C 395.942 284.570,396.223 284.491,396.428 284.617 C 396.647 284.753,396.800 283.298,396.800 281.066 C 396.800 278.075,396.925 277.238,397.400 277.055 C 398.182 276.755,398.204 274.154,397.429 273.720 C 397.012 273.486,396.823 272.373,396.729 269.600 C 396.635 266.826,396.465 265.827,396.100 265.900 C 395.582 266.004,395.447 265.558,395.592 264.222 C 395.771 262.573,395.109 258.367,394.589 257.846 C 394.220 257.477,394.019 256.117,393.969 253.650 C 393.912 250.864,393.765 250.000,393.347 250.000 C 392.923 250.000,392.800 249.153,392.800 246.224 C 392.800 243.801,392.635 242.345,392.338 242.162 C 392.029 241.971,391.982 242.062,392.197 242.438 C 392.425 242.838,392.389 242.882,392.071 242.592 C 391.818 242.361,391.599 240.682,391.565 238.717 C 391.519 235.966,391.355 235.088,390.774 234.464 C 390.190 233.837,390.027 232.944,389.968 230.039 C 389.912 227.262,389.765 226.400,389.347 226.400 C 388.921 226.400,388.800 225.523,388.800 222.429 C 388.800 219.432,388.653 218.310,388.200 217.857 C 387.769 217.426,387.600 216.375,387.600 214.118 C 387.600 212.057,387.405 210.700,387.033 210.169 C 386.722 209.724,386.384 208.109,386.282 206.580 C 386.061 203.263,385.751 201.850,385.204 201.668 C 384.661 201.487,384.687 198.273,385.235 197.725 C 385.548 197.412,385.548 197.215,385.235 197.022 C 384.996 196.874,384.800 196.065,384.800 195.225 C 384.800 194.356,384.542 193.484,384.200 193.200 C 383.505 192.623,383.397 190.363,384.035 189.725 C 384.348 189.412,384.348 189.215,384.035 189.022 C 383.796 188.874,383.600 188.128,383.600 187.364 C 383.600 186.466,383.376 185.889,382.967 185.732 C 382.487 185.548,382.353 184.994,382.416 183.444 C 382.556 179.990,382.424 178.881,381.797 178.254 C 381.423 177.880,381.347 177.556,381.597 177.402 C 382.284 176.977,382.105 172.800,381.400 172.800 C 380.908 172.800,380.800 172.103,380.800 168.931 C 380.800 165.955,380.653 164.901,380.163 164.360 C 379.700 163.847,379.534 162.879,379.554 160.789 C 379.569 159.139,379.354 157.472,379.046 156.861 C 378.752 156.278,378.400 154.293,378.264 152.452 C 378.129 150.610,377.813 148.857,377.563 148.555 C 377.313 148.254,376.989 146.480,376.844 144.614 C 376.699 142.747,376.360 141.000,376.090 140.730 C 375.788 140.428,375.600 139.060,375.600 137.169 C 375.600 134.927,375.438 133.964,375.000 133.600 C 374.557 133.232,374.399 132.251,374.398 129.851 C 374.396 127.822,374.181 126.190,373.826 125.509 C 373.513 124.909,373.134 122.929,372.985 121.109 C 372.835 119.289,372.463 117.401,372.157 116.914 C 371.818 116.375,371.600 114.927,371.600 113.219 L 371.600 110.411 370.200 109.826 C 369.430 109.504,368.800 109.052,368.800 108.820 C 368.800 108.589,368.281 108.400,367.647 108.400 C 366.830 108.400,366.432 108.167,366.284 107.600 C 366.143 107.059,365.738 106.800,365.037 106.800 C 364.382 106.800,364.000 106.579,364.000 106.200 C 364.000 105.870,363.724 105.600,363.387 105.600 C 363.051 105.600,362.671 105.330,362.545 105.000 C 362.418 104.670,362.064 104.400,361.757 104.400 C 361.451 104.400,361.200 104.126,361.200 103.790 C 361.200 103.432,360.704 103.081,360.000 102.940 C 359.340 102.808,358.800 102.555,358.800 102.377 C 358.800 102.199,358.440 101.940,358.000 101.800 C 357.560 101.660,357.200 101.288,357.200 100.973 C 357.200 100.658,356.859 100.400,356.443 100.400 C 356.026 100.400,355.582 100.130,355.455 99.800 C 355.329 99.470,354.775 99.200,354.225 99.200 C 353.484 99.200,353.287 99.039,353.465 98.576 C 353.624 98.159,353.421 97.878,352.852 97.729 C 352.383 97.607,352.000 97.258,352.000 96.953 C 352.000 96.605,351.555 96.400,350.800 96.400 C 350.000 96.400,349.600 96.200,349.600 95.800 C 349.600 95.467,349.244 95.200,348.800 95.200 C 348.360 95.200,347.999 94.975,347.997 94.700 C 347.996 94.425,347.321 93.754,346.497 93.210 C 345.674 92.665,344.471 91.720,343.824 91.110 C 343.113 90.439,342.204 90.000,341.524 90.000 C 340.815 90.000,340.400 89.788,340.400 89.427 C 340.400 89.112,340.040 88.740,339.600 88.600 C 339.160 88.460,338.800 88.088,338.800 87.773 C 338.800 87.458,338.549 87.200,338.243 87.200 C 337.936 87.200,337.582 86.930,337.455 86.600 C 337.329 86.270,336.969 86.000,336.655 86.000 C 336.342 86.000,335.982 85.730,335.855 85.400 C 335.729 85.070,335.349 84.800,335.013 84.800 C 334.676 84.800,334.400 84.627,334.400 84.415 C 334.400 84.204,333.680 83.837,332.800 83.600 C 331.860 83.347,331.200 82.928,331.200 82.585 C 331.200 82.263,330.924 82.000,330.587 82.000 C 330.251 82.000,329.871 81.730,329.745 81.400 C 329.618 81.070,329.179 80.800,328.770 80.800 C 328.272 80.800,328.102 80.601,328.255 80.200 C 328.392 79.845,328.260 79.600,327.932 79.600 C 327.627 79.600,327.070 79.240,326.693 78.800 C 326.316 78.360,325.668 78.000,325.253 78.000 C 324.838 78.000,324.274 77.730,324.000 77.400 C 323.726 77.070,323.164 76.800,322.751 76.800 C 322.338 76.800,322.000 76.530,322.000 76.200 C 322.000 75.870,321.751 75.600,321.447 75.600 C 321.142 75.600,320.793 75.217,320.671 74.748 C 320.529 74.207,320.234 73.978,319.863 74.120 C 319.503 74.259,319.201 74.049,319.077 73.572 C 318.943 73.060,318.526 72.800,317.837 72.800 C 317.182 72.800,316.800 72.579,316.800 72.200 C 316.800 71.870,316.468 71.600,316.062 71.600 C 315.656 71.600,314.992 71.234,314.587 70.786 C 314.182 70.338,313.614 70.062,313.325 70.173 C 313.001 70.298,312.800 70.073,312.800 69.587 C 312.800 69.059,312.529 68.800,311.976 68.800 C 311.495 68.800,311.262 68.623,311.417 68.373 C 311.562 68.138,311.303 67.847,310.840 67.726 C 310.378 67.606,310.000 67.258,310.000 66.953 C 310.000 66.605,309.555 66.400,308.800 66.400 C 308.007 66.400,307.600 66.199,307.600 65.808 C 307.600 65.482,306.704 64.807,305.608 64.308 C 304.513 63.808,303.613 63.175,303.608 62.900 C 303.604 62.625,303.330 62.400,303.000 62.400 C 302.670 62.400,302.400 62.130,302.400 61.800 C 302.400 61.467,302.044 61.200,301.600 61.200 C 301.160 61.200,300.800 60.944,300.800 60.632 C 300.800 60.319,300.260 59.945,299.600 59.800 C 298.940 59.655,298.400 59.281,298.400 58.968 C 298.400 58.656,298.040 58.400,297.600 58.400 C 297.156 58.400,296.800 58.133,296.800 57.800 C 296.800 57.400,296.400 57.200,295.600 57.200 C 294.940 57.200,294.400 57.000,294.400 56.756 C 294.400 55.879,292.591 54.414,291.500 54.407 C 290.792 54.402,290.400 54.186,290.400 53.800 C 290.400 53.470,290.220 53.200,290.000 53.200 C 289.781 53.200,288.844 52.466,287.920 51.569 C 286.995 50.671,285.735 49.677,285.119 49.358 C 284.504 49.040,284.000 48.596,284.000 48.372 C 284.000 48.148,283.775 47.994,283.500 48.030 C 281.956 48.230,281.200 47.958,281.200 47.200 C 281.200 46.756,280.933 46.400,280.600 46.400 C 280.270 46.400,280.000 46.130,280.000 45.800 C 280.000 45.470,279.749 45.200,279.443 45.200 C 279.136 45.200,278.782 44.930,278.655 44.600 C 278.529 44.270,278.169 44.000,277.855 44.000 C 277.542 44.000,277.182 43.730,277.055 43.400 C 276.929 43.070,276.571 42.800,276.262 42.800 C 275.952 42.800,275.478 42.535,275.209 42.211 C 274.940 41.886,274.108 41.506,273.360 41.366 C 272.589 41.221,272.000 40.871,272.000 40.555 C 272.000 40.250,271.730 40.000,271.400 40.000 C 271.070 40.000,270.800 39.730,270.800 39.400 C 270.800 39.070,270.549 38.800,270.243 38.800 C 269.936 38.800,269.582 38.530,269.455 38.200 C 269.329 37.870,268.949 37.600,268.613 37.600 C 268.276 37.600,268.000 37.344,268.000 37.032 C 268.000 36.719,267.448 36.342,266.773 36.194 C 266.098 36.046,265.449 35.672,265.330 35.362 C 265.212 35.053,264.594 34.800,263.957 34.800 C 263.195 34.800,262.800 34.595,262.800 34.200 C 262.800 33.870,262.530 33.600,262.200 33.600 C 261.870 33.600,261.597 33.375,261.593 33.100 C 261.581 32.240,259.735 30.800,258.644 30.800 C 257.983 30.800,257.600 30.580,257.600 30.200 C 257.600 29.870,257.349 29.600,257.043 29.600 C 256.736 29.600,256.382 29.330,256.255 29.000 C 256.121 28.649,255.521 28.400,254.813 28.400 C 253.867 28.400,253.600 28.224,253.600 27.600 C 253.600 27.156,253.333 26.800,253.000 26.800 C 252.670 26.800,252.400 26.530,252.400 26.200 C 252.400 25.870,252.149 25.600,251.843 25.600 C 251.536 25.600,251.182 25.330,251.055 25.000 C 250.921 24.649,250.321 24.400,249.613 24.400 C 248.926 24.400,248.400 24.189,248.400 23.913 C 248.400 23.137,246.365 21.600,245.338 21.600 C 244.771 21.600,244.400 21.363,244.400 21.000 C 244.400 20.670,244.130 20.400,243.800 20.400 C 243.470 20.400,243.200 20.130,243.200 19.800 C 243.200 19.470,243.020 19.200,242.800 19.200 C 242.580 19.200,242.040 18.840,241.600 18.400 C 241.160 17.960,240.440 17.600,240.000 17.600 C 239.556 17.600,239.200 17.333,239.200 17.000 C 239.200 16.670,238.930 16.400,238.600 16.400 C 238.270 16.400,238.000 16.119,238.000 15.776 C 238.000 15.433,237.811 15.270,237.579 15.413 C 237.348 15.556,236.735 15.251,236.217 14.736 C 235.244 13.770,233.234 12.122,232.320 11.542 C 232.034 11.361,231.395 11.209,230.900 11.206 C 230.369 11.203,230.000 10.954,230.000 10.600 C 230.000 10.270,229.730 10.000,229.400 10.000 C 229.070 10.000,228.800 9.764,228.800 9.475 C 228.800 7.417,217.052 5.905,215.798 7.802 M220.804 36.984 C 222.232 37.966,225.650 40.380,228.400 42.348 C 231.150 44.317,234.619 46.799,236.109 47.864 C 237.600 48.929,240.057 50.700,241.569 51.800 C 243.082 52.900,244.716 54.070,245.200 54.400 C 245.684 54.730,247.313 55.900,248.818 57.000 C 250.324 58.100,253.733 60.530,256.394 62.400 C 262.931 66.993,275.712 76.078,282.000 80.600 C 283.530 81.700,286.046 83.500,287.591 84.600 C 290.777 86.867,290.767 86.860,294.685 89.705 C 296.272 90.857,298.479 92.430,299.590 93.200 C 300.702 93.970,302.754 95.410,304.152 96.400 C 305.549 97.390,307.986 99.100,309.568 100.200 C 311.150 101.300,312.790 102.470,313.213 102.800 C 313.636 103.130,315.250 104.300,316.800 105.400 C 318.351 106.500,320.870 108.300,322.400 109.400 C 323.930 110.500,326.450 112.300,328.000 113.400 C 329.550 114.500,332.057 116.300,333.569 117.400 C 335.082 118.500,336.715 119.670,337.199 120.000 C 337.683 120.330,338.955 121.230,340.025 122.000 C 341.095 122.770,342.984 124.119,344.223 124.998 C 348.107 127.751,348.040 128.058,343.400 128.763 C 341.860 128.997,339.610 129.368,338.400 129.588 C 337.190 129.808,334.490 130.273,332.400 130.622 C 330.310 130.971,327.250 131.504,325.600 131.805 C 321.573 132.542,313.291 133.958,308.200 134.782 C 306.660 135.031,304.050 135.484,302.400 135.789 C 300.750 136.094,297.690 136.619,295.600 136.957 C 293.510 137.294,290.180 137.848,288.200 138.186 C 284.348 138.845,279.138 139.488,274.600 139.864 C 270.892 140.172,265.224 139.061,259.400 136.883 C 248.531 132.820,238.889 124.655,232.469 114.079 C 230.049 110.092,228.413 103.962,226.204 90.600 C 225.841 88.400,225.286 85.250,224.972 83.600 C 224.428 80.737,224.259 79.712,223.196 72.800 C 222.942 71.150,222.480 68.683,222.167 67.318 C 221.855 65.953,221.600 64.280,221.600 63.600 C 221.600 62.920,221.345 61.247,221.033 59.882 C 220.720 58.517,220.258 56.050,220.005 54.400 C 219.752 52.750,219.294 49.870,218.987 48.000 C 218.681 46.130,218.168 42.980,217.849 41.000 C 217.530 39.020,217.143 36.905,216.991 36.300 C 216.576 34.656,217.715 34.861,220.804 36.984 M193.763 38.500 C 193.910 39.035,194.587 43.001,195.419 48.200 C 196.625 55.734,196.864 57.154,197.404 60.000 C 197.718 61.650,198.072 63.810,198.192 64.800 C 198.312 65.790,198.582 67.410,198.791 68.400 C 199.001 69.390,199.542 72.360,199.992 75.000 C 202.002 86.774,203.365 93.727,205.284 102.000 C 206.030 105.214,206.319 106.293,207.853 111.600 C 208.746 114.688,209.992 118.374,210.646 119.860 C 210.950 120.554,211.200 121.238,211.200 121.381 C 211.200 121.915,214.880 128.990,216.204 131.000 C 222.017 139.831,234.788 150.370,246.798 156.249 C 259.747 162.587,274.269 163.480,300.600 159.558 C 302.140 159.328,305.200 158.872,307.400 158.545 C 318.187 156.938,323.626 156.074,327.200 155.400 C 328.850 155.089,331.460 154.631,333.000 154.383 C 334.540 154.135,337.240 153.696,339.000 153.410 C 352.583 151.195,352.243 151.193,352.580 153.479 C 352.867 155.423,353.799 161.177,354.576 165.800 C 354.908 167.780,355.283 170.120,355.407 171.000 C 355.532 171.880,355.883 174.040,356.188 175.800 C 356.493 177.560,357.023 180.710,357.365 182.800 C 357.708 184.890,358.180 187.770,358.415 189.200 C 358.649 190.630,359.100 193.420,359.416 195.400 C 360.153 200.016,360.628 202.927,361.372 207.400 C 361.702 209.380,362.260 212.800,362.614 215.000 C 362.968 217.200,363.507 220.440,363.812 222.200 C 364.117 223.960,364.468 226.120,364.593 227.000 C 364.717 227.880,365.092 230.220,365.424 232.200 C 365.757 234.180,366.305 237.510,366.641 239.600 C 366.977 241.690,367.498 244.750,367.799 246.400 C 368.100 248.050,368.463 250.390,368.605 251.600 C 368.747 252.810,369.021 254.430,369.214 255.200 C 369.407 255.970,369.748 257.950,369.973 259.600 C 370.197 261.250,370.567 263.491,370.793 264.581 C 371.084 265.973,371.075 267.279,370.763 268.981 C 370.520 270.311,370.074 273.020,369.773 275.000 C 368.789 281.470,366.852 288.612,364.982 292.660 C 364.662 293.354,364.400 294.022,364.400 294.145 C 364.400 294.999,359.589 303.966,358.039 306.000 C 357.453 306.770,356.439 308.210,355.786 309.199 C 352.076 314.825,341.067 324.410,332.800 329.212 C 323.565 334.576,323.397 334.631,309.000 336.988 C 307.240 337.277,304.810 337.698,303.600 337.925 C 302.390 338.151,299.690 338.623,297.600 338.973 C 295.510 339.323,292.720 339.807,291.400 340.048 C 290.080 340.288,287.560 340.715,285.800 340.995 C 284.040 341.275,281.520 341.703,280.200 341.947 C 278.880 342.191,276.090 342.675,274.000 343.023 C 271.910 343.372,268.850 343.907,267.200 344.214 C 265.550 344.520,261.950 345.148,259.200 345.610 C 249.103 347.305,246.939 347.675,244.000 348.208 C 240.544 348.835,236.834 349.468,233.400 350.016 C 232.080 350.227,230.415 350.498,229.700 350.618 C 227.314 351.019,227.732 350.063,233.553 341.800 C 234.483 340.480,236.410 337.690,237.834 335.600 C 239.259 333.510,241.193 330.720,242.133 329.400 C 243.073 328.080,245.014 325.290,246.446 323.200 C 247.877 321.110,249.749 318.410,250.604 317.200 C 251.459 315.990,252.936 313.870,253.885 312.488 C 256.418 308.801,258.437 305.916,259.162 304.946 C 259.513 304.477,260.030 303.757,260.310 303.346 C 260.591 302.936,262.076 300.800,263.610 298.600 C 265.144 296.400,266.625 294.268,266.900 293.862 C 267.175 293.456,268.174 292.072,269.121 290.786 L 270.842 288.449 278.121 288.287 C 286.271 288.105,288.906 287.549,294.400 284.849 C 314.037 275.200,320.859 246.896,307.716 229.600 C 293.409 210.773,268.146 208.965,251.597 225.584 C 240.889 236.338,237.305 253.811,243.391 265.600 C 244.313 267.386,244.476 269.045,243.869 270.459 C 243.060 272.340,232.452 288.073,224.356 299.400 C 223.255 300.940,221.741 303.100,220.991 304.200 C 220.241 305.300,218.731 307.460,217.636 309.000 C 214.522 313.375,212.819 315.788,208.742 321.600 C 206.658 324.570,204.289 327.945,203.477 329.100 C 202.664 330.255,201.339 332.145,200.531 333.300 C 199.724 334.455,197.777 337.200,196.207 339.400 C 194.636 341.600,192.552 344.569,191.575 345.997 C 190.599 347.426,189.660 348.776,189.488 348.997 C 189.316 349.219,188.467 350.390,187.600 351.600 C 186.733 352.810,185.884 353.980,185.712 354.200 C 185.540 354.420,184.873 355.376,184.229 356.324 C 182.716 358.552,182.268 358.763,177.659 359.429 C 173.161 360.079,170.024 360.563,164.900 361.397 C 157.096 362.668,149.950 363.784,144.400 364.597 C 142.310 364.904,139.430 365.369,138.000 365.632 C 134.593 366.258,123.211 366.288,120.400 365.679 C 112.507 363.968,109.932 363.314,106.800 362.222 C 105.810 361.876,104.687 361.415,104.305 361.197 C 103.923 360.979,103.420 360.800,103.186 360.800 C 102.589 360.800,95.299 357.157,92.300 355.360 C 83.249 349.936,73.827 340.216,67.717 330.000 C 61.819 320.138,61.205 318.312,59.176 304.600 C 58.981 303.280,58.557 300.760,58.234 299.000 C 57.911 297.240,57.353 294.000,56.995 291.800 C 56.293 287.494,55.616 283.503,54.620 277.800 C 54.274 275.820,53.828 273.120,53.630 271.800 C 52.986 267.524,52.378 263.864,51.800 260.800 C 51.222 257.736,50.614 254.076,49.970 249.800 C 49.772 248.480,49.326 245.780,48.980 243.800 C 47.965 237.985,47.300 234.062,46.608 229.800 C 46.250 227.600,45.710 224.450,45.406 222.800 C 45.103 221.150,44.747 218.990,44.616 218.000 C 44.485 217.010,44.123 214.760,43.812 213.000 C 43.501 211.240,42.953 208.000,42.595 205.800 C 42.236 203.600,41.695 200.360,41.392 198.600 C 40.374 192.680,39.229 185.809,39.059 184.600 C 38.967 183.940,38.705 182.410,38.477 181.200 C 38.250 179.990,37.782 177.290,37.438 175.200 C 37.094 173.110,36.612 170.230,36.367 168.800 C 36.122 167.370,35.764 165.120,35.572 163.800 C 35.379 162.480,34.957 159.960,34.634 158.200 C 34.311 156.440,33.753 153.200,33.395 151.000 C 32.710 146.797,32.063 142.981,31.022 137.000 C 29.633 129.024,29.456 127.705,29.465 125.400 C 29.490 118.681,32.798 103.725,35.217 99.400 C 36.110 97.803,36.677 97.965,40.567 100.930 C 42.345 102.286,46.320 105.201,49.400 107.408 C 52.480 109.615,56.170 112.282,57.600 113.334 C 63.668 117.800,69.400 121.970,72.810 124.400 C 74.816 125.830,78.470 128.537,80.929 130.414 L 85.400 133.829 85.419 140.414 C 85.456 153.054,89.509 161.894,98.546 169.045 C 103.228 172.751,108.262 175.158,114.765 176.800 C 131.393 181.000,150.350 170.802,156.778 154.200 C 157.289 152.880,157.856 151.440,158.038 151.000 C 160.643 144.711,159.639 133.151,155.779 124.992 C 148.413 109.421,129.658 99.856,114.970 104.179 C 111.198 105.289,107.873 106.499,106.910 107.112 C 105.324 108.122,103.521 107.878,101.489 106.377 C 100.464 105.620,97.504 103.431,94.912 101.512 C 92.321 99.594,85.430 94.518,79.600 90.232 C 73.770 85.946,68.781 82.250,68.514 82.017 C 68.247 81.785,67.075 80.921,65.910 80.098 C 61.225 76.787,55.536 72.298,55.324 71.747 C 55.057 71.051,55.187 70.945,61.600 66.633 C 73.143 58.871,77.444 57.375,98.400 53.836 C 100.270 53.520,102.700 53.088,103.800 52.875 C 104.900 52.661,107.600 52.188,109.800 51.823 C 112.000 51.457,115.150 50.910,116.800 50.606 C 118.450 50.303,120.610 49.939,121.600 49.797 C 122.590 49.655,124.750 49.299,126.400 49.006 C 128.050 48.712,131.200 48.173,133.400 47.808 C 135.600 47.442,138.750 46.894,140.400 46.589 C 142.050 46.284,144.660 45.832,146.200 45.585 C 152.508 44.572,153.559 44.400,157.200 43.785 C 159.290 43.432,162.350 42.894,164.000 42.589 C 165.650 42.284,168.260 41.831,169.800 41.583 C 171.340 41.335,174.040 40.891,175.800 40.598 C 177.560 40.305,180.800 39.778,183.000 39.426 C 185.200 39.074,187.630 38.627,188.400 38.434 C 190.579 37.886,193.604 37.923,193.763 38.500 M128.214 126.847 C 137.732 131.058,140.148 144.873,132.537 151.572 C 122.774 160.165,107.600 153.849,107.600 141.192 C 107.600 129.954,118.340 122.480,128.214 126.847 M140.742 198.591 C 140.637 198.696,138.762 199.056,136.576 199.390 C 126.692 200.903,121.717 201.886,121.407 202.389 C 120.750 203.453,124.324 218.926,126.584 224.800 C 129.108 231.361,130.488 234.298,133.347 239.200 C 141.642 253.422,153.609 263.282,170.000 269.400 C 181.489 273.688,199.243 274.780,214.600 272.144 C 220.393 271.149,220.109 271.274,219.843 269.847 C 219.564 268.349,218.659 262.862,217.800 257.464 C 217.167 253.484,216.177 248.844,215.903 248.569 C 215.743 248.409,212.561 248.885,207.400 249.841 C 197.928 251.595,183.789 250.976,178.086 248.557 C 177.364 248.251,176.530 248.000,176.233 248.000 C 173.882 248.000,162.518 240.624,159.200 236.945 C 151.197 228.071,147.745 220.061,145.004 204.000 C 143.967 197.928,144.182 198.400,142.459 198.400 C 141.620 198.400,140.847 198.486,140.742 198.591 M280.635 236.992 C 298.190 240.655,295.711 266.195,277.800 266.195 C 258.702 266.195,257.935 237.685,277.000 236.452 C 277.440 236.424,279.076 236.667,280.635 236.992 " stroke="none" fill="#f3f2f3" fill-rule="evenodd"></path><path id="path1" d="M216.991 36.300 C 217.143 36.905,217.530 39.020,217.849 41.000 C 218.168 42.980,218.681 46.130,218.987 48.000 C 219.294 49.870,219.752 52.750,220.005 54.400 C 220.258 56.050,220.720 58.517,221.033 59.882 C 221.345 61.247,221.600 62.920,221.600 63.600 C 221.600 64.280,221.855 65.953,222.167 67.318 C 222.480 68.683,222.942 71.150,223.196 72.800 C 224.259 79.712,224.428 80.737,224.972 83.600 C 225.286 85.250,225.841 88.400,226.204 90.600 C 228.413 103.962,230.049 110.092,232.469 114.079 C 238.889 124.655,248.531 132.820,259.400 136.883 C 265.224 139.061,270.892 140.172,274.600 139.864 C 279.138 139.488,284.348 138.845,288.200 138.186 C 290.180 137.848,293.510 137.294,295.600 136.957 C 297.690 136.619,300.750 136.094,302.400 135.789 C 304.050 135.484,306.660 135.031,308.200 134.782 C 313.291 133.958,321.573 132.542,325.600 131.805 C 327.250 131.504,330.310 130.971,332.400 130.622 C 334.490 130.273,337.190 129.808,338.400 129.588 C 339.610 129.368,341.860 128.997,343.400 128.763 C 348.040 128.058,348.107 127.751,344.223 124.998 C 342.984 124.119,341.095 122.770,340.025 122.000 C 338.955 121.230,337.683 120.330,337.199 120.000 C 336.715 119.670,335.082 118.500,333.569 117.400 C 332.057 116.300,329.550 114.500,328.000 113.400 C 326.450 112.300,323.930 110.500,322.400 109.400 C 320.870 108.300,318.351 106.500,316.800 105.400 C 315.250 104.300,313.636 103.130,313.213 102.800 C 312.790 102.470,311.150 101.300,309.568 100.200 C 307.986 99.100,305.549 97.390,304.152 96.400 C 302.754 95.410,300.702 93.970,299.590 93.200 C 298.479 92.430,296.272 90.857,294.685 89.705 C 290.767 86.860,290.777 86.867,287.591 84.600 C 286.046 83.500,283.530 81.700,282.000 80.600 C 275.712 76.078,262.931 66.993,256.394 62.400 C 253.733 60.530,250.324 58.100,248.818 57.000 C 247.313 55.900,245.684 54.730,245.200 54.400 C 244.716 54.070,243.082 52.900,241.569 51.800 C 240.057 50.700,237.600 48.929,236.109 47.864 C 234.619 46.799,231.150 44.317,228.400 42.348 C 217.549 34.581,216.404 33.973,216.991 36.300 M188.400 38.434 C 187.630 38.627,185.200 39.074,183.000 39.426 C 180.800 39.778,177.560 40.305,175.800 40.598 C 174.040 40.891,171.340 41.335,169.800 41.583 C 168.260 41.831,165.650 42.284,164.000 42.589 C 162.350 42.894,159.290 43.432,157.200 43.785 C 153.559 44.400,152.508 44.572,146.200 45.585 C 144.660 45.832,142.050 46.284,140.400 46.589 C 138.750 46.894,135.600 47.442,133.400 47.808 C 131.200 48.173,128.050 48.712,126.400 49.006 C 124.750 49.299,122.590 49.655,121.600 49.797 C 120.610 49.939,118.450 50.303,116.800 50.606 C 115.150 50.910,112.000 51.457,109.800 51.823 C 107.600 52.188,104.900 52.661,103.800 52.875 C 102.700 53.088,100.270 53.520,98.400 53.836 C 77.444 57.375,73.143 58.871,61.600 66.633 C 55.187 70.945,55.057 71.051,55.324 71.747 C 55.536 72.298,61.225 76.787,65.910 80.098 C 67.075 80.921,68.247 81.785,68.514 82.017 C 68.781 82.250,73.770 85.946,79.600 90.232 C 85.430 94.518,92.321 99.594,94.912 101.512 C 97.504 103.431,100.464 105.620,101.489 106.377 C 103.521 107.878,105.324 108.122,106.910 107.112 C 107.873 106.499,111.198 105.289,114.970 104.179 C 129.658 99.856,148.413 109.421,155.779 124.992 C 159.639 133.151,160.643 144.711,158.038 151.000 C 157.856 151.440,157.289 152.880,156.778 154.200 C 150.350 170.802,131.393 181.000,114.765 176.800 C 95.914 172.039,85.474 159.094,85.419 140.414 L 85.400 133.829 80.929 130.414 C 78.470 128.537,74.816 125.830,72.810 124.400 C 69.400 121.970,63.668 117.800,57.600 113.334 C 56.170 112.282,52.480 109.615,49.400 107.408 C 46.320 105.201,42.345 102.286,40.567 100.930 C 36.677 97.965,36.110 97.803,35.217 99.400 C 32.798 103.725,29.490 118.681,29.465 125.400 C 29.456 127.705,29.633 129.024,31.022 137.000 C 32.063 142.981,32.710 146.797,33.395 151.000 C 33.753 153.200,34.311 156.440,34.634 158.200 C 34.957 159.960,35.379 162.480,35.572 163.800 C 35.764 165.120,36.122 167.370,36.367 168.800 C 36.612 170.230,37.094 173.110,37.438 175.200 C 37.782 177.290,38.250 179.990,38.477 181.200 C 38.705 182.410,38.967 183.940,39.059 184.600 C 39.229 185.809,40.374 192.680,41.392 198.600 C 41.695 200.360,42.236 203.600,42.595 205.800 C 42.953 208.000,43.501 211.240,43.812 213.000 C 44.123 214.760,44.485 217.010,44.616 218.000 C 44.747 218.990,45.103 221.150,45.406 222.800 C 45.710 224.450,46.250 227.600,46.608 229.800 C 47.300 234.062,47.965 237.985,48.980 243.800 C 49.326 245.780,49.772 248.480,49.970 249.800 C 50.614 254.076,51.222 257.736,51.800 260.800 C 52.378 263.864,52.986 267.524,53.630 271.800 C 53.828 273.120,54.274 275.820,54.620 277.800 C 55.616 283.503,56.293 287.494,56.995 291.800 C 57.353 294.000,57.911 297.240,58.234 299.000 C 58.557 300.760,58.981 303.280,59.176 304.600 C 61.205 318.312,61.819 320.138,67.717 330.000 C 73.827 340.216,83.249 349.936,92.300 355.360 C 95.299 357.157,102.589 360.800,103.186 360.800 C 103.420 360.800,103.923 360.979,104.305 361.197 C 104.687 361.415,105.810 361.876,106.800 362.222 C 109.932 363.314,112.507 363.968,120.400 365.679 C 123.211 366.288,134.593 366.258,138.000 365.632 C 139.430 365.369,142.310 364.904,144.400 364.597 C 149.950 363.784,157.096 362.668,164.900 361.397 C 170.024 360.563,173.161 360.079,177.659 359.429 C 182.268 358.763,182.716 358.552,184.229 356.324 C 184.873 355.376,185.540 354.420,185.712 354.200 C 185.884 353.980,186.733 352.810,187.600 351.600 C 188.467 350.390,189.316 349.219,189.488 348.997 C 189.660 348.776,190.599 347.426,191.575 345.997 C 192.552 344.569,194.636 341.600,196.207 339.400 C 197.777 337.200,199.724 334.455,200.531 333.300 C 201.339 332.145,202.664 330.255,203.477 329.100 C 204.289 327.945,206.658 324.570,208.742 321.600 C 212.819 315.788,214.522 313.375,217.636 309.000 C 218.731 307.460,220.241 305.300,220.991 304.200 C 221.741 303.100,223.255 300.940,224.356 299.400 C 232.452 288.073,243.060 272.340,243.869 270.459 C 244.476 269.045,244.313 267.386,243.391 265.600 C 241.057 261.078,239.898 252.609,240.826 246.846 C 244.926 221.369,271.632 206.905,294.000 218.047 C 324.396 233.187,319.996 278.193,287.200 287.608 C 286.150 287.909,282.367 288.192,278.121 288.287 L 270.842 288.449 269.121 290.786 C 268.174 292.072,267.175 293.456,266.900 293.862 C 266.625 294.268,265.144 296.400,263.610 298.600 C 262.076 300.800,260.591 302.936,260.310 303.346 C 260.030 303.757,259.513 304.477,259.162 304.946 C 258.437 305.916,256.418 308.801,253.885 312.488 C 252.936 313.870,251.459 315.990,250.604 317.200 C 249.749 318.410,247.877 321.110,246.446 323.200 C 245.014 325.290,243.073 328.080,242.133 329.400 C 241.193 330.720,239.259 333.510,237.834 335.600 C 236.410 337.690,234.483 340.480,233.553 341.800 C 227.732 350.063,227.314 351.019,229.700 350.618 C 230.415 350.498,232.080 350.227,233.400 350.016 C 236.834 349.468,240.544 348.835,244.000 348.208 C 246.939 347.675,249.103 347.305,259.200 345.610 C 261.950 345.148,265.550 344.520,267.200 344.214 C 268.850 343.907,271.910 343.372,274.000 343.023 C 276.090 342.675,278.880 342.191,280.200 341.947 C 281.520 341.703,284.040 341.275,285.800 340.995 C 287.560 340.715,290.080 340.288,291.400 340.048 C 292.720 339.807,295.510 339.323,297.600 338.973 C 299.690 338.623,302.390 338.151,303.600 337.925 C 304.810 337.698,307.240 337.277,309.000 336.988 C 321.966 334.865,322.305 334.781,326.536 332.620 C 332.857 329.393,338.309 325.987,342.800 322.459 C 345.587 320.269,354.461 311.208,355.786 309.199 C 356.439 308.210,357.453 306.770,358.039 306.000 C 359.589 303.966,364.400 294.999,364.400 294.145 C 364.400 294.022,364.662 293.354,364.982 292.660 C 366.852 288.612,368.789 281.470,369.773 275.000 C 370.074 273.020,370.520 270.311,370.763 268.981 C 371.075 267.279,371.084 265.973,370.793 264.581 C 370.567 263.491,370.197 261.250,369.973 259.600 C 369.748 257.950,369.407 255.970,369.214 255.200 C 369.021 254.430,368.747 252.810,368.605 251.600 C 368.463 250.390,368.100 248.050,367.799 246.400 C 367.498 244.750,366.977 241.690,366.641 239.600 C 366.305 237.510,365.757 234.180,365.424 232.200 C 365.092 230.220,364.717 227.880,364.593 227.000 C 364.468 226.120,364.117 223.960,363.812 222.200 C 363.507 220.440,362.968 217.200,362.614 215.000 C 362.260 212.800,361.702 209.380,361.372 207.400 C 360.628 202.927,360.153 200.016,359.416 195.400 C 359.100 193.420,358.649 190.630,358.415 189.200 C 358.180 187.770,357.708 184.890,357.365 182.800 C 357.023 180.710,356.493 177.560,356.188 175.800 C 355.883 174.040,355.532 171.880,355.407 171.000 C 355.283 170.120,354.908 167.780,354.576 165.800 C 353.799 161.177,352.867 155.423,352.580 153.479 C 352.243 151.193,352.583 151.195,339.000 153.410 C 337.240 153.696,334.540 154.135,333.000 154.383 C 331.460 154.631,328.850 155.089,327.200 155.400 C 323.626 156.074,318.187 156.938,307.400 158.545 C 305.200 158.872,302.140 159.328,300.600 159.558 C 274.269 163.480,259.747 162.587,246.798 156.249 C 234.788 150.370,222.017 139.831,216.204 131.000 C 214.880 128.990,211.200 121.915,211.200 121.381 C 211.200 121.238,210.950 120.554,210.646 119.860 C 209.992 118.374,208.746 114.688,207.853 111.600 C 206.319 106.293,206.030 105.214,205.284 102.000 C 203.365 93.727,202.002 86.774,199.992 75.000 C 199.542 72.360,199.001 69.390,198.791 68.400 C 198.582 67.410,198.312 65.790,198.192 64.800 C 198.072 63.810,197.718 61.650,197.404 60.000 C 196.864 57.154,196.625 55.734,195.419 48.200 C 194.587 43.001,193.910 39.035,193.763 38.500 C 193.604 37.923,190.579 37.886,188.400 38.434 M119.400 125.848 C 110.967 127.095,104.994 138.444,108.556 146.450 C 115.716 162.543,139.900 155.591,136.815 138.327 C 135.304 129.875,127.924 124.586,119.400 125.848 M144.170 199.300 C 144.272 199.795,144.647 201.910,145.004 204.000 C 147.745 220.061,151.197 228.071,159.200 236.945 C 162.518 240.624,173.882 248.000,176.233 248.000 C 176.530 248.000,177.364 248.251,178.086 248.557 C 183.789 250.976,197.928 251.595,207.400 249.841 C 212.561 248.885,215.743 248.409,215.903 248.569 C 216.177 248.844,217.167 253.484,217.800 257.464 C 218.659 262.862,219.564 268.349,219.843 269.847 C 220.109 271.274,220.393 271.149,214.600 272.144 C 199.243 274.780,181.489 273.688,170.000 269.400 C 153.609 263.282,141.642 253.422,133.347 239.200 C 130.488 234.298,129.108 231.361,126.584 224.800 C 124.324 218.926,120.750 203.453,121.407 202.389 C 121.717 201.886,126.692 200.903,136.576 199.390 C 138.762 199.056,140.637 198.696,140.742 198.591 C 141.412 197.922,143.996 198.456,144.170 199.300 M273.931 237.000 C 264.447 239.074,259.820 251.318,265.359 259.686 C 269.988 266.679,280.057 268.452,286.597 263.427 C 299.617 253.422,290.058 233.474,273.931 237.000 " stroke="none" fill="#7444bc" fill-rule="evenodd"></path></g></svg>