<svg version="1.1" xmlns="http://www.w3.org/2000/svg" xmlns:xlink="http://www.w3.org/1999/xlink" stroke-linecap="round" stroke-linejoin="round" stroke-width="0" fill-rule="evenodd" clip-rule="evenodd" fill="currentColor" stroke="currentColor" viewBox="0.10652 -82.46386 54.999939999999995 82.49987" width="54.999939999999995mm" height="82.49987mm"><circle cx="9.846" cy="-75.895" r="0.153"></circle><circle cx="49.355" cy="-68.146" r="0.4"></circle><circle cx="44.275" cy="-68.146" r="0.4"></circle><circle cx="43.005" cy="-55.217" r="0.45"></circle><circle cx="50.625" cy="-55.217" r="0.45"></circle><circle cx="50.625" cy="-64.483" r="0.45"></circle><circle cx="43.005" cy="-64.483" r="0.45"></circle><circle cx="50.546" cy="-61.468" r="0.45"></circle><circle cx="42.926" cy="-61.468" r="0.45"></circle><circle cx="50.673" cy="-58.293" r="0.45"></circle><circle cx="43.053" cy="-58.293" r="0.45"></circle><circle cx="4.064" cy="-41.783" r="0.45"></circle><circle cx="11.684" cy="-41.783" r="0.45"></circle><circle cx="49.371" cy="-44.831" r="0.4505"></circle><circle cx="46.871" cy="-44.831" r="0.4505"></circle><circle cx="44.371" cy="-44.831" r="0.4505"></circle><circle cx="50.673" cy="-52.07" r="0.5"></circle><circle cx="50.673" cy="-49.53" r="0.5"></circle><circle cx="43.053" cy="-52.07" r="0.5"></circle><circle cx="43.053" cy="-49.53" r="0.5"></circle><path stroke-width="1" fill="none" d="M3.613 -13.177L3.613 -11.177"></path><path stroke-width="1" fill="none" d="M3.613 -24.099L3.613 -22.099"></path><path stroke-width="1" fill="none" d="M3.613 -35.148L3.613 -33.148"></path><path stroke-width="1" fill="none" d="M51.746 -35.148L51.746 -33.148"></path><path stroke-width="1" fill="none" d="M51.746 -24.099L51.746 -22.099"></path><path stroke-width="1" fill="none" d="M51.746 -13.177L51.746 -11.177"></path><circle cx="25.2" cy="-3" r="0.5"></circle><circle cx="27.7" cy="-3" r="0.5"></circle><circle cx="30.2" cy="-3" r="0.5"></circle><circle cx="31.497" cy="-79.757" r="0.5"></circle><circle cx="28.957" cy="-79.757" r="0.5"></circle><circle cx="26.417" cy="-79.757" r="0.5"></circle><circle cx="23.877" cy="-79.754" r="0.5"></circle><path stroke-width="1" fill="none" d="M28.836 -26.924L26.536 -26.924"></path><path stroke-width="1" fill="none" d="M28.836 -35.56L26.536 -35.56"></path><circle cx="24.384" cy="-44.831" r="0.508"></circle><circle cx="26.924" cy="-44.831" r="0.508"></circle><circle cx="9.144" cy="-67.691" r="0.508"></circle><circle cx="11.684" cy="-67.691" r="0.508"></circle><circle cx="14.224" cy="-67.691" r="0.508"></circle><circle cx="16.764" cy="-67.691" r="0.508"></circle><circle cx="19.304" cy="-67.691" r="0.508"></circle><circle cx="21.844" cy="-67.691" r="0.508"></circle><circle cx="24.384" cy="-67.691" r="0.508"></circle><circle cx="26.924" cy="-67.691" r="0.508"></circle><circle cx="9.144" cy="-44.831" r="0.508"></circle><circle cx="11.684" cy="-44.831" r="0.508"></circle><circle cx="14.224" cy="-44.831" r="0.508"></circle><circle cx="16.764" cy="-44.831" r="0.508"></circle><circle cx="19.304" cy="-44.831" r="0.508"></circle><circle cx="21.844" cy="-44.831" r="0.508"></circle><circle cx="22.701" cy="-3" r="0.6"></circle><circle cx="27.7" cy="-3" r="0.6"></circle><circle cx="32.701" cy="-3" r="0.6"></circle><circle cx="33.936" cy="-28.615" r="0.7505"></circle><circle cx="21.436" cy="-28.615" r="0.7505"></circle><circle cx="33.936" cy="-33.615" r="0.7505"></circle><circle cx="21.436" cy="-33.615" r="0.7505"></circle><path stroke-width="1.8" fill="none" d="M23.3 -9.85L23.3 -10.15"></path><path stroke-width="1.8" fill="none" d="M32.1 -9.85L32.1 -10.15"></path></svg>