<svg version="1.1" xmlns="http://www.w3.org/2000/svg" xmlns:xlink="http://www.w3.org/1999/xlink" stroke-linecap="round" stroke-linejoin="round" stroke-width="0" fill-rule="evenodd" clip-rule="evenodd" fill="currentColor" stroke="currentColor" viewBox="0.10652 -82.46386 54.999939999999995 82.49987" width="54.999939999999995mm" height="82.49987mm"><path d="M12.58722 -81.25612L12.58824 -55.1754L12.59636 -55.01589L12.61262 -54.85688L12.63751 -54.6994L12.67002 -54.54294L12.71066 -54.38851L12.75892 -54.23662L12.81531 -54.08726L12.87932 -53.94096L12.95095 -53.79821L13.02918 -53.65902L13.11503 -53.5244L13.20749 -53.39435L13.30655 -53.26938L13.35836 -53.20842L13.46708 -53.09158L13.58138 -52.97982L13.70126 -52.87467L13.82623 -52.77561L13.95628 -52.68315L14.09141 -52.5973L14.23009 -52.51856L14.37284 -52.44744L14.51914 -52.38343L14.6685 -52.32704L14.74419 -52.30164L14.8976 -52.25745L15.05305 -52.22036L15.21002 -52.19192L15.36852 -52.1716L15.52752 -52.1589L15.68704 -52.15483L20.7015 -52.15585L20.72843 -52.16398L20.7523 -52.17922L20.7711 -52.20106L20.77821 -52.21325L20.78583 -52.24068L20.78685 -54.15483L34.58718 -54.15483L34.58819 -52.24068L34.59581 -52.21325L34.61156 -52.18938L34.6329 -52.17109L34.6588 -52.1589L34.68725 -52.15483L42.70146 -52.15585L42.72838 -52.16398L42.75226 -52.17922L42.77106 -52.20106L42.77817 -52.21325L42.78579 -52.24068L42.7868 -77.75498L42.58716 -77.75498L42.58716 -52.40477L42.58208 -52.38343L42.56836 -52.36616L42.55871 -52.36006L42.53687 -52.35498L34.83711 -52.35498L34.81527 -52.36006L34.798 -52.37378L34.7919 -52.38343L34.78682 -52.40528L34.7858 -54.26913L34.77818 -54.29656L34.76244 -54.32044L34.7411 -54.33923L34.71519 -54.35092L34.68725 -54.35498L20.71878 -54.35396L20.701 -54.35092L20.66747 -54.33771L20.6375 -54.31739L20.61362 -54.29046L20.59686 -54.25846L20.59127 -54.24119L20.5872 -54.20512L20.5872 -52.40477L20.58212 -52.38343L20.56841 -52.36616L20.55875 -52.36006L20.53691 -52.35498L15.60982 -52.356L15.4559 -52.36413L15.37868 -52.37124L15.22577 -52.39207L15.07388 -52.42052L14.92402 -52.45709L14.77619 -52.5018L14.6309 -52.55412L14.48866 -52.61406L14.34998 -52.68163L14.21485 -52.7563L14.08379 -52.8386L13.9578 -52.92699L13.83588 -53.0225L13.72006 -53.1241L13.60932 -53.23179L13.50467 -53.34558L13.45438 -53.404L13.35938 -53.52542L13.27048 -53.65191L13.18869 -53.78297L13.11351 -53.9181L13.04645 -54.05678L12.986 -54.19902L12.93368 -54.34431L12.88897 -54.49214L12.8524 -54.642L12.82395 -54.79389L12.80363 -54.9468L12.79093 -55.10072L12.78686 -55.25516L12.78686 -81.25612"></path><path d="M12.83716 -81.35518L12.83716 -81.15503L39.7642 -81.15401L39.91813 -81.14588L39.99534 -81.13877L40.14825 -81.11794L40.30014 -81.0895L40.45 -81.05292L40.59783 -81.00822L40.74312 -80.95589L40.88536 -80.89595L41.02404 -80.82838L41.15917 -80.75371L41.29024 -80.67141L41.41622 -80.58302L41.53814 -80.48752L41.65396 -80.38592L41.76471 -80.27822L41.86936 -80.16443L41.91965 -80.10601L42.01464 -79.98459L42.10354 -79.8581L42.18533 -79.72704L42.26052 -79.59191L42.32757 -79.45323L42.38802 -79.31099L42.44035 -79.1657L42.48505 -79.01787L42.52163 -78.86801L42.55008 -78.71612L42.5704 -78.56321L42.5831 -78.40929L42.58716 -78.25486L42.7868 -78.25486L42.78274 -78.41437L42.77055 -78.57388L42.75023 -78.73187L42.72127 -78.88884L42.6847 -79.04429L42.63999 -79.1977L42.6151 -79.2734L42.55871 -79.42275L42.4947 -79.56905L42.42308 -79.7118L42.34484 -79.85099L42.25899 -79.98561L42.16654 -80.11566L42.06748 -80.24063L42.01566 -80.30159L41.90695 -80.41843L41.79265 -80.53019L41.67276 -80.63534L41.54779 -80.7344L41.41774 -80.82686L41.28262 -80.91271L41.14393 -80.99145L41.00118 -81.06257L40.85488 -81.12658L40.70553 -81.18297L40.62984 -81.20837L40.47642 -81.25256L40.32097 -81.28965L40.164 -81.31809L40.0055 -81.33842L39.8465 -81.35112L39.68699 -81.35518"></path><path stroke-width="0.3" fill="none" d="M50.82311 -53.34A0.15011 0.15011 0 0 0 50.522890000000004 -53.34A0.15011 0.15011 0 0 0 50.82311 -53.34"></path><path stroke-width="0.4" fill="none" d="M24.4998 -2.50025A0.1999 0.1999 0 0 0 24.1 -2.50025A0.1999 0.1999 0 0 0 24.4998 -2.50025"></path><path stroke-width="0.254" fill="none" d="M9.144 -41.783A1.27 1.27 0 0 0 6.604000000000001 -41.783A1.27 1.27 0 0 0 9.144 -41.783"></path></svg>