<svg version="1.1" xmlns="http://www.w3.org/2000/svg" xmlns:xlink="http://www.w3.org/1999/xlink" stroke-linecap="round" stroke-linejoin="round" stroke-width="0" fill-rule="evenodd" clip-rule="evenodd" fill="currentColor" stroke="currentColor" viewBox="0.10652 -82.46386 54.999939999999995 82.49987" width="54.999939999999995mm" height="82.49987mm"><path d="M42.9392 -28.88437L42.91533 -28.88386L42.88891 -28.87522L42.62018 -28.82036L42.56481 -28.80512L42.53331 -28.7782L42.39869 -28.61513L42.21226 -28.39618L42.13504 -28.32404L42.09237 -28.29458L42.05528 -28.27426L41.9994 -28.26054L41.94962 -28.27426L41.9105 -28.29356L41.87139 -28.3276L41.83735 -28.38145L41.81551 -28.448L41.81551 -28.49473L41.82516 -28.53893L41.8531 -28.71012L41.83887 -28.71012L41.78401 -28.67355L41.77842 -28.67355L41.72305 -28.63697L41.49598 -28.50083L41.45838 -28.45155L41.44416 -28.41193L41.39336 -28.29864L41.39336 -28.29356L41.32326 -28.13761L41.23639 -27.95219L41.18305 -27.87345L41.12158 -27.81706L41.08297 -27.79166L41.02658 -27.77642L40.96308 -27.7876L40.89095 -27.82062L40.83659 -27.87954L40.82389 -27.92679L40.81779 -28.05328L40.80865 -28.12491L40.80205 -28.13151L40.7797 -28.11119L40.51198 -27.80792L40.48709 -27.75762L40.42816 -27.31465L40.41698 -27.25115L40.39717 -27.1719L40.37431 -27.11399L40.34688 -27.06166L40.31386 -27.02052L40.26662 -26.98597L40.20261 -26.96362L40.1132 -26.96362L40.0624 -26.97937L40.02684 -27.00121L40.00652 -27.03474L39.92524 -27.19324L39.91508 -27.2039L39.8338 -27.16225L39.77284 -27.12161L39.70324 -27.05658L39.66464 -26.99816L39.65244 -26.97175L39.64533 -26.95041L39.63111 -26.8925L39.6306 -26.83764L39.65194 -26.72892L39.66362 -26.68676L39.69512 -26.59176L39.73169 -26.50947L39.75709 -26.43886L39.75709 -26.35097L39.73169 -26.30017L39.67378 -26.24785L39.61434 -26.21838L39.55389 -26.20416L39.51732 -26.20365L39.44874 -26.21838L39.4274 -26.226L39.38066 -26.24836L39.33698 -26.29103L39.31564 -26.32252L39.29684 -26.36977L39.28211 -26.43835L39.28211 -26.51099L39.3192 -26.6578L39.41927 -26.99258L39.43959 -27.07182L39.4528 -27.16428L39.43959 -27.25674L39.41876 -27.31973L39.40657 -27.34614L39.36644 -27.41371L39.29532 -27.48686L39.22166 -27.53563L39.15054 -27.56712L39.14038 -27.55747L39.17137 -27.43606L39.18712 -27.33649L39.18712 -27.2608L39.16527 -27.14548L39.12209 -27.02407L39.05961 -26.90317L39.05148 -26.8925L39.00779 -26.81528L38.99001 -26.78836L38.97223 -26.75534L38.9575 -26.75229L38.9387 -26.78379L38.88435 -26.8483L38.82491 -26.89402L38.78376 -26.91536L38.74668 -26.93111L38.68318 -26.95194L38.62527 -26.96362L38.53027 -26.97327L38.52519 -26.96819L38.66337 -26.83459L38.69182 -26.7848L38.71315 -26.72892L38.71417 -26.62326L38.67912 -26.30728L38.6781 -26.11678L38.69232 -26.05836L38.71366 -25.99537L38.75379 -25.91866L38.8178 -25.84094L38.89044 -25.77795L39.14241 -25.58948L39.148 -25.58288L39.16984 -25.56764L39.23029 -25.51531L39.27805 -25.45181L39.30294 -25.40355L39.32377 -25.33548L39.33596 -25.25318L39.32377 -25.19832L39.30192 -25.15362L39.24655 -25.10129L39.19423 -25.0764L39.12971 -25.06268L39.07383 -25.06878L39.02964 -25.07843L38.97274 -25.10586L38.92651 -25.1526L38.90467 -25.19324L38.8813 -25.27147L38.8813 -25.29789L38.87165 -25.3304L38.85996 -25.38831L38.84879 -25.43048L38.81678 -25.53106L38.79494 -25.5783L38.76344 -25.62606L38.71518 -25.67686L38.65575 -25.7175L38.59377 -25.74747L38.50792 -25.77084L38.41242 -25.77084L38.38397 -25.76017L38.40378 -25.73782L38.48049 -25.67533L38.52164 -25.61437L38.5445 -25.54325L38.53179 -25.2989L38.54399 -25.20899L38.55465 -25.15108L38.58564 -25.02966L38.62222 -24.9174L38.65118 -24.84475L38.70248 -24.74163L38.74566 -24.67051L38.8178 -24.575L38.90518 -24.4856L38.98392 -24.4221L39.04843 -24.37892L39.14952 -24.31948L39.17746 -24.2763L39.18305 -24.20112L39.14444 -23.92934L39.1292 -23.77389L39.11904 -23.4889L39.12971 -23.19832L39.14546 -23.02967L39.16679 -22.87676L39.18915 -22.75535L39.20337 -22.72588L39.21658 -22.7335L39.76522 -23.14448L39.7764 -23.14854L39.78808 -23.12466L39.84802 -22.97176L39.92575 -22.80513L39.97858 -22.70252L40.04411 -22.58618L40.08221 -22.52827L40.10964 -22.48052L40.25595 -22.28037L40.40835 -22.10104L40.61002 -21.90038L40.72585 -21.80132L40.90517 -21.66721L41.03522 -21.58085L41.04335 -21.58085L41.05351 -21.59406L41.06773 -21.63114L41.20337 -21.94001L41.20337 -21.94509L41.25569 -22.06142L41.25569 -22.0665L41.30294 -22.17064L41.32326 -22.22246L41.34002 -22.2255L41.43349 -22.16251L41.60672 -22.06091L41.78808 -21.9715L41.79366 -21.9715L41.86021 -21.94153L42.07103 -21.86686L42.18228 -21.83536L42.27677 -21.8125L42.43019 -21.78202L42.58818 -21.76119L42.70959 -21.75002L42.958 -21.74392L43.19016 -21.75611L43.36389 -21.77542L43.49089 -21.79675L43.62246 -21.82368L43.83887 -21.87803L43.84954 -21.88819L43.6438 -21.88006L43.3009 -21.87905L43.2059 -21.88718L43.11599 -21.89784L42.93158 -21.92985L42.83659 -21.95169L42.75734 -21.97303L42.65676 -22.00402L42.54093 -22.04669L42.46981 -22.07717L42.46473 -22.07717L42.34027 -22.13559L42.24528 -22.18436L42.19295 -22.21382L42.02887 -22.32152L41.93946 -22.39111L41.86021 -22.45918L41.77182 -22.54402L41.65854 -22.67254L41.58437 -22.7711L41.51122 -22.88184L41.45076 -22.9875L41.37355 -23.14549L41.3385 -23.23033L41.31868 -23.25928L41.30852 -23.25928L40.89755 -22.6314L40.88637 -22.6314L40.88637 -22.63902L40.85742 -22.67102L40.79392 -22.75535L40.71874 -22.86101L40.61155 -23.03881L40.52519 -23.21407L40.50029 -23.27198L40.46931 -23.35174L40.40682 -23.54173L40.37025 -23.68905L40.33824 -23.86888L40.3164 -24.04262L40.3164 -24.13508L40.29608 -24.13508L40.12234 -24.05075L40.1071 -24.05075L40.09542 -24.07462L40.06342 -24.19045L40.037 -24.30678L40.0116 -24.45461L39.98925 -24.66848L39.98925 -24.94483L40.01109 -25.16682L40.04818 -25.39085L40.07561 -25.51531L40.10507 -25.63012L40.16248 -25.81605L40.20718 -25.93441L40.2717 -26.09037L40.37431 -26.29611L40.40987 -26.35961L40.4749 -26.46781L40.59174 -26.64307L40.6913 -26.77363L40.82592 -26.93365L40.958 -27.04947L41.01744 -27.09011L41.0845 -27.1211L41.13276 -27.13228L41.1739 -27.12008L41.2181 -27.09011L41.25468 -27.04541L41.57218 -26.59684L41.61129 -26.57195L41.7073 -26.57805L42.77817 -26.71622L42.93819 -26.73299L42.94987 -26.71064L43.13478 -25.86583L43.22064 -25.48585L43.20794 -25.45842L43.10786 -25.35072L43.05706 -25.28316L43.00982 -25.20391L42.9773 -25.11907L42.96714 -25.0825L42.95546 -25.02458L42.94428 -24.924L42.96018 -24.78989L43.38777 -24.78989L43.38777 -24.96312L43.39742 -24.9875L43.41114 -25.03474L43.4345 -25.08808L43.47362 -25.14549L43.53814 -25.21254L43.58132 -25.24201L43.65955 -25.2796L43.7073 -25.29586L43.7388 -25.29636L43.75454 -25.30652L43.79366 -25.30652L43.81906 -25.29484L43.84141 -25.24506L43.84141 -25.22829L43.85208 -25.22169L43.85208 -25.20086L43.86173 -25.18257L43.89424 -25.06573L43.89424 -25.0383L43.90491 -25.0317L43.90491 -24.99106L43.8917 -24.96108L43.86478 -24.91892L43.84497 -24.87676L43.83633 -24.81834L43.83582 -24.80259L43.84548 -24.74976L43.8531 -24.72893L43.87596 -24.68118L43.92879 -24.62834L43.9867 -24.6004L44.02429 -24.58872L44.14774 -24.58872L44.14774 -24.56992L44.1137 -24.53792L44.05274 -24.4988L43.99737 -24.47442L43.94454 -24.45562L43.88662 -24.44496L43.77588 -24.44546L43.71746 -24.45258L43.70781 -24.46223L43.68596 -24.46274L43.63872 -24.47899L43.60164 -24.49626L43.5488 -24.52725L43.47667 -24.59685L43.43196 -24.66543L43.40961 -24.72334L43.38777 -24.78989L42.96018 -24.78989L42.98391 -24.69692L42.9961 -24.66543L43.03979 -24.57246L43.08348 -24.50744L43.15104 -24.42616L43.23232 -24.3586L43.29734 -24.3144L43.39031 -24.27122L43.42739 -24.2575L43.54271 -24.22956L43.72559 -24.22956L43.83379 -24.25242L43.89729 -24.27325L44.01616 -24.33167L44.10151 -24.39466L44.17314 -24.46629L44.23613 -24.55062L44.27931 -24.63546L44.30217 -24.69184L44.32655 -24.78684L44.32706 -24.88692L44.31284 -24.93975L44.29302 -24.98242L44.26153 -25.0317L44.15028 -25.14041L44.04563 -25.2354L43.96943 -25.32227L43.90542 -25.41625L43.84802 -25.52852L43.80788 -25.63672L43.48327 -26.71572L43.31309 -27.2669L43.29988 -27.28112L43.23232 -27.27045L42.00245 -27.11704L41.89628 -27.10078L41.83126 -27.10078L41.78909 -27.14548L41.68038 -27.29331L41.64634 -27.3431L41.62551 -27.39186L41.62551 -27.43708L41.63771 -27.47264L41.6692 -27.52039L41.74693 -27.59608L41.83887 -27.65806L41.89729 -27.686L42.10812 -27.75407L42.27017 -27.79166L42.32706 -27.80182L42.44594 -27.81858L42.54144 -27.82925L42.76801 -27.82925L42.94174 -27.80741L43.05249 -27.78506L43.18457 -27.75L43.24807 -27.72968L43.34713 -27.6926L43.45787 -27.6418L43.52239 -27.60878L43.57522 -27.57881L43.69663 -27.50007L43.76521 -27.44724L43.82312 -27.39948L43.94301 -27.28315L44.02988 -27.18257L44.08271 -27.11399L44.1706 -26.98191L44.2214 -26.89402L44.3042 -26.72892L44.36516 -26.57602L44.40732 -26.44902L44.44288 -26.31186L44.47438 -26.14828L44.48505 -26.07462L44.49572 -25.97962L44.50791 -25.81046L44.5013 -25.58389L44.48048 -25.3619L44.4373 -25.11399L44.42815 -25.02458L44.41545 -24.73858L44.42764 -24.52827L44.4373 -24.45969L44.46879 -24.31186L44.49673 -24.21636L44.40631 -24.15641L44.40224 -24.15641L44.33519 -24.11628L44.25594 -24.07818L44.19244 -24.05126L44.05528 -24.0096L43.96587 -23.98826L43.84446 -23.96693L43.74388 -23.95626L43.58589 -23.94508L43.51731 -23.94508L43.35881 -23.95626L43.21657 -23.97709L43.15815 -23.98877L43.06112 -24.01417L42.96816 -24.04414L42.86808 -24.08428L42.72889 -24.1554L42.6024 -24.24074L42.51452 -24.31846L42.4566 -24.38095L42.43019 -24.41244L42.3865 -24.47036L42.33875 -24.5496L42.291 -24.64663L42.26306 -24.72334L42.23664 -24.81834L42.21022 -24.9555L42.20464 -25.1719L42.21683 -25.24607L42.22851 -25.2989L42.2595 -25.3939L42.30217 -25.48128L42.34434 -25.54681L42.40479 -25.62047L42.42765 -25.6413L42.44949 -25.67635L42.38193 -25.75255L42.19244 -25.97912L42.0883 -26.08783L42.07916 -26.08783L41.99636 -25.96388L41.95165 -25.89022L41.88612 -25.75763L41.85869 -25.68905L41.82719 -25.59964L41.79519 -25.48331L41.77284 -25.36901L41.77284 -25.17546L41.79468 -25.06675L41.8211 -24.95702L41.83634 -24.90317L41.87291 -24.79192L41.90542 -24.71013L41.9928 -24.53284L42.09491 -24.38044L42.18381 -24.27478L42.30319 -24.15844L42.36161 -24.11171L42.36669 -24.10561L42.40377 -24.08021L42.40885 -24.07361L42.48861 -24.02027L42.59376 -23.95778L42.71518 -23.89835L42.79392 -23.86482L42.926 -23.81859L43.02252 -23.79268L43.14748 -23.76678L43.23232 -23.7556L43.35373 -23.74341L43.66463 -23.7495L43.84954 -23.77084L43.99229 -23.79218L44.11726 -23.79878L44.17669 -23.78506L44.22952 -23.75966L44.27474 -23.72258L44.3108 -23.66873L44.3362 -23.59406L44.3484 -23.54376L44.3484 -23.35377L44.33874 -23.30907L44.32655 -23.23033L44.28439 -23.0505L44.25188 -22.94534L44.1899 -22.76856L44.13097 -22.61819L44.1071 -22.56536L44.09338 -22.52726L44.07966 -22.50897L44.07103 -22.51405L44.12132 -23.07691L44.13148 -23.25014L44.13808 -23.26995L44.12589 -23.37257L44.10151 -23.48331L44.09033 -23.51176L44.05274 -23.55342L44.006 -23.56662L43.93742 -23.54427L43.89729 -23.52141L43.79874 -23.44775L43.65802 -23.29891L43.53814 -23.16124L43.23486 -22.80208L43.20286 -22.77872L43.19676 -22.79497L43.20235 -22.90826L43.21606 -23.00833L43.21606 -23.16683L43.20489 -23.21407L43.18609 -23.2542L43.15104 -23.28875L43.09516 -23.30754L43.02506 -23.31313L42.96816 -23.30043L42.926 -23.28672L42.8691 -23.26386L42.82592 -23.24404L42.68876 -23.18969L42.58411 -23.15921L42.55922 -23.15362L42.52264 -23.15362L42.52264 -23.1648L42.59478 -23.38324L42.60646 -23.43048L42.61764 -23.50058L42.60291 -23.56967L42.57954 -23.60777L42.53534 -23.63774L42.49318 -23.65197L42.37228 -23.65248L42.19803 -23.59558L42.15028 -23.57374L42.02734 -23.50262L41.75404 -23.32786L41.74134 -23.32786L41.74134 -23.35225L41.76318 -23.4188L41.88714 -23.62047L41.90949 -23.66873L41.9166 -23.71699L41.89933 -23.75306L41.86529 -23.77389L41.81246 -23.78659L41.71899 -23.7871L41.57014 -23.76068L41.48836 -23.74392L41.46702 -23.75052L41.46702 -23.76119L41.51579 -23.82113L41.67225 -23.99538L41.73067 -24.06853L41.75201 -24.11374L41.75201 -24.14981L41.72458 -24.17673L41.66768 -24.18384L41.60672 -24.17622L41.34307 -24.10815L41.24401 -24.09291L41.23486 -24.09901L41.23486 -24.11374L41.34713 -24.23261L41.40149 -24.30119L41.43552 -24.35098L41.47667 -24.43327L41.50004 -24.50084L41.50055 -24.57856L41.46854 -24.61818L41.43705 -24.63647L41.36948 -24.66086L41.29532 -24.67305L41.16374 -24.68422L41.06265 -24.68422L40.94276 -24.69997L40.93819 -24.70454L40.94429 -24.72029L40.99458 -24.75738L41.17949 -24.8544L41.24248 -24.89708L41.27449 -24.92654L41.28109 -24.92654L41.30852 -24.9687L41.30852 -25.01696L41.275 -25.08758L41.2435 -25.13533L41.20337 -25.17444L41.15815 -25.20035L41.07891 -25.22626L40.96816 -25.25318L40.94429 -25.25674L40.94276 -25.2669L41.04995 -25.31719L41.19524 -25.36545L41.22928 -25.38679L41.26585 -25.42946L41.28973 -25.47823L41.29024 -25.58897L41.26788 -25.63266L41.18305 -25.73731L41.07891 -25.85161L41.03878 -25.89987L41.01846 -25.93949L41.01846 -25.95067L41.03674 -25.95016L41.10177 -25.92628L41.2374 -25.8704L41.31665 -25.84399L41.43248 -25.84246L41.47515 -25.86634L41.49851 -25.90292L41.49851 -25.95168L41.46753 -26.0162L41.44772 -26.03754L41.36542 -26.14828L41.34053 -26.19806L41.34053 -26.23464L41.3578 -26.2448L41.39031 -26.23566L41.43197 -26.23566L41.4909 -26.22499L41.61891 -26.21584L41.70172 -26.22804L41.7388 -26.24632L41.76826 -26.2702L41.76166 -26.28696L41.45889 -26.34589L41.35374 -26.35758L41.28515 -26.35046L41.25671 -26.33573L41.23639 -26.30982L41.22267 -26.26055L41.23588 -26.19044L41.25772 -26.13253L41.31767 -26.01112L41.32478 -25.98216L41.31056 -25.98216L41.3009 -25.99131L41.17238 -26.05836L41.10532 -26.09037L41.06316 -26.10764L41.0276 -26.11932L40.95496 -26.11932L40.9072 -26.09697L40.87774 -26.05328L40.86402 -26.00248L40.87672 -25.94254L40.89857 -25.87904L40.92498 -25.82621L40.97274 -25.74747L41.08043 -25.58897L41.12971 -25.50668L41.12361 -25.49652L41.10075 -25.49652L40.9707 -25.45994L40.83354 -25.41778L40.79392 -25.4L40.73855 -25.36342L40.70908 -25.31973L40.69537 -25.26995L40.70908 -25.21966L40.73906 -25.17546L40.78376 -25.13888L40.87876 -25.09113L40.97883 -25.04643L41.08805 -24.99461L41.06875 -24.97277L41.00525 -24.9433L40.94734 -24.92044L40.89146 -24.89504L40.88637 -24.89504L40.75836 -24.83561L40.71874 -24.79954L40.69638 -24.7528L40.69638 -24.67L40.72636 -24.62326L40.76039 -24.59431L40.79392 -24.57907L40.86301 -24.55875L41.2374 -24.48255L41.27804 -24.47086L41.28414 -24.45562L41.24096 -24.41752L41.06773 -24.21686L41.00626 -24.12746L40.98137 -24.07158L40.98137 -24.02332L41.021 -23.98369L41.07891 -23.96744L41.20235 -23.95423L41.31665 -23.96134L41.40098 -23.9715L41.55694 -24.0096L41.55694 -23.99995L41.52798 -23.96388L41.41673 -23.84755L41.34459 -23.76322L41.31919 -23.71344L41.31919 -23.6601L41.35577 -23.61996L41.40555 -23.59406L41.50664 -23.59507L41.62247 -23.6347L41.67835 -23.64943L41.70578 -23.64943L41.69968 -23.63368L41.64584 -23.55443L41.59097 -23.44623L41.56303 -23.37816L41.55135 -23.34209L41.55135 -23.25928L41.57268 -23.21407L41.6052 -23.17445L41.64939 -23.14397L41.71696 -23.12212L41.75607 -23.12212L41.85513 -23.15413L41.93946 -23.1968L42.13453 -23.32431L42.21378 -23.36901L42.28236 -23.40457L42.33926 -23.42794L42.4058 -23.42794L42.4119 -23.41778L42.39158 -23.37257L42.33316 -23.22474L42.31284 -23.13076L42.32554 -23.07691L42.3423 -23.0444L42.38193 -23.00986L42.42765 -22.98954L42.48607 -22.9743L42.61866 -22.9743L42.68876 -22.98547L42.77817 -23.00681L42.82033 -23.02052L42.90517 -23.05405L42.96968 -23.08504L42.97629 -23.08504L42.97629 -23.06828L42.94886 -22.9875L42.91787 -22.84476L42.9072 -22.75535L42.9133 -22.69439L42.92854 -22.65781L42.96562 -22.62124L43.03623 -22.59228L43.17949 -22.59177L43.24299 -22.6065L43.32935 -22.64613L43.42333 -22.71064L43.49089 -22.7711L43.55693 -22.83968L43.62856 -22.93467L43.7073 -23.04643L43.88662 -23.31161L43.89424 -23.31212L43.89424 -23.26284L43.80484 -22.8346L43.76623 -22.62835L43.76724 -22.37232L43.77944 -22.3332L43.80534 -22.29866L43.83887 -22.28088L43.87596 -22.26716L43.97451 -22.26716L44.03953 -22.29815L44.17161 -22.43328L44.22038 -22.49119L44.28947 -22.58314L44.40123 -22.7523L44.40123 -22.7589L44.42104 -22.78684L44.48048 -22.89251L44.57903 -23.09317L44.61662 -23.1775L44.66082 -23.28824L44.6918 -23.37257L44.73244 -23.49906L44.75378 -23.5971L44.77156 -23.71547L44.76597 -23.97963L44.7553 -24.04821L44.73295 -24.16403L44.72686 -24.33777L44.74108 -24.39619L44.75937 -24.448L44.79391 -24.50592L44.85538 -24.5684L44.93463 -24.62022L44.99406 -24.64206L45.02658 -24.62987L45.06315 -24.60142L45.1612 -24.53589L45.16983 -24.54097L45.18101 -24.5811L45.23536 -24.87676L45.24552 -24.92146L45.24502 -24.96616L45.21606 -25.02458L45.13783 -25.14549L45.02607 -25.3304L44.99356 -25.39898L44.97222 -25.46248L44.95901 -25.52852L44.97273 -25.59405L44.99203 -25.63977L45.02302 -25.68397L45.05807 -25.72105L45.11446 -25.77033L45.1739 -25.80132L45.23282 -25.81351L45.35373 -25.78252L45.41418 -25.77693L45.41418 -25.81148L45.38319 -26.01112L45.37151 -26.1112L45.36033 -26.17622L45.32833 -26.21483L45.06315 -26.39263L44.9773 -26.45664L44.92548 -26.51404L44.89754 -26.57043L44.88637 -26.61259L44.88688 -26.66034L44.90161 -26.71013L44.9204 -26.74975L44.96968 -26.82392L45.03166 -26.89656L45.06976 -26.91638L45.13173 -26.93111L45.19015 -26.94228L45.27702 -26.95498L45.27702 -26.96667L45.26788 -26.97683L45.14189 -27.21559L45.09668 -27.29585L45.06315 -27.31109L45.01032 -27.32176L44.72838 -27.37002L44.60443 -27.39796L44.55668 -27.41828L44.52366 -27.44317L44.48759 -27.49905L44.47489 -27.54274L44.47489 -27.60472L44.48962 -27.6733L44.5074 -27.7246L44.53483 -27.77388L44.57496 -27.82874L44.62018 -27.85922L44.76496 -27.94609L44.76496 -27.95676L44.72584 -27.99588L44.50384 -28.16504L44.46828 -28.17723L44.05122 -28.07716L43.94149 -28.05988L43.87596 -28.07309L43.84141 -28.08833L43.80534 -28.11983L43.7835 -28.15539L43.76775 -28.20619L43.76775 -28.32354L43.79518 -28.41447L43.83379 -28.47746L43.91355 -28.57042L43.95266 -28.6258L43.95266 -28.62986L43.85513 -28.6512L43.71238 -28.67863L43.6499 -28.69438L43.60519 -28.69438L43.55795 -28.67406L43.33341 -28.5242L43.1739 -28.42564L43.09516 -28.38704L43.03623 -28.36722L42.97019 -28.36722L42.91228 -28.39567L42.88586 -28.42666L42.86199 -28.47543L42.83913 -28.55366L42.83913 -28.63392L42.85386 -28.68168L42.9392 -28.87268"></path><path d="M38.66134 -28.68422L38.65372 -28.6766L38.66134 -28.5374L38.64813 -28.43326L38.63746 -28.36976L38.62171 -28.30169L38.59225 -28.21178L38.56939 -28.15437L38.52824 -28.06293L38.50589 -28.00604L38.48201 -27.93187L38.46982 -27.86786L38.46982 -27.82112L38.48455 -27.74746L38.49522 -27.71394L38.53535 -27.63774L38.65168 -27.4833L38.69639 -27.4386L38.70553 -27.4386L38.71163 -27.69971L38.72839 -27.77642L38.75481 -27.86888L38.8239 -28.04261L38.84828 -28.09544L38.87978 -28.19044L38.89197 -28.24073L38.89146 -28.31744L38.87724 -28.37535L38.85895 -28.42818L38.8371 -28.47543L38.78072 -28.5623L38.72179 -28.63392L38.67505 -28.68422"></path><path d="M39.32936 -28.10357L39.31412 -28.03245L39.30345 -27.96286L39.30396 -27.91104L39.31767 -27.84754L39.34002 -27.79877L39.38625 -27.74188L39.54373 -27.62758L39.65041 -27.52039L39.70731 -27.44114L39.72814 -27.39644L39.74744 -27.39034L39.75354 -27.39644L39.76217 -27.44673L39.77436 -27.54172L39.76827 -27.62046L39.74795 -27.67482L39.71594 -27.72105L39.67022 -27.76474L39.55948 -27.84551L39.51732 -27.87853L39.43096 -27.9654L39.36695 -28.0609L39.36695 -28.06801L39.34002 -28.10357"></path><path d="M37.90492 -20.64207L37.89984 -20.62835L37.90238 -17.80539L38.62527 -17.80539L38.63035 -18.90826L39.13479 -18.9108L39.13479 -17.81556L39.14698 -17.80286L39.86072 -17.80286L39.87342 -17.81556L39.87342 -20.62886L39.86072 -20.64156L39.14648 -20.64156L39.13479 -20.62734L39.13174 -19.55749L38.64 -19.55444L38.62781 -19.56866L38.62527 -20.63902"></path><path d="M41.4909 -20.64156L40.5196 -20.64004L40.41444 -20.62683L40.3352 -20.60905L40.23461 -20.5613L40.15486 -20.48103L40.12895 -20.43328L40.10609 -20.37537L40.08424 -20.27275L40.08424 -20.00859L41.24553 -20.00859L41.24553 -19.25929L40.79138 -19.25929L40.79138 -20.00859L40.08424 -20.00859L40.08424 -17.89226L40.78884 -17.8948L40.79392 -18.62836L41.2374 -18.62836L41.24248 -17.8948L41.94403 -17.89226L41.95216 -17.90547L41.95267 -20.21281L41.942 -20.3012L41.92981 -20.35962L41.91457 -20.40686L41.8978 -20.44395L41.85869 -20.50237L41.79011 -20.56536L41.72305 -20.59838L41.67022 -20.61616L41.62247 -20.62632"></path><path d="M44.06087 -20.64156L44.04766 -20.63343L44.0502 -17.8948L44.75124 -17.89226L44.75988 -17.90547L44.75988 -18.87931L45.15561 -18.87931L45.15815 -17.8948L45.8597 -17.89226L45.86782 -17.90547L45.86782 -19.04542L45.84293 -19.16277L45.81601 -19.22119L45.7708 -19.28825L45.71746 -19.34159L45.65446 -19.38426L45.6123 -19.4056L45.5488 -19.42642L45.48479 -19.43862L45.41875 -19.43862L45.42586 -19.47265L45.4345 -19.48891L45.85868 -20.62581L45.85258 -20.64156L45.1617 -20.64156L45.15307 -20.62835L44.98695 -20.13762L44.98187 -20.12746L44.8442 -19.71039L44.83404 -19.68906L44.77664 -19.51532L44.75988 -19.51177L44.75988 -20.62886L44.74718 -20.64156"></path><path d="M42.65168 -20.64004L42.54093 -20.62784L42.4566 -20.60498L42.37228 -20.56536L42.29252 -20.48611L42.25645 -20.41194L42.23816 -20.34895L42.22699 -20.29256L42.22699 -18.23872L42.23918 -18.17471L42.2595 -18.11121L42.2915 -18.04619L42.3423 -17.98929L42.40885 -17.94611L42.47743 -17.9202L42.5196 -17.90903L42.58818 -17.8948L43.83887 -17.8948L43.83887 -18.5232L42.93666 -18.52828L42.93666 -20.00605L43.84192 -20.00859L43.83887 -20.63902"></path><path d="M37.90696 -17.6022L37.89984 -17.59508L37.89984 -15.07998L38.5384 -15.07998L38.5384 -16.18284L38.54754 -16.18284L39.07332 -15.29029L39.16222 -15.29334L39.18864 -15.34109L39.20845 -15.36903L39.20845 -15.37614L39.22826 -15.40408L39.27297 -15.48333L39.29278 -15.51127L39.29278 -15.51635L39.4721 -15.81454L39.4721 -15.81912L39.50411 -15.86534L39.50411 -15.87246L39.52392 -15.9004L39.56862 -15.97964L39.58844 -16.00758L39.58844 -16.0147L39.60825 -16.04264L39.68597 -16.17726L39.6941 -16.17726L39.69664 -15.08252L40.33774 -15.07947L40.3352 -17.59966L39.8277 -17.6022L39.81094 -17.58391L39.12819 -16.33321L39.11854 -16.32305L39.10431 -16.33829L39.00627 -16.51762L38.97629 -16.56842L38.97629 -16.57248L38.94632 -16.62328L38.86911 -16.76603L38.86149 -16.77619L38.41496 -17.58391L38.39921 -17.6022"></path><path d="M41.87901 -17.6022L41.00525 -17.60067L40.88892 -17.58696L40.84675 -17.5768L40.76801 -17.54733L40.70908 -17.50822L40.65422 -17.44827L40.61358 -17.36191L40.59123 -17.24152L40.59123 -17.00834L41.24502 -17.00834L41.25061 -17.02206L41.65447 -17.01901L41.65447 -16.32762L41.24807 -16.32762L41.24502 -17.00834L40.59123 -17.00834L40.59123 -15.07947L41.24248 -15.08252L41.24553 -15.75511L41.65447 -15.75257L41.65701 -15.07998L42.30624 -15.07998L42.30319 -17.28825L42.291 -17.32534L42.2788 -17.37258L42.24375 -17.44878L42.18736 -17.50872L42.12945 -17.54733L42.0817 -17.56613L42.03954 -17.57984L41.98162 -17.59102"></path><path d="M43.58436 -17.6022L43.57268 -17.58797L43.2567 -16.6497L43.22419 -16.5613L43.20844 -16.57451L43.2059 -17.59966L42.57243 -17.60118L42.55922 -17.5961L42.55922 -15.07998L43.20844 -15.07998L43.20844 -15.97456L43.22114 -15.98726L43.56506 -15.98726L43.57776 -15.97456L43.57776 -15.07998L44.22698 -15.07998L44.22597 -16.15389L44.21733 -16.20621L44.20717 -16.24533L44.16806 -16.32356L44.11268 -16.39112L44.04715 -16.43837L44.00804 -16.46021L43.96028 -16.47952L43.9044 -16.49374L43.82211 -16.49374L43.81601 -16.50034L44.21733 -17.57425L44.22292 -17.58543L44.21682 -17.6022"></path><path d="M44.44441 -17.6022L44.43272 -17.58797L44.43526 -15.08252L45.89983 -15.07998L45.89729 -15.65757L45.08957 -15.66265L45.08957 -16.05838L45.89983 -16.06143L45.89983 -16.63649L45.09363 -16.63649L45.08703 -16.65325L45.08703 -17.00885L45.09973 -17.02155L45.89983 -17.02155L45.89729 -17.59966"></path><path d="M43.67834 -14.71625L43.67276 -14.69186L43.67322 -13.94764L44.51705 -13.94764L44.52213 -13.96085L44.90618 -13.96085L44.94174 -13.94968L44.98695 -13.92732L45.03013 -13.8811L45.05553 -13.82369L45.05553 -12.33474L45.02353 -12.2682L44.97019 -12.21994L44.91228 -12.1986L44.51959 -12.20114L44.51705 -13.94764L43.67322 -13.94764L43.6753 -11.45184L45.42231 -11.44828L45.50664 -11.46048L45.55947 -11.47165L45.62246 -11.49248L45.69104 -11.52448L45.73879 -11.55649L45.80331 -11.6205L45.84649 -11.68755L45.87748 -11.76832L45.89983 -11.87094L45.89983 -14.28902L45.87748 -14.39113L45.86224 -14.43837L45.83074 -14.50441L45.79315 -14.5547L45.75454 -14.59534L45.68088 -14.64513L45.63313 -14.66697L45.57014 -14.68831L45.46955 -14.71218"></path><path d="M37.89984 -14.71574L37.89984 -11.4493L38.72839 -11.4493L38.72839 -12.8844L38.74262 -12.8844L38.74871 -12.86611L39.36847 -11.81608L39.41013 -11.74191L39.42638 -11.72362L39.52849 -11.72362L39.54475 -11.74191L39.61993 -11.86738L39.61993 -11.87196L39.65194 -11.91818L39.65194 -11.92326L39.70426 -12.00912L39.70426 -12.0147L39.73626 -12.06042L39.73626 -12.065L39.91559 -12.3637L39.91559 -12.36827L39.94708 -12.41399L39.94708 -12.4211L39.9669 -12.44904L40.21937 -12.87576L40.23207 -12.88034L40.23207 -11.4493L41.06316 -11.45184L41.06621 -14.69186L41.06062 -14.71574L40.38854 -14.7132L39.49192 -13.07185L39.48176 -13.05864L39.47414 -13.05864L39.30192 -13.37259L39.2943 -13.38326L39.18712 -13.5763L39.18712 -13.58087L38.89197 -14.10919L38.89197 -14.11376L38.862 -14.16405L38.78478 -14.3068L38.77716 -14.31747L38.56177 -14.70761L38.55161 -14.71523"></path><path d="M41.76522 -14.71371L41.69664 -14.71066L41.63314 -14.69898L41.59097 -14.6878L41.52747 -14.66697L41.48023 -14.64513L41.40606 -14.59585L41.35678 -14.54251L41.32021 -14.48562L41.28871 -14.41196L41.27144 -14.34338L41.2562 -14.22755L41.2562 -13.94764L42.09999 -13.94764L42.10507 -13.96136L42.63593 -13.95831L42.63593 -12.20114L42.10304 -12.20114L42.09999 -13.94764L41.2562 -13.94764L41.25569 -11.92682L41.26687 -11.8369L41.27855 -11.77899L41.29938 -11.71549L41.32122 -11.66825L41.36034 -11.61034L41.42232 -11.55141L41.48023 -11.51483L41.529 -11.49197L41.59605 -11.47114L41.71289 -11.4493L43.02709 -11.4493L43.1424 -11.47064L43.18457 -11.48232L43.22673 -11.49756L43.26382 -11.51432L43.339 -11.56462L43.39844 -11.63116L43.43958 -11.71041L43.45736 -11.76324L43.46702 -11.81049L43.48276 -11.9319L43.48276 -14.22755L43.46702 -14.34896L43.45787 -14.39113L43.43958 -14.44396L43.4091 -14.50695L43.35322 -14.58061L43.27956 -14.63649L43.21657 -14.66697L43.15307 -14.68831L43.05249 -14.71218"></path><path d="M6.97179 -26.21178L6.82802 -26.1879L6.74776 -26.1559L6.65683 -26.0985L6.59079 -26.02077L6.53846 -25.91257L6.50849 -25.79573L6.49935 -25.5717L6.53745 -24.81021L6.55523 -24.32659L6.57301 -24.12644L6.6172 -23.97455L6.6614 -23.87346L6.74471 -23.76576L6.8519 -23.67635L7.01649 -23.5966L7.13282 -23.56154L7.26744 -23.53513L7.41984 -23.51582L8.05586 -23.45131L8.07161 -23.43607L8.08075 -22.81885L8.065 -22.8097L6.62381 -22.924L6.63448 -22.62378L6.66496 -22.00554L6.67816 -21.99081L8.34237 -21.90038L8.65632 -21.89886L8.81278 -21.93798L8.92098 -21.99284L8.99515 -22.05939L9.05205 -22.1488L9.08354 -22.22957L9.10742 -22.36622L9.11098 -23.70785L9.09066 -23.82723L9.05306 -23.95016L8.99363 -24.0665L8.90219 -24.1686L8.78179 -24.24836L8.62939 -24.31084L8.46785 -24.34844L7.84961 -24.4287L7.72871 -24.44089L7.70382 -24.4607L7.69112 -25.09266L7.7155 -25.09266L8.99414 -24.90317L9.01903 -24.91282L9.01903 -25.87091L9.00531 -25.87955L7.33907 -26.17774L7.19582 -26.20518"></path><path d="M9.18057 -25.845L9.18006 -25.58084L9.17244 -25.03424L9.16679 -23.57628L10.1473 -23.57628L10.17473 -24.70861L10.18489 -24.72486L10.19759 -24.72436L10.77671 -24.638L10.79195 -24.62225L10.75131 -23.51481L10.74013 -23.50363L10.15441 -23.56866L10.1473 -23.57628L9.16679 -23.57628L9.16076 -22.1488L9.15568 -21.876L9.176 -21.85974L10.07211 -21.8125L10.10056 -21.81301L10.11224 -22.14016L10.1219 -22.606L10.13155 -22.69998L10.14374 -22.70709L10.986 -22.63698L11.21918 -22.63648L11.36091 -22.67305L11.4427 -22.72131L11.52753 -22.80818L11.58138 -22.92096L11.60932 -23.02713L11.62608 -23.20645L11.70838 -24.74772L11.70889 -24.91841L11.68044 -25.07234L11.62812 -25.19934L11.57478 -25.27655L11.49299 -25.35224L11.39799 -25.41219L11.26083 -25.46858L11.14704 -25.49499L9.19937 -25.845"></path><path d="M19.98014 -25.28976L19.82825 -25.06878L19.80539 -25.02712L19.60625 -24.73502L19.53514 -24.62225L19.39289 -24.41651L19.33448 -24.31796L19.4315 -24.21331L19.46452 -24.14879L19.86584 -24.7462L20.0091 -24.96566L20.14829 -25.16886L20.14829 -25.18867L20.08073 -25.23337"></path><path d="M12.18692 -25.27147L12.08379 -25.23794L11.99337 -25.18003L11.93038 -25.10586L11.87754 -24.99563L11.84148 -24.85491L11.81557 -24.4607L11.75574 -23.39187L12.5857 -23.39187L12.59484 -23.4574L12.65783 -24.34234L12.66748 -24.35809L12.72438 -24.34793L13.17244 -24.28138L13.16837 -24.12034L13.15059 -23.92324L13.12265 -23.55596L13.10538 -23.40203L13.10538 -23.32736L13.03782 -23.32786L12.82293 -23.35377L12.60805 -23.3746L12.5857 -23.39187L11.75574 -23.39187L11.69416 -22.29662L11.66012 -21.73935L11.67942 -21.72716L12.45412 -21.68702L12.46733 -21.70074L12.50391 -22.22957L12.53185 -22.58669L12.53998 -22.59482L13.02004 -22.55469L13.03578 -22.54504L13.02512 -22.3906L12.96365 -21.67382L12.97076 -21.66213L13.10081 -21.65197L13.68806 -21.622L13.69618 -21.63013L13.72362 -21.88921L13.91158 -23.79776L13.93037 -24.02179L13.9385 -24.07564L14.01927 -24.92654L14.02791 -24.96515L14.00556 -24.98242L13.27962 -25.11145L12.43736 -25.26538"></path><path d="M18.10054 -25.03068L17.94814 -24.89301L17.94814 -24.8793L18.12696 -24.69388L18.52625 -24.28595L18.53488 -24.28595L18.63852 -24.35301L18.71472 -24.38704L18.71472 -24.40584"></path><path d="M14.43583 -24.87726L14.33728 -24.84983L14.27429 -24.80767L14.21841 -24.75484L14.16964 -24.67762L14.13459 -24.57704L14.1097 -24.46985L13.86433 -22.02789L13.875 -21.88006L13.91005 -21.77948L13.95831 -21.70582L14.0147 -21.66315L14.08633 -21.62708L14.18488 -21.59965L14.29258 -21.58847L15.33042 -21.53462L15.34668 -21.55088L15.37258 -21.73681L15.43354 -22.21128L15.42491 -22.225L15.34922 -22.225L15.04492 -22.25141L14.68678 -22.27884L14.59179 -22.29002L14.60246 -22.3906L14.62786 -22.57907L14.6558 -22.85695L14.6812 -23.04491L14.69186 -23.17038L14.79194 -24.02179L14.80464 -24.03602L15.65148 -23.91308L15.6657 -23.95016L15.67789 -24.05735L15.75765 -24.65679L15.74393 -24.66949L14.63294 -24.87066"></path><path d="M15.91106 -24.64155L15.89379 -24.63088L15.6845 -23.06269L15.66773 -22.97328L15.60474 -22.47138L15.54327 -22.03246L15.47977 -21.55748L15.47977 -21.52853L16.55064 -21.47163L16.79244 -21.4569L16.80667 -21.4696L16.90776 -22.0919L16.88642 -22.10511L16.35353 -22.14626L16.20113 -22.15591L16.18183 -22.17064L16.23161 -22.50744L16.25193 -22.62936L16.27327 -22.63749L16.97177 -22.56637L16.99158 -22.59279L17.00428 -22.68677L17.09166 -23.22423L17.07743 -23.23846L16.37131 -23.32888L16.35556 -23.34412L16.41195 -23.75306L16.4211 -23.79319L16.46072 -23.79319L17.15109 -23.68854L17.1709 -23.70785L17.27962 -24.37993L17.25828 -24.40025L16.98955 -24.44597L16.07566 -24.60955"></path><path d="M18.95449 -24.02636L18.86254 -24.02433L18.79955 -24.00452L18.71827 -23.92324L18.69643 -23.84958L18.69643 -23.76932L18.7457 -23.67229L18.83054 -23.61539L18.9042 -23.6032L18.98192 -23.61488L19.05711 -23.66568L19.10791 -23.74087L19.11959 -23.81859L19.10689 -23.89225L19.0505 -23.97607"></path><path d="M20.80463 -23.93797L19.62404 -23.93188L19.5138 -23.9268L19.50161 -23.81554L19.47621 -23.72715L19.47621 -23.71598L20.78431 -23.72614L20.79193 -23.74646"></path><path d="M18.31339 -23.91918L17.45996 -23.9141L17.45234 -23.89378L17.43964 -23.70277L17.67078 -23.70277L17.93951 -23.70734L18.29663 -23.70785L18.29968 -23.86939"></path><path d="M19.44166 -23.64333L19.41271 -23.58644L19.31365 -23.4696L19.31924 -23.45385L20.1422 -22.61057L20.30475 -22.75332L19.60625 -23.47061"></path><path d="M18.65528 -23.30196L18.63598 -23.27808L18.28444 -22.74925L18.09191 -22.46579L18.08632 -22.45055L18.24837 -22.35962L18.27428 -22.35962L18.45462 -22.63292L18.62937 -22.89048L18.63648 -22.9108L18.80971 -23.16124L18.87677 -23.2664L18.87118 -23.27046L18.701 -23.29332"></path><path d="M18.87118 -22.55672L18.80412 -22.53183L18.73961 -22.48255L18.69693 -22.3906L18.69643 -22.31237L18.71827 -22.23871L18.79955 -22.15692L18.88439 -22.13305L18.9743 -22.14168L19.05914 -22.19401L19.11299 -22.28189L19.11248 -22.40889L19.08251 -22.46528L19.02612 -22.52116L18.97125 -22.54961"></path><path d="M18.9362 -21.4635L18.87118 -21.46249L18.80412 -21.43861L18.74266 -21.39188L18.69439 -21.29282L18.70354 -21.17445L18.75536 -21.10079L18.83156 -21.04745L18.94586 -21.04034L19.04339 -21.08504L19.09267 -21.14956L19.11705 -21.21712L19.11756 -21.28113L19.09013 -21.3619L19.01443 -21.43607"></path><path d="M6.74217 -21.22678L6.73303 -21.21255L7.1567 -20.7269L7.14756 -20.70252L6.73056 -18.74723L7.36854 -18.74723L7.38835 -18.80666L7.72769 -20.17775L7.77443 -20.37486L7.79221 -20.41702L7.93038 -20.36876L8.05586 -20.30323L8.19251 -20.17268L8.26668 -20.02536L8.2936 -19.91766L8.31291 -19.74443L8.28446 -19.56816L8.25601 -19.47113L8.18641 -19.32025L8.10717 -19.21002L7.96645 -19.07336L7.80999 -18.97176L7.43 -18.77415L7.37819 -18.73757L7.36854 -18.74723L6.73056 -18.74723L6.64667 -18.34489L6.62635 -18.32051L6.58622 -18.31136L6.38048 -18.23618L6.33526 -18.22145L6.12952 -18.14677L6.03097 -18.11375L5.82726 -18.0406L5.7978 -18.02333L5.87146 -18.02282L6.64006 -18.07718L7.09726 -18.11223L7.27608 -18.13966L7.49198 -18.18335L7.7094 -18.24583L7.88568 -18.31035L8.15492 -18.4409L8.33069 -18.55165L8.46785 -18.6563L8.60094 -18.77974L8.73455 -18.93214L8.85647 -19.11654L8.93724 -19.28164L8.98144 -19.38883L9.03732 -19.56816L9.06271 -19.7297L9.08151 -19.9268L9.09116 -20.10613L9.07287 -20.36013L9.0363 -20.55012L8.98144 -20.70607L8.92759 -20.81377L8.84986 -20.9235L8.72337 -21.04034L8.53998 -21.13229L8.36828 -21.17547L8.09193 -21.19376L7.50925 -21.20392"></path><path d="M13.73784 -21.2217L13.6022 -21.21916L13.41475 -21.19376L13.23492 -21.14854L13.04594 -21.06879L12.87627 -20.96566L12.72438 -20.84984L12.5735 -20.70607L12.44193 -20.5486L12.33728 -20.39264L12.26464 -20.25802L12.20165 -20.10613L12.15593 -19.96236L12.11858 -19.80133L12.95755 -19.80133L13.64488 -20.86305L13.65656 -20.86305L13.75613 -20.75992L13.86027 -20.62784L13.96847 -20.45614L14.04416 -20.29409L14.09192 -20.1422L14.12646 -19.93849L14.12646 -19.79625L14.09852 -19.65807L14.03451 -19.4696L13.94104 -19.26336L13.84757 -19.09318L13.66215 -18.81581L13.45031 -18.55774L13.41983 -18.53844L13.38529 -18.58264L12.98143 -19.0373L12.96212 -19.5326L12.95755 -19.80133L12.11858 -19.80133L12.09344 -19.63115L12.08481 -19.38731L12.11224 -19.17395L12.16253 -18.97684L12.22756 -18.82343L12.3063 -18.68525L12.41094 -18.53946L12.57249 -18.37639L12.7386 -18.2631L12.88999 -18.193L12.99819 -18.15642L13.18107 -18.11832L13.49502 -18.11832L13.7099 -18.16455L13.88008 -18.22094L14.08633 -18.32813L14.25498 -18.44802L14.44193 -18.62683L14.58417 -18.79701L14.69288 -18.95906L14.80667 -19.19173L14.8717 -19.38883L14.90522 -19.55038L14.92605 -19.70278L14.92758 -20.01621L14.90522 -20.16861L14.86204 -20.33879L14.8087 -20.47646L14.75486 -20.58314L14.62786 -20.77262L14.46276 -20.94128L14.31086 -21.05304L14.15796 -21.12873L14.05026 -21.16683L13.95171 -21.19376"></path><path d="M14.6624 -21.12721L14.64208 -21.11502L15.28724 -20.85238L15.30197 -20.83866L15.32249 -20.60702L16.06245 -20.60702L16.08429 -20.62225L16.40687 -20.61413L16.49679 -20.59178L16.61312 -20.55622L16.7386 -20.49678L16.83562 -20.40178L16.88185 -20.30323L16.8788 -20.10206L16.8407 -20.01621L16.78381 -19.95728L16.7071 -19.91258L16.58772 -19.86737L16.46986 -19.83993L16.31746 -19.81555L16.13662 -19.80336L16.06245 -20.60702L15.32249 -20.60702L15.45793 -18.9423L15.42135 -18.90318L15.00022 -18.56384L14.94231 -18.52117L14.94231 -18.5044L16.55927 -18.64207L16.72843 -18.65426L16.73504 -18.67509L16.69389 -18.6883L16.50796 -18.77517L16.50288 -18.77517L16.21891 -18.90979L16.19199 -18.92503L16.17929 -19.04847L16.15186 -19.39798L16.1422 -19.44268L16.57756 -19.44471L16.78228 -19.47468L16.90014 -19.50161L17.04339 -19.54834L17.15109 -19.60219L17.25015 -19.66925L17.3614 -19.78863L17.41678 -19.89836L17.45996 -20.06803L17.45996 -20.16861L17.42541 -20.37791L17.40509 -20.45512L17.37055 -20.55012L17.33194 -20.62581L17.24304 -20.75535L17.12061 -20.87067L17.01647 -20.94128L16.93875 -20.9809L16.7833 -21.03983L16.62226 -21.07692L16.45208 -21.09927L16.13814 -21.09825L14.74927 -21.12314"></path><path d="M9.01903 -21.1206L9.01903 -21.10638L9.6906 -20.55774L9.68197 -20.50897L9.60176 -19.71243L10.46226 -19.71243L10.50696 -20.14169L10.54455 -20.53589L10.56081 -20.57857L10.95908 -20.56942L11.1379 -20.52269L11.27201 -20.45919L11.34973 -20.39569L11.40206 -20.30374L11.41374 -20.20671L11.37361 -20.02536L11.33144 -19.95068L11.2461 -19.87499L11.10234 -19.80641L10.94282 -19.76069L10.72946 -19.72411L10.47953 -19.70176L10.46226 -19.71243L9.60176 -19.71243L9.51128 -18.80666L9.50264 -18.76602L8.85342 -18.33473L8.8204 -18.30781L8.82751 -18.3007L10.24737 -18.447L10.26464 -18.46834L10.4018 -19.3233L10.57402 -19.3106L10.59383 -19.29485L10.60602 -19.03984L10.63142 -18.62734L10.64361 -18.37943L10.67003 -18.36928L11.97914 -18.39468L11.98422 -18.41246L11.4808 -18.69897L11.45794 -18.72132L11.24813 -19.35073L11.27252 -19.36648L11.38936 -19.40509L11.56868 -19.49043L11.70381 -19.57882L11.82979 -19.68754L11.91971 -19.80133L11.98676 -19.91664L12.03807 -20.07006L12.05941 -20.27123L12.03756 -20.45309L12.00099 -20.57196L11.95578 -20.66137L11.88516 -20.76551L11.78915 -20.86L11.65809 -20.94788L11.48791 -21.01697L11.31925 -21.06015L11.11148 -21.08911L10.29614 -21.09368"></path><path d="M18.94281 -20.61159L17.46707 -18.64868L17.47418 -18.64156L20.24634 -18.57705L20.33625 -18.58264L18.95195 -20.61159"></path><circle cx="49.35479" cy="-68.14624" r="0.8008"></circle><circle cx="44.27479" cy="-68.14624" r="0.8008"></circle><rect x="48.5193915" y="-45.932598" width="1.703197" height="2.2031959999999997" rx="0.8515985" ry="0.8515985"></rect><rect x="46.019271499999995" y="-45.932598" width="1.703197" height="2.2031959999999997" rx="0.8515985" ry="0.8515985"></rect><rect x="43.5194015" y="-45.932598" width="1.703197" height="2.2031959999999997" rx="0.8515985" ry="0.8515985"></rect><circle cx="43.00474" cy="-55.21705" r="0.9906"></circle><circle cx="50.62474" cy="-55.21705" r="0.9906"></circle><rect x="49.622202" y="-52.882799999999996" width="2.1015960000000002" height="1.6256000000000002" rx="0.8128000000000001" ry="0.8128000000000001"></rect><rect x="49.622202" y="-50.3428" width="2.1015960000000002" height="1.6256000000000002" rx="0.8128000000000001" ry="0.8128000000000001"></rect><rect x="42.002202" y="-52.882799999999996" width="2.1015960000000002" height="1.6256000000000002" rx="0.8128000000000001" ry="0.8128000000000001"></rect><rect x="42.002202" y="-50.3428" width="2.1015960000000002" height="1.6256000000000002" rx="0.8128000000000001" ry="0.8128000000000001"></rect><circle cx="50.62481" cy="-64.48259" r="0.9906"></circle><circle cx="43.00481" cy="-64.48259" r="0.9906"></circle><circle cx="50.54602" cy="-61.4681" r="0.9906"></circle><circle cx="42.92602" cy="-61.4681" r="0.9906"></circle><polygon points="23.427500000000002,-43.0835 23.368000000000002,-43.143 23.368000000000002,-46.519000000000005 23.427500000000002,-46.578500000000005 25.3405,-46.578500000000005 25.4,-46.519000000000005 25.4,-43.143 25.3405,-43.0835 23.427500000000002,-43.0835"></polygon><polygon points="25.9675,-43.0835 25.908,-43.143 25.908,-46.519000000000005 25.9675,-46.578500000000005 27.880499999999998,-46.578500000000005 27.939999999999998,-46.519000000000005 27.939999999999998,-43.143 27.880499999999998,-43.0835 25.9675,-43.0835"></polygon><polygon points="8.1875,-65.9435 8.128,-66.003 8.128,-69.379 8.1875,-69.4385 10.1005,-69.4385 10.16,-69.379 10.16,-66.003 10.1005,-65.9435 8.1875,-65.9435"></polygon><polygon points="10.7275,-65.9435 10.668,-66.003 10.668,-69.379 10.7275,-69.4385 12.6405,-69.4385 12.7,-69.379 12.7,-66.003 12.6405,-65.9435 10.7275,-65.9435"></polygon><polygon points="13.2675,-65.9435 13.208,-66.003 13.208,-69.379 13.2675,-69.4385 15.1805,-69.4385 15.24,-69.379 15.24,-66.003 15.1805,-65.9435 13.2675,-65.9435"></polygon><polygon points="15.8075,-65.9435 15.748,-66.003 15.748,-69.379 15.8075,-69.4385 17.720499999999998,-69.4385 17.78,-69.379 17.78,-66.003 17.720499999999998,-65.9435 15.8075,-65.9435"></polygon><polygon points="18.3475,-65.9435 18.287999999999997,-66.003 18.287999999999997,-69.379 18.3475,-69.4385 20.260499999999997,-69.4385 20.32,-69.379 20.32,-66.003 20.260499999999997,-65.9435 18.3475,-65.9435"></polygon><polygon points="20.887500000000003,-65.9435 20.828000000000003,-66.003 20.828000000000003,-69.379 20.887500000000003,-69.4385 22.8005,-69.4385 22.86,-69.379 22.86,-66.003 22.8005,-65.9435 20.887500000000003,-65.9435"></polygon><polygon points="23.427500000000002,-65.9435 23.368000000000002,-66.003 23.368000000000002,-69.379 23.427500000000002,-69.4385 25.3405,-69.4385 25.4,-69.379 25.4,-66.003 25.3405,-65.9435 23.427500000000002,-65.9435"></polygon><polygon points="25.9675,-65.9435 25.908,-66.003 25.908,-69.379 25.9675,-69.4385 27.880499999999998,-69.4385 27.939999999999998,-69.379 27.939999999999998,-66.003 27.880499999999998,-65.9435 25.9675,-65.9435"></polygon><polygon points="8.1875,-43.0835 8.128,-43.143 8.128,-46.519000000000005 8.1875,-46.578500000000005 10.1005,-46.578500000000005 10.16,-46.519000000000005 10.16,-43.143 10.1005,-43.0835 8.1875,-43.0835"></polygon><polygon points="10.7275,-43.0835 10.668,-43.143 10.668,-46.519000000000005 10.7275,-46.578500000000005 12.6405,-46.578500000000005 12.7,-46.519000000000005 12.7,-43.143 12.6405,-43.0835 10.7275,-43.0835"></polygon><polygon points="13.2675,-43.0835 13.208,-43.143 13.208,-46.519000000000005 13.2675,-46.578500000000005 15.1805,-46.578500000000005 15.24,-46.519000000000005 15.24,-43.143 15.1805,-43.0835 13.2675,-43.0835"></polygon><polygon points="15.8075,-43.0835 15.748,-43.143 15.748,-46.519000000000005 15.8075,-46.578500000000005 17.720499999999998,-46.578500000000005 17.78,-46.519000000000005 17.78,-43.143 17.720499999999998,-43.0835 15.8075,-43.0835"></polygon><polygon points="18.3475,-43.0835 18.287999999999997,-43.143 18.287999999999997,-46.519000000000005 18.3475,-46.578500000000005 20.260499999999997,-46.578500000000005 20.32,-46.519000000000005 20.32,-43.143 20.260499999999997,-43.0835 18.3475,-43.0835"></polygon><polygon points="20.887500000000003,-43.0835 20.828000000000003,-43.143 20.828000000000003,-46.519000000000005 20.887500000000003,-46.578500000000005 22.8005,-46.578500000000005 22.86,-46.519000000000005 22.86,-43.143 22.8005,-43.0835 20.887500000000003,-43.0835"></polygon><polygon points="2.0918900000000002,-9.62618 2.06219,-9.65598 2.06219,-14.698080000000001 2.0918900000000002,-14.727780000000001 5.13399,-14.727780000000001 5.16379,-14.698080000000001 5.16379,-9.65598 5.13399,-9.62618 2.0918900000000002,-9.62618"></polygon><rect x="2.0621929999999997" y="-25.649774999999998" width="3.101594" height="5.10159" rx="1.550797" ry="1.550797"></rect><rect x="2.0621929999999997" y="-36.698775" width="3.101594" height="5.10159" rx="1.550797" ry="1.550797"></rect><rect x="50.195192999999996" y="-36.698775" width="3.101594" height="5.10159" rx="1.550797" ry="1.550797"></rect><rect x="50.195192999999996" y="-25.649774999999998" width="3.101594" height="5.10159" rx="1.550797" ry="1.550797"></rect><rect x="50.195192999999996" y="-14.727775" width="3.101594" height="5.10159" rx="1.550797" ry="1.550797"></rect><circle cx="50.673" cy="-58.293" r="0.9906"></circle><circle cx="43.053" cy="-58.293" r="0.9906"></circle><rect x="21.8748838" y="-11.5501096" width="2.8500324000000004" height="3.1000192" rx="1.4250162000000002" ry="1.4250162000000002"></rect><rect x="30.6749638" y="-11.5501096" width="2.8500324000000004" height="3.1000192" rx="1.4250162000000002" ry="1.4250162000000002"></rect><circle cx="25.20007" cy="-2.99986" r="0.9"></circle><circle cx="27.69994" cy="-2.99986" r="0.9"></circle><circle cx="30.20006" cy="-2.99986" r="0.9"></circle><circle cx="31.49701" cy="-79.75625" r="0.8758"></circle><circle cx="28.95701" cy="-79.75625" r="0.8758"></circle><circle cx="26.41701" cy="-79.75625" r="0.8758"></circle><circle cx="23.87701" cy="-79.75371" r="0.8758"></circle><circle cx="33.93592" cy="-28.615" r="1.3008"></circle><circle cx="21.43607" cy="-28.615" r="1.3008"></circle><circle cx="33.93592" cy="-33.61499" r="1.3008"></circle><circle cx="21.43607" cy="-33.61499" r="1.3008"></circle><circle cx="4.064" cy="-41.783" r="0.9906"></circle><circle cx="11.684" cy="-41.783" r="0.9906"></circle><rect x="21.400422499999998" y="-5.550784999999999" width="2.601595" height="5.10159" rx="1.3007975" ry="1.3007975"></rect><rect x="26.3991425" y="-5.550784999999999" width="2.601595" height="5.10159" rx="1.3007975" ry="1.3007975"></rect><rect x="31.4004025" y="-5.550784999999999" width="2.601595" height="5.10159" rx="1.3007975" ry="1.3007975"></rect><polygon points="7.14553,-74.51088999999999 7.115830000000001,-74.54069 7.115830000000001,-75.21779 7.14553,-75.24749 8.45763,-75.24749 8.48743,-75.21779 8.48743,-74.54069 8.45763,-74.51088999999999 7.14553,-74.51088999999999"></polygon><polygon points="7.14553,-75.32369999999999 7.115830000000001,-75.3535 7.115830000000001,-76.03059999999999 7.14553,-76.0603 8.45763,-76.0603 8.48743,-76.03059999999999 8.48743,-75.3535 8.45763,-75.32369999999999 7.14553,-75.32369999999999"></polygon><polygon points="7.14553,-76.1365 7.115830000000001,-76.1663 7.115830000000001,-76.8434 7.14553,-76.87310000000001 8.45763,-76.87310000000001 8.48743,-76.8434 8.48743,-76.1663 8.45763,-76.1365 7.14553,-76.1365"></polygon><polygon points="10.32053,-74.51088999999999 10.29083,-74.54069 10.29083,-75.21779 10.32053,-75.24749 11.63263,-75.24749 11.66243,-75.21779 11.66243,-74.54069 11.63263,-74.51088999999999 10.32053,-74.51088999999999"></polygon><polygon points="10.32053,-75.32369999999999 10.29083,-75.3535 10.29083,-76.03059999999999 10.32053,-76.0603 11.63263,-76.0603 11.66243,-76.03059999999999 11.66243,-75.3535 11.63263,-75.32369999999999 10.32053,-75.32369999999999"></polygon><polygon points="10.32053,-76.1365 10.29083,-76.1663 10.29083,-76.8434 10.32053,-76.87310000000001 11.63263,-76.87310000000001 11.66243,-76.8434 11.66243,-76.1663 11.63263,-76.1365 10.32053,-76.1365"></polygon><rect x="25.4352044" y="-27.974798" width="4.5015912" height="2.101596" rx="1.050798" ry="1.050798"></rect><rect x="25.4352044" y="-36.610798" width="4.5015912" height="2.101596" rx="1.050798" ry="1.050798"></rect></svg>