<svg xmlns="http://www.w3.org/2000/svg" viewBox="0.10652 -82.46386 54.999939999999995 82.49987"><path d="M0.36576 -80.09534L0.37033 -80.58353L0.4003 -80.80756L0.4572 -81.0199L0.53949 -81.22107L0.64465 -81.40801L0.77216 -81.58073L0.91897 -81.73567L1.08407 -81.87181L1.26492 -81.98713L1.4605 -82.08009L1.66776 -82.14817L1.88569 -82.18982L2.11836 -82.20456L53.22773 -82.19948L53.45023 -82.17001L53.66258 -82.11312L53.86324 -82.03082L54.05069 -81.92566L54.2229 -81.79866L54.37835 -81.65134L54.51449 -81.48624L54.62981 -81.3054L54.72277 -81.11032L54.79084 -80.90255L54.8325 -80.68462L54.84723 -80.45196L54.84723 -2.33222L54.84266 -1.84404L54.81269 -1.62001L54.75579 -1.40766L54.6735 -1.207L54.56834 -1.01955L54.44083 -0.84734L54.29402 -0.6924L54.12892 -0.55575L53.94807 -0.44043L53.75249 -0.34798L53.54523 -0.2799L53.3273 -0.23774L53.09463 -0.22301L33.44672 -0.22301L33.40354 -0.23266L33.36696 -0.26314L33.35985 -0.25298L33.32683 -0.23063L33.28822 -0.22301L32.11423 -0.22301L32.07562 -0.23063L32.03397 -0.25958L31.99892 -0.23266L31.95574 -0.22301L28.44546 -0.22301L28.40228 -0.23266L28.36722 -0.25958L28.3469 -0.29921L28.34589 -0.3434L28.36316 -0.38404L28.39618 -0.41351L28.50286 -0.47244L28.64053 -0.57048L28.76702 -0.68326L28.8798 -0.80924L28.97733 -0.94742L29.05963 -1.09524L29.12414 -1.25171L29.17088 -1.41427L29.19933 -1.58089L29.20898 -1.7526L29.20898 -2.18135L29.21711 -2.22046L29.23895 -2.25348L29.27248 -2.27584L29.3116 -2.28295L29.35071 -2.27482L29.38373 -2.25196L29.45434 -2.17881L29.5656 -2.09042L29.68701 -2.01676L29.71139 -2.00609L29.71139 -2.3125941161078463L29.599019235991435 -2.398819235991435L29.512517878392178 -2.51155L29.31058 -2.51155L29.27197 -2.51917L29.23895 -2.54101L29.2166 -2.57403L29.20898 -2.61315L29.20898 -3.38683L29.2166 -3.42544L29.23895 -3.45846L29.27197 -3.48081L29.31058 -3.48843L29.51271738340905 -3.48843L29.599019235991435 -3.600900764008565L29.71139 -3.6871258838921532L29.71139 -3.99389L29.68701 -3.98322L29.5656 -3.90956L29.45434 -3.82066L29.38373 -3.74751L29.35071 -3.72516L29.3116 -3.71652L29.27248 -3.72414L29.23895 -3.74599L29.21711 -3.77901L29.20898 -3.81812L29.20898 -4.24738L29.19933 -4.41909L29.17088 -4.58571L29.12414 -4.74827L29.05963 -4.90474L28.97733 -5.05256L28.8798 -5.19074L28.76702 -5.31672L28.64053 -5.4295L28.50286 -5.52754L28.35452 -5.60933L28.19806 -5.67436L28.0355 -5.72109L27.86888 -5.74954L27.69971 -5.75868L27.53106 -5.74954L27.36392 -5.72109L27.20136 -5.67436L27.04541 -5.60933L26.89707 -5.52754L26.7589 -5.4295L26.63291 -5.31672L26.52014 -5.19074L26.42209 -5.05256L26.40584 -5.02361L26.38247 -4.99465L26.34945 -4.97636L26.31236 -4.97128L26.2763 -4.97941L26.24531 -5.00075L25.62148 -5.62457L25.59913 -5.65759L25.59151 -5.69671L25.59151 -25.8196L25.60167 -25.8638L25.62961 -25.89885L25.67025 -25.91866L25.71496 -25.91917L25.7561 -25.89987L25.77084 -25.88818L25.90088 -25.80944L26.03957 -25.74696L26.18486 -25.70175L26.33421 -25.67432L26.48915 -25.66466L28.88284 -25.66466L29.03778 -25.67432L29.18714 -25.70175L29.33242 -25.74696L29.47111 -25.80944L29.60116 -25.88818L29.72104 -25.98166L29.82823 -26.08935L29.92221 -26.20873L30.00095 -26.33878L30.06293 -26.47746L30.10814 -26.62275L30.13557 -26.7721L30.14472 -26.924L30.13557 -27.07589L30.10814 -27.22524L30.06293 -27.37053L30.00095 -27.50921L29.92221 -27.63926L29.82823 -27.75864L29.72104 -27.86634L29.60116 -27.95981L29.47111 -28.03855L29.33242 -28.10103L29.18714 -28.14624L29.03778 -28.17368L28.88284 -28.18282L26.48915 -28.18282L26.33421 -28.17368L26.18486 -28.14624L26.03957 -28.10103L25.90088 -28.03855L25.77084 -27.95981L25.7561 -27.94812L25.71496 -27.92882L25.67025 -27.92933L25.62961 -27.94914L25.60167 -27.98419L25.59151 -28.02839L25.59151 -34.4556L25.60167 -34.4998L25.62961 -34.53485L25.67025 -34.55466L25.71496 -34.55517L25.7561 -34.53587L25.77084 -34.52418L25.90088 -34.44544L26.03957 -34.38296L26.18486 -34.33775L26.33421 -34.31032L26.48915 -34.30066L27.66212 -34.30066L27.70124 -34.29304L27.73375 -34.2712L32.57905 -29.4264L32.60242 -29.38983L32.60852 -29.34665L32.59582 -29.30499L32.57651 -29.26994L32.51149 -29.11348L32.46475 -28.95092L32.4363 -28.78429L32.42716 -28.61513L32.4363 -28.44596L32.46475 -28.27934L32.51149 -28.11678L32.57651 -27.96032L32.6583 -27.81249L32.75634 -27.67431L32.86912 -27.54833L32.9951 -27.43555L33.13328 -27.33751L33.28111 -27.25572L33.43757 -27.1907L33.60013 -27.14396L33.76676 -27.11551L33.93592 -27.10637L34.10508 -27.11551L34.27171 -27.14396L34.43427 -27.1907L34.59073 -27.25572L34.73856 -27.33751L34.87674 -27.43555L35.00272 -27.54833L35.1155 -27.67431L35.21354 -27.81249L35.29533 -27.96032L35.36035 -28.11678L35.40709 -28.27934L35.43554 -28.44596L35.44468 -28.61513L35.43554 -28.78429L35.40709 -28.95092L35.36035 -29.11348L35.29533 -29.26994L35.21354 -29.41777L35.1155 -29.55594L35.00272 -29.68193L34.87674 -29.7947L34.73856 -29.89275L34.59073 -29.97454L34.43427 -30.03956L34.27171 -30.0863L34.10508 -30.11474L33.93592 -30.12389L33.76676 -30.11474L33.60013 -30.0863L33.43757 -30.03956L33.28111 -29.97454L33.24606 -29.95523L33.2044 -29.94253L33.16122 -29.94863L33.12515 -29.972L28.96057 -34.13658L28.93923 -34.16858L28.9311 -34.20618L28.93771 -34.24428L28.95803 -34.27729L28.98902 -34.30015L29.18714 -34.33775L29.33242 -34.38296L29.47111 -34.44544L29.60116 -34.52418L29.72104 -34.61765L29.82823 -34.72535L29.92221 -34.84473L30.00095 -34.97478L30.06293 -35.11346L30.10814 -35.25875L30.13557 -35.4081L30.14472 -35.56L30.13557 -35.71189L30.10814 -35.86124L30.06293 -36.00653L30.00095 -36.14521L29.92221 -36.27526L29.82823 -36.39464L29.72104 -36.50234L29.60116 -36.59581L29.47111 -36.67455L29.33242 -36.73703L29.18714 -36.78224L29.03778 -36.80968L28.88284 -36.81882L26.48915 -36.81882L26.33421 -36.80968L26.18486 -36.78224L26.03957 -36.73703L25.90088 -36.67455L25.77084 -36.59581L25.7561 -36.58412L25.71496 -36.56482L25.67025 -36.56533L25.62961 -36.58514L25.60167 -36.62019L25.59151 -36.66439L25.59151 -42.07967L25.58389 -42.15993L25.56154 -42.23207L25.52598 -42.29862L25.47518 -42.3611L25.08351 -42.75277L25.06167 -42.78528L25.05354 -42.8244L25.06167 -42.86351L25.08351 -42.89602L25.11653 -42.91838L25.15514 -42.926L25.29281 -42.926L25.3558 -42.93311L25.41066 -42.95241L25.45943 -42.98289L25.50058 -43.02404L25.53106 -43.07281L25.55036 -43.12767L25.5529 -43.15155L25.56611 -43.19117L25.59456 -43.22216L25.63317 -43.23943L25.67482 -43.23943L25.71343 -43.22216L25.74188 -43.19117L25.75509 -43.15155L25.75763 -43.12767L25.77693 -43.07281L25.80741 -43.02404L25.84856 -42.98289L25.89733 -42.95241L25.95219 -42.93311L26.01518 -42.926L27.83281 -42.926L27.8958 -42.93311L27.95066 -42.95241L27.99943 -42.98289L28.04058 -43.02404L28.07106 -43.07281L28.09036 -43.12767L28.09748 -43.19066L28.09748 -46.47133L28.09036 -46.53432L28.07106 -46.58918L28.04058 -46.63795L27.99943 -46.6791L27.95066 -46.70958L27.8958 -46.72888L27.83281 -46.736L26.01518 -46.736L25.95219 -46.72888L25.89733 -46.70958L25.84856 -46.6791L25.80741 -46.63795L25.77693 -46.58918L25.75763 -46.53432L25.75509 -46.51044L25.74188 -46.47082L25.71343 -46.43983L25.67482 -46.42256L25.63317 -46.42256L25.59456 -46.43983L25.56611 -46.47082L25.5529 -46.51044L25.55036 -46.53432L25.53106 -46.58918L25.50058 -46.63795L25.45943 -46.6791L25.41066 -46.70958L25.3558 -46.72888L25.29281 -46.736L23.47518 -46.736L23.41219 -46.72888L23.35733 -46.70958L23.30856 -46.6791L23.26741 -46.63795L23.23693 -46.58918L23.21763 -46.53432L23.21509 -46.51044L23.20188 -46.47082L23.17343 -46.43983L23.13482 -46.42256L23.09317 -46.42256L23.05456 -46.43983L23.02611 -46.47082L23.0129 -46.51044L23.01036 -46.53432L22.99106 -46.58918L22.96058 -46.63795L22.91943 -46.6791L22.87066 -46.70958L22.8158 -46.72888L22.75281 -46.736L20.93518 -46.736L20.87219 -46.72888L20.81733 -46.70958L20.76856 -46.6791L20.72741 -46.63795L20.69693 -46.58918L20.67763 -46.53432L20.67509 -46.51044L20.66188 -46.47082L20.63343 -46.43983L20.59482 -46.42256L20.55317 -46.42256L20.51456 -46.43983L20.48611 -46.47082L20.4729 -46.51044L20.47036 -46.53432L20.45106 -46.58918L20.42058 -46.63795L20.37943 -46.6791L20.33066 -46.70958L20.2758 -46.72888L20.21281 -46.736L18.39518 -46.736L18.33219 -46.72888L18.27733 -46.70958L18.22856 -46.6791L18.18741 -46.63795L18.15693 -46.58918L18.13763 -46.53432L18.13509 -46.51044L18.12188 -46.47082L18.09343 -46.43983L18.05482 -46.42256L18.01317 -46.42256L17.97456 -46.43983L17.94611 -46.47082L17.9329 -46.51044L17.93036 -46.53432L17.91106 -46.58918L17.88058 -46.63795L17.83943 -46.6791L17.79066 -46.70958L17.7358 -46.72888L17.67281 -46.736L15.85518 -46.736L15.79219 -46.72888L15.73733 -46.70958L15.68856 -46.6791L15.64741 -46.63795L15.61693 -46.58918L15.59763 -46.53432L15.59509 -46.51044L15.58188 -46.47082L15.55343 -46.43983L15.51482 -46.42256L15.47317 -46.42256L15.43456 -46.43983L15.40611 -46.47082L15.3929 -46.51044L15.39036 -46.53432L15.37106 -46.58918L15.34058 -46.63795L15.29943 -46.6791L15.25066 -46.70958L15.1958 -46.72888L15.13281 -46.736L13.31518 -46.736L13.25219 -46.72888L13.19733 -46.70958L13.14856 -46.6791L13.10741 -46.63795L13.07693 -46.58918L13.05763 -46.53432L13.05509 -46.51044L13.04188 -46.47082L13.01343 -46.43983L12.97482 -46.42256L12.93317 -46.42256L12.89456 -46.43983L12.86611 -46.47082L12.8529 -46.51044L12.85036 -46.53432L12.83106 -46.58918L12.80058 -46.63795L12.75943 -46.6791L12.71066 -46.70958L12.6558 -46.72888L12.59281 -46.736L10.77518 -46.736L10.71219 -46.72888L10.65733 -46.70958L10.60856 -46.6791L10.56741 -46.63795L10.53693 -46.58918L10.51763 -46.53432L10.51509 -46.51044L10.50188 -46.47082L10.47343 -46.43983L10.43482 -46.42256L10.39317 -46.42256L10.35456 -46.43983L10.32611 -46.47082L10.3129 -46.51044L10.31036 -46.53432L10.29106 -46.58918L10.26058 -46.63795L10.21943 -46.6791L10.17066 -46.70958L10.1158 -46.72888L10.05281 -46.736L9.91362 -46.736L9.8745 -46.74362L9.84148 -46.76597L9.81964 -46.79848L9.81202 -46.8376L9.81964 -46.87671L9.84148 -46.90922L13.14856 -50.2163L13.19987 -50.27879L13.23543 -50.34534L13.25727 -50.41747L13.2654 -50.49774L13.2654 -65.6844L13.27302 -65.72351L13.29486 -65.75602L13.32788 -65.77838L13.367 -65.786L15.13281 -65.786L15.1958 -65.79311L15.25066 -65.81241L15.29943 -65.84289L15.34058 -65.88404L15.37106 -65.93281L15.39036 -65.98767L15.3929 -66.01155L15.40611 -66.05117L15.43456 -66.08216L15.47317 -66.09943L15.51482 -66.09943L15.55343 -66.08216L15.58188 -66.05117L15.59509 -66.01155L15.59763 -65.98767L15.61693 -65.93281L15.64741 -65.88404L15.68856 -65.84289L15.73733 -65.81241L15.79219 -65.79311L15.85518 -65.786L17.67281 -65.786L17.7358 -65.79311L17.79066 -65.81241L17.83943 -65.84289L17.88058 -65.88404L17.91106 -65.93281L17.93036 -65.98767L17.9329 -66.01155L17.94611 -66.05117L17.97456 -66.08216L18.01317 -66.09943L18.05482 -66.09943L18.09343 -66.08216L18.12188 -66.05117L18.13509 -66.01155L18.13763 -65.98767L18.15693 -65.93281L18.18741 -65.88404L18.22856 -65.84289L18.27733 -65.81241L18.33219 -65.79311L18.39518 -65.786L20.21281 -65.786L20.2758 -65.79311L20.33066 -65.81241L20.37943 -65.84289L20.42058 -65.88404L20.45106 -65.93281L20.47036 -65.98767L20.4729 -66.01155L20.48611 -66.05117L20.51456 -66.08216L20.55317 -66.09943L20.59482 -66.09943L20.63343 -66.08216L20.66188 -66.05117L20.67509 -66.01155L20.67763 -65.98767L20.69693 -65.93281L20.72741 -65.88404L20.76856 -65.84289L20.81733 -65.81241L20.87219 -65.79311L20.93518 -65.786L22.75281 -65.786L22.8158 -65.79311L22.87066 -65.81241L22.91943 -65.84289L22.96058 -65.88404L22.99106 -65.93281L23.01036 -65.98767L23.0129 -66.01155L23.02611 -66.05117L23.05456 -66.08216L23.09317 -66.09943L23.13482 -66.09943L23.17343 -66.08216L23.20188 -66.05117L23.21509 -66.01155L23.21763 -65.98767L23.23693 -65.93281L23.26741 -65.88404L23.30856 -65.84289L23.35733 -65.81241L23.41219 -65.79311L23.47518 -65.786L25.29281 -65.786L25.3558 -65.79311L25.41066 -65.81241L25.45943 -65.84289L25.50058 -65.88404L25.53106 -65.93281L25.55036 -65.98767L25.5529 -66.01155L25.56611 -66.05117L25.59456 -66.08216L25.63317 -66.09943L25.67482 -66.09943L25.71343 -66.08216L25.74188 -66.05117L25.75509 -66.01155L25.75763 -65.98767L25.77693 -65.93281L25.80741 -65.88404L25.84856 -65.84289L25.89733 -65.81241L25.95219 -65.79311L26.01518 -65.786L27.83281 -65.786L27.8958 -65.79311L27.95066 -65.81241L27.99943 -65.84289L28.04058 -65.88404L28.07106 -65.93281L28.09036 -65.98767L28.09748 -66.05066L28.09748 -69.33133L28.09036 -69.39432L28.07106 -69.44918L28.04058 -69.49795L27.99943 -69.5391L27.95066 -69.56958L27.8958 -69.58888L27.83281 -69.596L26.01518 -69.596L25.95219 -69.58888L25.89733 -69.56958L25.84856 -69.5391L25.80741 -69.49795L25.77693 -69.44918L25.75763 -69.39432L25.75509 -69.37044L25.74188 -69.33082L25.71343 -69.29983L25.67482 -69.28256L25.63317 -69.28256L25.59456 -69.29983L25.56611 -69.33082L25.5529 -69.37044L25.55036 -69.39432L25.53106 -69.44918L25.50058 -69.49795L25.45943 -69.5391L25.41066 -69.56958L25.3558 -69.58888L25.29281 -69.596L23.47518 -69.596L23.41219 -69.58888L23.35733 -69.56958L23.30856 -69.5391L23.26741 -69.49795L23.23693 -69.44918L23.21763 -69.39432L23.21509 -69.37044L23.20188 -69.33082L23.17343 -69.29983L23.13482 -69.28256L23.09317 -69.28256L23.05456 -69.29983L23.02611 -69.33082L23.0129 -69.37044L23.01036 -69.39432L22.99106 -69.44918L22.96058 -69.49795L22.91943 -69.5391L22.87066 -69.56958L22.8158 -69.58888L22.75281 -69.596L22.33168 -69.596L22.29307 -69.60362L22.26005 -69.62597L22.2377 -69.65848L22.23008 -69.69759L22.23008 -72.4413L22.2377 -72.47991L22.26005 -72.51293L28.4673 -78.72069L28.49829 -78.74203L28.53486 -78.75016L28.57195 -78.74508L28.67609 -78.70952L28.81528 -78.68208L28.95701 -78.67294L29.09824 -78.68208L29.23743 -78.70952L29.37154 -78.75524L29.49854 -78.81772L29.6169 -78.89646L29.72308 -78.98993L29.81655 -79.09661L29.89529 -79.21447L29.95828 -79.34198L30.004 -79.47609L30.03143 -79.61528L30.04058 -79.7565L30.03143 -79.89824L30.004 -80.03692L29.95828 -80.17154L29.89529 -80.29854L29.87954 -80.32191L29.86379 -80.36255L29.86633 -80.40624L29.88716 -80.44434L29.9217 -80.47075L29.96438 -80.4799L30.18536 -80.4799L30.22396 -80.47228L30.25698 -80.45043L30.4612 -80.24622L30.48203 -80.21523L30.49066 -80.17865L30.48558 -80.14157L30.45002 -80.03692L30.42208 -79.89824L30.41294 -79.7565L30.42208 -79.61528L30.45002 -79.47609L30.49574 -79.34198L30.55823 -79.21447L30.63697 -79.09661L30.73044 -78.98993L30.83712 -78.89646L30.95498 -78.81772L31.08198 -78.75524L31.21609 -78.70952L31.35528 -78.68208L31.49701 -78.67294L31.63824 -78.68208L31.77743 -78.70952L31.91154 -78.75524L32.03854 -78.81772L32.1569 -78.89646L32.26308 -78.98993L32.35655 -79.09661L32.43529 -79.21447L32.49828 -79.34198L32.544 -79.47609L32.57143 -79.61528L32.58058 -79.7565L32.57143 -79.89824L32.544 -80.03692L32.49828 -80.17154L32.43529 -80.29854L32.35655 -80.4164L32.26308 -80.52308L32.1569 -80.61655L32.03854 -80.69529L31.91154 -80.75777L31.77743 -80.80349L31.63824 -80.83092L31.49701 -80.84058L31.35528 -80.83092L31.21609 -80.80349L31.11144 -80.76793L31.07436 -80.76285L31.03778 -80.77098L31.0073 -80.79231L30.66389 -81.13572L30.60141 -81.18703L30.53486 -81.22259L30.46222 -81.24444L30.38195 -81.25206L28.47594 -81.25206L28.39567 -81.24444L28.32303 -81.22259L28.25648 -81.18703L28.194 -81.13572L27.56154 -80.50326L27.51074 -80.44078L27.47924 -80.38236L27.45232 -80.35036L27.41523 -80.33207L27.37358 -80.33003L27.33497 -80.34477L27.305 -80.37372L27.27655 -80.4164L27.18308 -80.52308L27.0769 -80.61655L26.95854 -80.69529L26.83154 -80.75777L26.69743 -80.80349L26.55824 -80.83092L26.41701 -80.84058L26.27528 -80.83092L26.13609 -80.80349L26.00198 -80.75777L25.87498 -80.69529L25.75712 -80.61655L25.65044 -80.52308L25.55697 -80.4164L25.47823 -80.29854L25.41574 -80.17154L25.37002 -80.03692L25.34208 -79.89824L25.33294 -79.7565L25.34208 -79.61528L25.37002 -79.47609L25.41574 -79.34198L25.47823 -79.21447L25.55697 -79.09661L25.65044 -78.98993L25.75712 -78.89646L25.87498 -78.81772L26.00198 -78.75524L26.13609 -78.70952L26.28036 -78.68107L26.31998 -78.66329L26.34894 -78.63078L26.36164 -78.58912L26.35554 -78.54594L26.33218 -78.50936L19.03475 -71.21194L18.98345 -71.14946L18.94789 -71.08291L18.92604 -71.01078L18.91792 -70.93051L18.91792 -69.69759L18.9103 -69.65848L18.88845 -69.62597L18.85543 -69.60362L18.81632 -69.596L18.39518 -69.596L18.33219 -69.58888L18.27733 -69.56958L18.22856 -69.5391L18.18741 -69.49795L18.15693 -69.44918L18.13763 -69.39432L18.13509 -69.37044L18.12188 -69.33082L18.09343 -69.29983L18.05482 -69.28256L18.01317 -69.28256L17.97456 -69.29983L17.94611 -69.33082L17.9329 -69.37044L17.93036 -69.39432L17.91106 -69.44918L17.88058 -69.49795L17.83943 -69.5391L17.79066 -69.56958L17.7358 -69.58888L17.67281 -69.596L15.85518 -69.596L15.79219 -69.58888L15.73733 -69.56958L15.68856 -69.5391L15.64741 -69.49795L15.61693 -69.44918L15.59763 -69.39432L15.59509 -69.37044L15.58188 -69.33082L15.55343 -69.29983L15.51482 -69.28256L15.47317 -69.28256L15.43456 -69.29983L15.40611 -69.33082L15.3929 -69.37044L15.39036 -69.39432L15.37106 -69.44918L15.34058 -69.49795L15.29943 -69.5391L15.25066 -69.56958L15.1958 -69.58888L15.13281 -69.596L13.367 -69.596L13.32788 -69.60362L13.29486 -69.62597L13.27302 -69.65848L13.2654 -69.69759L13.2654 -75.51166L13.25727 -75.59192L13.23543 -75.66406L13.19987 -75.7306L13.14856 -75.79309L12.16761 -76.77403L12.10513 -76.82534L12.03858 -76.8609L11.96594 -76.88275L11.92072 -76.88732L11.89075 -76.89494L11.86434 -76.9112L11.84452 -76.93456L11.81354 -76.98333L11.7729 -77.02448L11.72362 -77.05496L11.66926 -77.07426L11.60576 -77.08138L10.34745 -77.08138L10.28395 -77.07426L10.22959 -77.05496L10.18032 -77.02448L10.13968 -76.98333L10.11123 -76.93863L10.08837 -76.91323L10.0589 -76.89646L10.02537 -76.89088L8.75284 -76.89088L8.71931 -76.89646L8.68984 -76.91323L8.66698 -76.93863L8.63853 -76.98333L8.5979 -77.02448L8.54862 -77.05496L8.49426 -77.07426L8.43076 -77.08138L7.81456 -77.08138L7.77544 -77.089L7.74242 -77.11135L7.72058 -77.14386L7.71296 -77.18298L7.72058 -77.22209L7.74242 -77.2546L9.82573 -79.33791L9.85875 -79.35975L9.89736 -79.36738L22.79853 -79.36738L22.8351 -79.36077L22.86711 -79.34096L22.88946 -79.31099L22.93823 -79.21193L23.01697 -79.09407L23.11044 -78.98739L23.21712 -78.89392L23.33498 -78.81518L23.46198 -78.7527L23.59609 -78.70698L23.73528 -78.67954L23.87701 -78.6704L24.01824 -78.67954L24.15743 -78.70698L24.29154 -78.7527L24.41854 -78.81518L24.5369 -78.89392L24.64308 -78.98739L24.73655 -79.09407L24.81529 -79.21193L24.87828 -79.33944L24.924 -79.47355L24.95143 -79.61274L24.96058 -79.75396L24.95143 -79.8957L24.924 -80.03438L24.87828 -80.169L24.81529 -80.296L24.73655 -80.41386L24.64308 -80.52053L24.5369 -80.61401L24.41854 -80.69275L24.29154 -80.75523L24.15743 -80.80095L24.01824 -80.82838L23.87701 -80.83803L23.73528 -80.82838L23.59609 -80.80095L23.46198 -80.75523L23.33498 -80.69275L23.21712 -80.61401L23.11044 -80.52053L23.01697 -80.41386L22.93823 -80.296L22.88895 -80.19643L22.8666 -80.16646L22.8346 -80.14665L22.79802 -80.13953L9.70076 -80.13953L9.6205 -80.13192L9.54786 -80.11007L9.48131 -80.07451L9.41882 -80.0232L6.55218 -77.15605L6.50087 -77.09408L6.46531 -77.02702L6.44347 -76.95488L6.43534 -76.87462L6.43534 -75.76312L6.44347 -75.68285L6.46531 -75.61021L6.50087 -75.54366L6.55218 -75.48168L6.61111 -75.42225L6.67359 -75.37145L6.74014 -75.33589L6.85596 -75.30134L6.88644 -75.27594L6.90524 -75.24038L6.90778 -75.19111L6.90778 -75.10119L7.1666300000000005 -75.10119L7.1666300000000005 -75.1967L8.436630000000001 -75.1967L8.436630000000001 -75.10119L8.69594 -75.10119L8.69594 -75.19111L8.6868 -75.27696L8.6873 -75.30541L8.69594 -75.38008L8.69594 -76.00391L8.6995 -76.0481L8.72083 -76.08468L8.75487 -76.11008L8.79652 -76.11872L9.19226 -76.11872L9.22832 -76.11211L9.25982 -76.09331L9.28217 -76.06436L9.29284 -76.02931L9.28217 -75.89469L9.29081 -75.79664L9.31621 -75.70165L9.35786 -75.61275L9.41425 -75.53248L9.48334 -75.46289L9.56411 -75.4065L9.65301 -75.36484L9.74801 -75.33944L9.84605 -75.33081L9.8811 -75.33386L9.91971 -75.3303L9.97356 -75.31353L9.99236 -75.31201L10.03096 -75.30033L10.06144 -75.27493L10.08024 -75.23937L10.08278 -75.19111L10.08278 -75.10119L10.34163 -75.10119L10.34163 -75.1967L11.61163 -75.1967L11.61163 -75.10119L11.87094 -75.10119L11.87094 -75.19111L11.8618 -75.27696L11.8623 -75.30541L11.87094 -75.38008L11.87094 -75.73365L11.87856 -75.77226L11.9004 -75.80528L11.93342 -75.82763L11.97254 -75.83525L12.01115 -75.82763L12.04417 -75.80528L12.46327 -75.38618L12.48511 -75.35316L12.49324 -75.31455L12.49324 -69.69759L12.48511 -69.65848L12.46327 -69.62597L12.43025 -69.60362L12.39164 -69.596L12.2047 -69.596L12.2047 -69.3369L12.5984 -69.3369L12.5984 -66.0451L12.2047 -66.0451L12.2047 -65.786L12.39164 -65.786L12.43025 -65.77838L12.46327 -65.75602L12.48511 -65.72351L12.49324 -65.6844L12.49324 -50.69484L12.48511 -50.65623L12.46327 -50.62321L8.87476 -47.03419L8.82345 -46.97222L8.78789 -46.90516L8.75487 -46.79188L8.73252 -46.76241L8.70102 -46.7426L8.66444 -46.736L8.23518 -46.736L8.17219 -46.72888L8.11733 -46.70958L8.06856 -46.6791L8.02741 -46.63795L7.99693 -46.58918L7.97763 -46.53432L7.97052 -46.47133L7.97052 -43.19066L7.97763 -43.12767L7.99693 -43.07281L8.02741 -43.02404L8.06856 -42.98289L8.11733 -42.95241L8.17219 -42.93311L8.23518 -42.926L8.65632 -42.926L8.69543 -42.91838L8.72845 -42.89602L8.7503 -42.86351L8.75792 -42.8244L8.75792 -38.74719L8.76604 -38.66692L8.78789 -38.59428L8.82345 -38.52773L8.87476 -38.46576L20.40788 -26.93263L20.42972 -26.89961L20.43734 -26.8605L20.42972 -26.82189L20.40788 -26.78887L20.37486 -26.76652L20.33574 -26.7589L5.70585 -26.7589L5.64235 -26.75178L5.588 -26.73299L5.53872 -26.702L5.49808 -26.66085L5.46709 -26.61208L5.44779 -26.55722L5.44068 -26.49423L5.44068 -24.78836L5.43306 -24.74925L5.4102 -24.71572L5.37667 -24.69388L5.33704 -24.68676L5.29793 -24.6954L5.26542 -24.71877L5.24408 -24.75331L5.22935 -24.79243L5.15112 -24.95245L5.05663 -25.10383L4.94741 -25.24455L4.82498 -25.37409L4.68985 -25.48991L4.54355 -25.59151L4.38759 -25.67838L4.22401 -25.74848L4.07009 -25.79674L4.03301 -25.81757L4.00812 -25.85212L3.99897 -25.89377L3.99897 -31.35325L4.00812 -31.3949L4.03301 -31.42945L4.07009 -31.45028L4.22401 -31.49854L4.38759 -31.56864L4.54355 -31.65551L4.68985 -31.75711L4.82498 -31.87293L4.94741 -32.00247L5.05663 -32.14319L5.15112 -32.29457L5.22935 -32.45408L5.29132 -32.62122L5.33603 -32.79394L5.36295 -32.97021L5.3721 -33.15055L5.3721 -35.14547L5.36295 -35.32581L5.33603 -35.50208L5.29132 -35.67429L5.22935 -35.84143L5.15112 -36.00145L5.05663 -36.15283L4.94741 -36.29355L4.82498 -36.42309L4.68985 -36.53891L4.54355 -36.64051L4.38759 -36.72738L4.22401 -36.79748L4.05384 -36.85082L3.87959 -36.88689L3.7023 -36.90467L3.52399 -36.90467L3.3467 -36.88689L3.17195 -36.85082L3.00228 -36.79748L2.83819 -36.72738L2.68274 -36.64051L2.53644 -36.53891L2.40131 -36.42309L2.37134 -36.39108L2.33832 -36.36822L2.2992 -36.35959L2.26009 -36.36721L2.22605 -36.38905L2.2037 -36.42207L2.19608 -36.46119L2.19608 -58.2295L2.2037 -58.26861L2.22554 -58.30163L9.41374 -65.48932L9.46454 -65.55181L9.5001 -65.61836L9.53312 -65.73012L9.55548 -65.75958L9.58697 -65.77939L9.62355 -65.786L10.05281 -65.786L10.1158 -65.79311L10.17066 -65.81241L10.21943 -65.84289L10.26058 -65.88404L10.29106 -65.93281L10.31036 -65.98767L10.3129 -66.01155L10.32611 -66.05117L10.35456 -66.08216L10.39317 -66.09943L10.43482 -66.09943L10.47343 -66.08216L10.50188 -66.05117L10.51509 -66.01155L10.51763 -65.98767L10.53693 -65.93281L10.56741 -65.88404L10.60856 -65.84289L10.65733 -65.81241L10.71219 -65.79311L10.77518 -65.786L11.1633 -65.786L11.1633 -66.0451L10.769599999999999 -66.0451L10.769599999999999 -66.80453L10.41908 -66.80453L10.37996 -66.81216L10.34745 -66.83451L10.3251 -66.86702L10.31748 -66.90614L10.31748 -68.47586L10.3251 -68.51497L10.34745 -68.54748L10.37996 -68.56984L10.41908 -68.57746L10.769599999999999 -68.57746L10.769599999999999 -69.3369L11.1633 -69.3369L11.1633 -69.596L10.77518 -69.596L10.71219 -69.58888L10.65733 -69.56958L10.60856 -69.5391L10.56741 -69.49795L10.53693 -69.44918L10.51763 -69.39432L10.51509 -69.37044L10.50188 -69.33082L10.47343 -69.29983L10.43482 -69.28256L10.39317 -69.28256L10.35456 -69.29983L10.32611 -69.33082L10.3129 -69.37044L10.31036 -69.39432L10.29106 -69.44918L10.26058 -69.49795L10.21943 -69.5391L10.17066 -69.56958L10.1158 -69.58888L10.05281 -69.596L8.23518 -69.596L8.17219 -69.58888L8.11733 -69.56958L8.06856 -69.5391L8.02741 -69.49795L7.99693 -69.44918L7.97763 -69.39432L7.97052 -69.33133L7.97052 -66.05066L7.97763 -65.98767L7.99693 -65.93281L8.02741 -65.88404L8.06856 -65.84289L8.11733 -65.81241L8.17219 -65.79311L8.23518 -65.786L8.37285 -65.786L8.41197 -65.77838L8.44499 -65.75602L8.46683 -65.72351L8.47445 -65.6844L8.46683 -65.64528L8.44499 -65.61277L1.54025 -58.70803L1.48945 -58.64606L1.45338 -58.579L1.43154 -58.50686L1.42392 -58.4266L1.42392 -16.7645L1.43154 -16.68424L1.45338 -16.6116L1.48945 -16.54505L1.54025 -16.48307L2.91388 -15.10944L2.93573 -15.07642L2.94335 -15.03781L2.93573 -14.9987L2.91388 -14.96568L2.88086 -14.94383L2.84175 -14.93621L2.11886 -14.93621L2.05536 -14.9291L2.00101 -14.9098L1.95173 -14.87881L1.91109 -14.83817L1.8801 -14.78889L1.8608 -14.73454L1.85369 -14.67104L1.85369 -9.68248L1.8608 -9.61948L1.8801 -9.56462L1.91109 -9.51585L1.95173 -9.4747L2.00101 -9.44422L2.05536 -9.42492L2.11886 -9.41781L5.10743 -9.41781L5.17042 -9.42492L5.22528 -9.44422L5.27405 -9.4747L5.3152 -9.51585L5.34568 -9.56462L5.36498 -9.61948L5.3721 -9.68248L5.3721 -14.67104L5.36498 -14.73454L5.34568 -14.78889L5.3152 -14.83817L5.27405 -14.87881L5.22528 -14.9098L5.17042 -14.9291L5.10743 -14.93621L4.09244 -14.93621L4.05587 -14.94282L4.02437 -14.96263L4.00202 -14.99209L3.969 -15.10385L3.93344 -15.1704L3.88264 -15.23288L2.22554 -16.88947L2.2037 -16.92249L2.19608 -16.96161L2.19608 -20.78583L2.2037 -20.82495L2.22605 -20.85797L2.26009 -20.87981L2.2992 -20.88743L2.33832 -20.8788L2.37134 -20.85543L2.40131 -20.82393L2.53644 -20.70811L2.68274 -20.60651L2.83819 -20.51964L3.00228 -20.44954L3.17195 -20.3962L3.3467 -20.36013L3.52399 -20.34235L3.7023 -20.34235L3.87959 -20.36013L4.05384 -20.3962L4.22401 -20.44954L4.38759 -20.51964L4.54355 -20.60651L4.68985 -20.70811L4.82498 -20.82393L4.94741 -20.95347L5.05663 -21.09419L5.15112 -21.24557L5.22935 -21.40508L5.24408 -21.44471L5.26542 -21.47925L5.29793 -21.50211L5.33704 -21.51126L5.37667 -21.50414L5.4102 -21.4823L5.43306 -21.44877L5.44068 -21.40966L5.44068 -17.8059L5.44779 -17.7424L5.46709 -17.68805L5.49808 -17.63877L5.53872 -17.59813L5.588 -17.56714L5.64235 -17.54784L5.70585 -17.54073L20.89404 -17.54073L20.95754 -17.54784L21.01189 -17.56714L21.09927 -17.62506L21.13788 -17.63268L21.17699 -17.62506L21.21001 -17.6027L21.23186 -17.57019L21.23948 -17.53107L21.23948 -4.63296L21.20188 -4.41909L21.19223 -4.24738L21.19223 -1.7526L21.20188 -1.58089L21.23033 -1.41427L21.27707 -1.25171L21.34158 -1.09524L21.42337 -0.94742L21.52142 -0.80924L21.63419 -0.68326L21.76018 -0.57048L21.89835 -0.47244L22.00452 -0.41351L22.03805 -0.38404L22.05532 -0.3434L22.0538 -0.29921L22.03399 -0.25958L21.99894 -0.23266L21.95576 -0.22301L2.34696 -0.22301L1.98729 -0.22809L1.76276 -0.25806L1.55041 -0.31495L1.34975 -0.39674L1.1623 -0.50241L0.99009 -0.62941L0.83464 -0.77673L0.6985 -0.94132L0.58318 -1.12268L0.49022 -1.31775L0.42214 -1.52501L0.38049 -1.74345L0.36576 -1.97561ZM1.68285 -58.43165L1.6871774200612883 -58.46452001872802L1.6998647737193762 -58.495149999999995L1.7200474387893085 -58.52145256121069L9.0171 -65.81850512242139L9.0171 -66.0451L8.2296 -66.0451L8.2296 -69.3369L10.0584 -69.3369L10.0584 -66.0451L9.2711 -66.0451L9.2711 -65.7659L9.266772579938712 -65.73302998127198L9.254085226280624 -65.7024L9.23390256121069 -65.67609743878931L1.93685 -58.379044877578615L1.93685 -16.812004916129503L3.702792810226818 -15.046052312193876L3.7128840001457366 -15.032901141942062L3.7229752262806235 -15.01975L3.7229752942454306 -15.019749835918441L3.7229754023614365 -15.01974969501811L3.729318969891905 -15.004434848137429L3.7356625799387118 -14.989120018728022L3.7356626031202422 -14.989119842646815L3.7356626710845946 -14.989119678565068L3.737826312757112 -14.97268483627382L3.7399899999999997 -14.95625L3.7399899999999997 -14.67698L5.11299 -14.67698L5.11299 -9.67698L2.11299 -9.67698L2.11299 -14.67698L3.48599 -14.67698L3.48599 -14.903645083870497L1.720047189773182 -16.669597687806124L1.709956000036064 -16.682748857821007L1.6998647737193762 -16.695899999999998L1.699864705754567 -16.69590016408156L1.6998645976385633 -16.69590030498189L1.6935210300765757 -16.711215151938667L1.6871774200612883 -16.72652998127198L1.6871773968797583 -16.72653015735318L1.6871773289154053 -16.726530321434932L1.6850136872461956 -16.742965163701058L1.68285 -16.7594ZM2.112993 -35.147977999999995L2.1641041583438763 -35.53620579119664L2.3139544923995534 -35.89797649999999L2.5523319495405223 -36.208636050459475L2.8629914999999992 -36.44701350760044L3.2247622088033543 -36.596863841656116L3.61299 -36.647974999999995L4.0012177911966464 -36.596863841656116L4.3629885 -36.44701350760044L4.673648050459478 -36.208636050459475L4.912025507600447 -35.89797649999999L5.061875841656124 -35.53620579119664L5.112987 -35.147977999999995L5.112987 -33.14798199999999L5.061875841656124 -32.75975420880334L4.912025507600447 -32.397983499999995L4.673648050459478 -32.08732394954051L4.3629885 -31.848946492399545L4.0012177911966464 -31.699096158343867L3.7399899999999997 -31.664704867193592L3.7399899999999997 -25.582255132806402L4.0012177911966464 -25.547863841656127L4.3629885 -25.39801350760045L4.673648050459478 -25.15963605045948L4.912025507600447 -24.848976500000003L5.061875841656124 -24.487205791196647L5.112987 -24.098978000000002L5.112987 -22.098982000000003L5.061875841656124 -21.71075420880336L4.912025507600447 -21.348983500000003L4.673648050459478 -21.038323949540526L4.3629885 -20.799946492399556L4.0012177911966464 -20.650096158343878L3.61299 -20.598985000000003L3.2247622088033543 -20.650096158343878L2.8629915 -20.799946492399556L2.5523319495405223 -21.038323949540526L2.3139544923995534 -21.348983500000003L2.1641041583438763 -21.71075420880336L2.112993 -22.098982000000003L2.112993 -24.098978000000002L2.1641041583438763 -24.487205791196647L2.3139544923995534 -24.848976500000003L2.5523319495405223 -25.15963605045948L2.8629914999999992 -25.39801350760045L3.2247622088033543 -25.547863841656127L3.48599 -25.582255132806402L3.48599 -31.664704867193592L3.2247622088033543 -31.699096158343867L2.8629915 -31.848946492399545L2.5523319495405223 -32.08732394954051L2.3139544923995534 -32.397983499999995L2.1641041583438763 -32.75975420880334L2.112993 -33.14798199999999ZM5.69998 -26.49994L20.89995 -26.49994L20.89995 -17.79996L5.69998 -17.79996ZM6.69452 -76.87967L6.698847420061288 -76.91254001872802L6.711534773719376 -76.94317000000001L6.731717438789309 -76.9694725612107L9.605727438789309 -79.84348256121069L9.63203 -79.86366522628063L9.662659981271979 -79.87635257993871L9.69553 -79.88068L23.06872591761867 -79.88068L23.080121193311516 -79.96723571220957L23.162539041877835 -80.16620999999999L23.293646905521097 -80.3370730944789L23.464509999999997 -80.46818095812216L23.663484287790418 -80.55059880668848L23.87701 -80.57871L24.09053571220958 -80.55059880668848L24.28951 -80.46818095812216L24.4603730944789 -80.3370730944789L24.591480958122162 -80.16620999999999L24.67389880668848 -79.96723571220957L24.702009999999998 -79.75371L24.67389880668848 -79.54018428779042L24.591480958122162 -79.34121L24.4603730944789 -79.1703469055211L24.28951 -79.03923904187783L24.09053571220958 -78.95682119331151L23.87701 -78.92871L23.663484287790418 -78.95682119331151L23.464509999999997 -79.03923904187783L23.293646905521097 -79.1703469055211L23.162539041877835 -79.34121L23.080121193311516 -79.54018428779042L23.068733816768525 -79.62668000000001L9.748135122421385 -79.62668000000001L6.948519999999999 -76.82706487757862L6.948519999999999 -75.81897L7.1666300000000005 -75.81897L7.1666300000000005 -76.0095L8.436630000000001 -76.0095L8.436630000000001 -75.3745L7.1666300000000005 -75.3745L7.1666300000000005 -75.56497L6.887559999999999 -75.56497L6.854689981271979 -75.56929742006129L6.824059999999999 -75.58198477371937L6.797757438789308 -75.60216743878931L6.731717438789309 -75.66820743878931L6.711534773719376 -75.69451L6.698847420061288 -75.72513998127198L6.69452 -75.75801ZM7.1666300000000005 -76.82229000000001L8.436630000000001 -76.82229000000001L8.436630000000001 -76.63176999999999L10.34163 -76.63176999999999L10.34163 -76.82229000000001L11.61163 -76.82229000000001L11.61163 -76.63176999999999L11.89085 -76.63176999999999L11.90728469211165 -76.62960633173641L11.923719398112816 -76.62744274623037L11.923719697474311 -76.62744262223255L11.923720018728021 -76.6274425799387L11.939034714731255 -76.62109902515054L11.954349443571195 -76.61475554753306L11.954349700639165 -76.61475535027994L11.95435 -76.61475522628062L11.967501028447101 -76.60466408723347L11.98065210688799 -76.59457301553108L12.968972106887989 -75.60626301553108L12.96897230414371 -75.60626275846512L12.968972561210691 -75.60626256121068L12.979063699748199 -75.59311153342776L12.989154905025366 -75.57996055642718L12.989155029026199 -75.57996025706697L12.989155226280625 -75.57996L12.995498781290902 -75.56464530346052L13.001842413643912 -75.54933063934237L13.001842455939395 -75.54933031808885L13.001842579938712 -75.54933001872801L13.00400624840504 -75.53289532507634L13.006169999998376 -75.5164606425077L13.006169957706144 -75.51646032125373L13.006170000000001 -75.51646L13.006170000000001 -50.49288L13.001842579938712 -50.46000998127198L12.989155226280625 -50.42938L12.968972561210691 -50.40307743878931L9.2711 -46.70520487757862L9.2711 -46.4769L10.0584 -46.4769L10.0584 -43.185100000000006L9.2711 -43.185100000000006L9.2711 -38.794685122421384L21.715462561210693 -26.350322561210692L21.735645226280624 -26.32402L21.74833257993871 -26.29339001872802L21.75266 -26.26052L21.75266 -5.049578818443209L21.817338291283768 -5.133869208716231L22.07622125 -5.332517089667038L22.37769684066946 -5.457392368046769L22.70122 -5.499985L23.024743159330537 -5.457392368046769L23.32621875 -5.332517089667038L23.58510170871623 -5.133869208716231L23.78374958966704 -4.874986249999999L23.90862486804677 -4.5735106593305375L23.9512175 -4.2499875L23.9512175 -1.7499925L23.90862486804677 -1.426469340669462L23.78374958966704 -1.1249937500000002L23.58510170871623 -0.8661107912837688L23.32621875 -0.6674629103329615L23.024743159330537 -0.5425876319532306L22.70122 -0.4999950000000002L22.37769684066946 -0.5425876319532306L22.07622125 -0.6674629103329612L21.817338291283768 -0.8661107912837688L21.61869041033296 -1.1249937499999998L21.49381513195323 -1.426469340669462L21.4512225 -1.7499925L21.4512225 -4.2499875L21.49381513195323 -4.5735106593305375L21.49866 -4.5852072054769595L21.49866 -26.20791487757861L9.054297438789309 -38.65227743878931L9.034114773719375 -38.678580000000004L9.021427420061288 -38.70920998127198L9.0171 -38.74208L9.0171 -43.185100000000006L8.2296 -43.185100000000006L8.2296 -46.4769L9.0171 -46.4769L9.0171 -46.75781L9.021427420061288 -46.79068001872802L9.034114773719375 -46.82131L9.054297438789309 -46.84761256121069L12.75217 -50.54548512242138L12.75217 -75.46385450120593L11.838245253950523 -76.37777L11.61163 -76.37777L11.61163 -76.18729L10.34163 -76.18729L10.34163 -76.37777L8.436630000000001 -76.37777L8.436630000000001 -76.18729L7.1666300000000005 -76.18729ZM9.5409 -75.89466L9.551292622981835 -75.97359980875628L9.581762251845747 -76.04716L9.630232431738103 -76.1103275682619L9.6934 -76.15879774815426L9.766960191243731 -76.18926737701817L9.845900000000002 -76.19966000000001L9.92483980875627 -76.18926737701817L9.9984 -76.15879774815426L10.061567568261898 -76.1103275682619L10.110037748154253 -76.04716L10.140507377018166 -75.97359980875628L10.1509 -75.89466L10.140935222457609 -75.81897L10.34163 -75.81897L10.34163 -76.0095L11.61163 -76.0095L11.61163 -75.3745L10.34163 -75.3745L10.34163 -75.56497L10.04859 -75.56497L10.01571998127198 -75.56929742006129L9.985090000000001 -75.58198477371937L9.95878743878931 -75.60216743878931L9.95033980875627 -75.61061506882236L9.92483980875627 -75.60005262298183L9.845900000000002 -75.58966L9.766960191243731 -75.60005262298183L9.6934 -75.63052225184575L9.630232431738103 -75.67899243173811L9.581762251845747 -75.74216L9.551292622981835 -75.81572019124373ZM10.769599999999999 -46.4769L12.5984 -46.4769L12.5984 -43.185100000000006L11.811100000000001 -43.185100000000006L11.811100000000001 -42.65526696755664L11.91409013109614 -42.64170805957098L12.128499999999999 -42.55289658396437L12.31261792847484 -42.41161792847484L12.453896583964365 -42.2275L12.54270805957098 -42.01309013109614L12.572999999999999 -41.783L12.54270805957098 -41.55290986890386L12.453896583964365 -41.3385L12.31261792847484 -41.15438207152516L12.128499999999999 -41.013103416035634L11.91409013109614 -40.92429194042902L11.684 -40.894L11.453909868903859 -40.92429194042902L11.2395 -41.013103416035634L11.055382071525159 -41.15438207152516L10.914103416035633 -41.3385L10.825291940429018 -41.55290986890386L10.795 -41.783L10.825291940429018 -42.01309013109614L10.914103416035633 -42.2275L11.055382071525159 -42.41161792847484L11.2395 -42.55289658396437L11.453909868903859 -42.64170805957098L11.5571 -42.65529329805616L11.5571 -43.185100000000006L10.769599999999999 -43.185100000000006ZM13.3096 -69.3369L15.1384 -69.3369L15.1384 -66.0451L13.3096 -66.0451ZM13.3096 -46.4769L15.1384 -46.4769L15.1384 -43.185100000000006L13.3096 -43.185100000000006ZM15.849599999999999 -69.3369L17.6784 -69.3369L17.6784 -66.0451L15.849599999999999 -66.0451ZM15.849599999999999 -46.4769L17.6784 -46.4769L17.6784 -43.185100000000006L15.849599999999999 -43.185100000000006ZM18.389599999999998 -69.3369L19.1771 -69.3369L19.1771 -70.93531L19.17926370541653 -70.95174497431634L19.181427400787307 -70.96817994679645L19.18142741515927 -70.96817998149349L19.181427420061286 -70.96818001872802L19.18777108586974 -70.98349498275796L19.19411473648488 -70.99880993550792L19.194114759347382 -70.99880996530295L19.194114773719374 -70.99881L19.204206085037793 -71.0119612529554L19.21429738613177 -71.02511250855312L27.704130000000003 -79.51495507879844L27.704130000000003 -80.22663L27.70845742006129 -80.25950001872802L27.721144773719377 -80.29013L27.74132743878931 -80.31643256121069L28.380897438789308 -80.9560025612107L28.4072 -80.97618522628063L28.43782998127198 -80.98887257993871L28.4707 -80.9932L30.38713 -80.9932L30.420000018728018 -80.98887257993871L30.45063 -80.97618522628063L30.476932561210692 -80.9560025612107L31.01531180604234 -80.41762331637904L31.084509999999998 -80.47072095812216L31.28348428779042 -80.55313880668848L31.49701 -80.58125L31.71053571220958 -80.55313880668848L31.90951 -80.47072095812216L32.0803730944789 -80.33961309447889L32.21148095812216 -80.16874999999999L32.29389880668848 -79.96977571220957L32.32201 -79.75625L32.29389880668848 -79.54272428779042L32.21148095812216 -79.34375L32.0803730944789 -79.1728869055211L31.90951 -79.04177904187783L31.71053571220958 -78.95936119331151L31.49701 -78.93124999999999L31.28348428779042 -78.95936119331151L31.084509999999998 -79.04177904187783L30.913646905521098 -79.1728869055211L30.782539041877836 -79.34375L30.700121193311517 -79.54272428779042L30.67201 -79.75625L30.700121193311517 -79.96977571220957L30.782539041877836 -80.16874999999999L30.83569746794613 -80.2380274096325L30.334524877578612 -80.73920000000001L28.523305122421387 -80.73920000000001L27.95813 -80.17402487757862L27.95813 -79.46235L27.955966294813333 -79.44591502742965L27.953802599212693 -79.42948005320355L27.95380258484073 -79.42948001850651L27.953802579938714 -79.42947998127198L27.947458914521924 -79.4141650181876L27.94111526351512 -79.39885006449208L27.941115240652618 -79.39885003469705L27.941115226280626 -79.39885L27.931023913583726 -79.38569874524812L27.92093261386823 -79.37254749144688L19.431099999999997 -70.88270492120157L19.431099999999997 -69.3369L20.2184 -69.3369L20.2184 -66.0451L18.389599999999998 -66.0451ZM18.389599999999998 -46.4769L20.2184 -46.4769L20.2184 -43.185100000000006L18.389599999999998 -43.185100000000006ZM20.18607 -33.61499L20.228662717138665 -33.93851380637815L20.35353824526945 -34.23999L20.552186523516816 -34.49887347648318L20.81107 -34.697521754730545L21.11254619362185 -34.82239728286133L21.43607 -34.86499L21.759593806378152 -34.82239728286133L22.06107 -34.697521754730545L22.319953476483185 -34.49887347648318L22.51860175473055 -34.23999L22.643477282861337 -33.93851380637815L22.68607 -33.61499L22.643477282861337 -33.29146619362185L22.51860175473055 -32.98999L22.319953476483185 -32.731106523516814L22.06107 -32.53245824526945L21.759593806378152 -32.407582717138666L21.43607 -32.36499L21.11254619362185 -32.407582717138666L20.81107 -32.53245824526945L20.552186523516816 -32.731106523516814L20.35353824526945 -32.98999L20.228662717138665 -33.29146619362185ZM20.18607 -28.615L20.228662717138665 -28.93852380637815L20.35353824526945 -29.24L20.552186523516816 -29.498883476483183L20.81107 -29.697531754730548L21.11254619362185 -29.822407282861334L21.43607 -29.865L21.759593806378152 -29.822407282861334L22.06107 -29.697531754730548L22.319953476483185 -29.498883476483183L22.51860175473055 -29.24L22.643477282861337 -28.93852380637815L22.68607 -28.615L22.643477282861337 -28.291476193621847L22.51860175473055 -27.99L22.319953476483185 -27.731116523516814L22.06107 -27.53246824526945L21.759593806378152 -27.407592717138662L21.43607 -27.365L21.11254619362185 -27.407592717138662L20.81107 -27.53246824526945L20.552186523516816 -27.731116523516814L20.35353824526945 -27.99L20.228662717138665 -28.291476193621847ZM20.9296 -69.3369L21.717100000000002 -69.3369L21.717100000000002 -72.64321L21.72142742006129 -72.67608001872802L21.734114773719377 -72.70671L21.754297438789308 -72.73301256121069L28.295723518371197 -79.27443864079258L28.242539041877837 -79.34375L28.160121193311518 -79.54272428779042L28.13201 -79.75625L28.160121193311518 -79.96977571220957L28.242539041877837 -80.16874999999999L28.3736469055211 -80.33961309447889L28.54451 -80.47072095812216L28.74348428779042 -80.55313880668848L28.95701 -80.58125L29.17053571220958 -80.55313880668848L29.369510000000002 -80.47072095812216L29.540373094478902 -80.33961309447889L29.671480958122164 -80.16874999999999L29.753898806688483 -79.96977571220957L29.78201 -79.75625L29.753898806688483 -79.54272428779042L29.671480958122164 -79.34375L29.540373094478902 -79.1728869055211L29.369510000000002 -79.04177904187783L29.17053571220958 -78.95936119331151L28.95701 -78.93124999999999L28.74348428779042 -78.95936119331151L28.54451 -79.04177904187783L28.475345755617262 -79.09485063319588L21.9711 -72.59060487757861L21.9711 -69.3369L22.7584 -69.3369L22.7584 -66.0451L20.9296 -66.0451ZM20.9296 -46.4769L22.7584 -46.4769L22.7584 -43.185100000000006L20.9296 -43.185100000000006ZM21.9248964 -10.1250934L21.971748511519557 -10.48097051876453L22.109111952104943 -10.8125952L22.327625630284086 -11.097367769715916L22.6123982 -11.315881447895057L22.944022881235473 -11.453244888480445L23.2999 -11.500097L23.65577711876453 -11.453244888480445L23.9874018 -11.315881447895057L24.272174369715916 -11.097367769715916L24.49068804789506 -10.8125952L24.628051488480445 -10.48097051876453L24.6749036 -10.1250934L24.6749036 -9.875106599999999L24.628051488480445 -9.51922948123547L24.49068804789506 -9.187604799999999L24.272174369715916 -8.902832230284083L23.9874018 -8.684318552104942L23.65577711876453 -8.546955111519555L23.2999 -8.500103L22.944022881235473 -8.546955111519555L22.6123982 -8.684318552104942L22.327625630284086 -8.902832230284083L22.109111952104943 -9.187604799999999L21.971748511519557 -9.51922948123547L21.9248964 -9.875106599999999ZM23.4696 -69.3369L25.2984 -69.3369L25.2984 -66.0451L23.4696 -66.0451ZM23.4696 -46.4769L25.2984 -46.4769L25.2984 -43.185100000000006L24.5111 -43.185100000000006L24.5111 -42.958505122421386L25.295332561210692 -42.17427256121069L25.315515226280624 -42.14797L25.32820257993871 -42.11734001872802L25.33253 -42.08447L25.33253 -5.547105122421386L26.470848766054697 -4.408786356366685L26.492535131953233 -4.5735106593305375L26.617410410332962 -4.874986249999999L26.81605829128377 -5.133869208716231L27.074941250000002 -5.332517089667038L27.376416840669464 -5.457392368046769L27.69994 -5.499985L28.02346315933054 -5.457392368046769L28.32493875 -5.332517089667038L28.583821708716233 -5.133869208716231L28.78246958966704 -4.874986249999999L28.90734486804677 -4.5735106593305375L28.9499375 -4.2499875L28.9499375 -1.7499925L28.90734486804677 -1.426469340669462L28.78246958966704 -1.1249937500000002L28.583821708716233 -0.8661107912837688L28.32493875 -0.6674629103329615L28.02346315933054 -0.5425876319532306L27.69994 -0.4999950000000002L27.376416840669464 -0.5425876319532306L27.074941250000002 -0.6674629103329612L26.81605829128377 -0.8661107912837688L26.617410410332962 -1.1249937499999998L26.492535131953233 -1.426469340669462L26.449942500000002 -1.7499925L26.449942500000002 -4.070482377578614L25.115727438789307 -5.4046974387893085L25.095544773719375 -5.431L25.082857420061288 -5.46162998127198L25.07853 -5.4945L25.07853 -42.03186487757862L24.294297438789307 -42.81609743878931L24.274114773719376 -42.842400000000005L24.26142742006129 -42.87302998127198L24.2571 -42.9059L24.2571 -43.185100000000006L23.4696 -43.185100000000006ZM24.35007 -2.99986L24.379033047654293 -3.2198561883371424L24.463948406783228 -3.4248600000000002L24.599029235991434 -3.600900764008565L24.77507 -3.7359815932167724L24.98007381166286 -3.820896952345708L25.20007 -3.84986L25.42006618833714 -3.820896952345708L25.62507 -3.7359815932167724L25.801110764008566 -3.600900764008565L25.936191593216773 -3.4248600000000002L26.021106952345708 -3.2198561883371424L26.05007 -2.99986L26.021106952345708 -2.7798638116628576L25.936191593216773 -2.57486L25.801110764008566 -2.398819235991435L25.62507 -2.263738406783227L25.42006618833714 -2.178823047654292L25.20007 -2.14986L24.98007381166286 -2.178823047654292L24.77507 -2.263738406783227L24.599029235991434 -2.398819235991435L24.463948406783228 -2.57486L24.379033047654293 -2.7798638116628576ZM25.4860044 -35.56L25.520078505562584 -35.81881852746444L25.619978728266368 -36.05999900000001L25.778897033027015 -36.26710536697299L25.9860034 -36.42602367173364L26.22718387253557 -36.525923894437426L26.4860024 -36.55999800000001L28.8859976 -36.55999800000001L29.14481612746443 -36.525923894437426L29.3859966 -36.42602367173364L29.593102966972985 -36.26710536697299L29.752021271733632 -36.05999900000001L29.851921494437416 -35.81881852746444L29.8859956 -35.56L29.851921494437416 -35.301181472535575L29.752021271733632 -35.060001L29.593102966972985 -34.85289463302702L29.3859966 -34.69397632826637L29.14481612746443 -34.594076105562586L28.8859976 -34.560002000000004L28.170732490685456 -34.560002000000004L33.15377577094368 -29.576950746770486L33.31092 -29.697531754730548L33.612396193621855 -29.822407282861334L33.93592 -29.865L34.25944380637815 -29.822407282861334L34.56092 -29.697531754730548L34.81980347648319 -29.498883476483183L35.01845175473055 -29.24L35.143327282861335 -28.93852380637815L35.18592 -28.615L35.143327282861335 -28.291476193621847L35.01845175473055 -27.99L34.81980347648319 -27.731116523516814L34.56092 -27.53246824526945L34.25944380637815 -27.407592717138662L33.93592 -27.365L33.612396193621855 -27.407592717138662L33.31092 -27.53246824526945L33.05203652351682 -27.731116523516814L32.85338824526946 -27.99L32.72851271713867 -28.291476193621847L32.68592 -28.615L32.72851271713867 -28.93852380637815L32.85338824526946 -29.24L32.97414413434737 -29.397372138566336L27.811522533213996 -34.560002000000004L26.4860024 -34.560002000000004L26.22718387253557 -34.594076105562586L25.9860034 -34.69397632826637L25.778897033027015 -34.85289463302702L25.619978728266368 -35.060001L25.520078505562584 -35.301181472535575ZM25.4860044 -26.924L25.520078505562584 -27.182818527464427L25.619978728266368 -27.423998999999995L25.778897033027015 -27.63110536697298L25.9860034 -27.79002367173363L26.22718387253557 -27.889923894437413L26.4860024 -27.923997999999997L28.8859976 -27.923997999999997L29.14481612746443 -27.889923894437413L29.3859966 -27.79002367173363L29.593102966972985 -27.63110536697298L29.752021271733632 -27.423998999999995L29.851921494437416 -27.182818527464427L29.8859956 -26.924L29.851921494437416 -26.66518147253557L29.752021271733632 -26.424001L29.593102966972985 -26.216894633027014L29.3859966 -26.057976328266367L29.14481612746443 -25.958076105562583L28.8859976 -25.924001999999998L26.4860024 -25.924001999999998L26.22718387253557 -25.958076105562583L25.9860034 -26.057976328266367L25.778897033027015 -26.216894633027014L25.619978728266368 -26.424001L25.520078505562584 -26.66518147253557ZM25.592010000000002 -79.75625L25.62012119331152 -79.96977571220957L25.702539041877838 -80.16874999999999L25.8336469055211 -80.33961309447889L26.00451 -80.47072095812216L26.20348428779042 -80.55313880668848L26.41701 -80.58125L26.630535712209582 -80.55313880668848L26.829510000000003 -80.47072095812216L27.000373094478903 -80.33961309447889L27.131480958122165 -80.16874999999999L27.213898806688483 -79.96977571220957L27.24201 -79.75625L27.213898806688483 -79.54272428779042L27.131480958122165 -79.34375L27.000373094478903 -79.1728869055211L26.829510000000003 -79.04177904187783L26.630535712209582 -78.95936119331151L26.41701 -78.93124999999999L26.20348428779042 -78.95936119331151L26.00451 -79.04177904187783L25.8336469055211 -79.1728869055211L25.702539041877838 -79.34375L25.62012119331152 -79.54272428779042ZM26.0096 -69.3369L27.8384 -69.3369L27.8384 -66.0451L26.0096 -66.0451ZM26.0096 -46.4769L27.8384 -46.4769L27.8384 -43.185100000000006L26.0096 -43.185100000000006Z" fill="currentColor" fill-rule="evenodd"/></svg>