<svg version="1.1" xmlns="http://www.w3.org/2000/svg" xmlns:xlink="http://www.w3.org/1999/xlink" stroke-linecap="round" stroke-linejoin="round" stroke-width="0" fill-rule="evenodd" clip-rule="evenodd" fill="currentColor" stroke="currentColor" viewBox="0.10652 -82.46386 54.999939999999995 82.49987" width="54.999939999999995mm" height="82.49987mm"><path d="M36.0934 -77.54823L35.27399 -77.54518L35.20338 -77.53146L35.15664 -77.51572L35.12515 -77.49997L35.08197 -77.4705L35.05758 -77.44409L35.0266 -77.39583L35.01085 -77.35417L34.99408 -77.28102L34.99408 -76.52461L35.51275 -76.52461L35.51275 -77.0763L35.84752 -77.07833L35.84752 -76.52258L34.99408 -76.52461L34.99408 -75.51267L35.51834 -75.51267L35.52037 -76.05877L35.84549 -76.05877L35.84905 -75.5147L36.37584 -75.51267L36.3733 -77.29931L36.35248 -77.36992L36.33215 -77.4131L36.29406 -77.4639L36.24834 -77.49794L36.19347 -77.52334L36.12896 -77.5401L36.09797 -77.5401"></path><path d="M36.53586 -77.54772L36.5379 -75.44409L37.07434 -75.44409L37.07942 -76.26705L37.45179 -76.26807L37.45179 -75.45171L37.46144 -75.44206L37.99078 -75.44206L37.99992 -75.45171L37.99992 -77.54772L37.45179 -77.54772L37.45179 -76.74559L37.08095 -76.74559L37.07637 -76.75778L37.07637 -77.54772"></path><path d="M33.58896 -77.54772L33.59099 -77.08036L34.26002 -77.0763L34.26206 -77.07426L34.26002 -75.98054L33.59099 -75.97648L33.58896 -75.51267L34.51606 -75.51267L34.59683 -75.52893L34.62426 -75.53807L34.6842 -75.56804L34.735 -75.61834L34.76548 -75.6793L34.7792 -75.73009L34.79037 -75.82408L34.79037 -77.2292L34.7792 -77.32674L34.7665 -77.37398L34.73602 -77.43647L34.69792 -77.4766L34.65169 -77.50759L34.60851 -77.52384L34.54908 -77.5401L34.52266 -77.5401L34.51047 -77.54772"></path><path d="M32.08985 -77.54772L32.41852 -76.66634L32.41852 -76.65567L32.35502 -76.65567L32.29152 -76.63891L32.24072 -76.61554L32.20516 -76.59166L32.15944 -76.54798L32.12287 -76.49311L32.10864 -76.46263L32.08985 -76.3971L32.08985 -75.51267L32.61461 -75.51267L32.61614 -76.24267L32.9057 -76.2447L32.91179 -76.23505L32.91179 -75.51267L33.43656 -75.51267L33.43656 -77.54772L32.91179 -77.54772L32.91179 -76.71409L32.8996 -76.70952L32.89503 -76.71409L32.6136 -77.54772"></path><path d="M40.67708 -76.84719L40.67708 -76.84109L40.70502 -76.77099L40.74312 -76.68869L40.7548 -76.6323L40.74414 -76.57541L40.73702 -76.54798L40.72229 -76.51648L40.69994 -76.48702L40.66743 -76.46873L40.63136 -76.46009L40.58107 -76.47076L40.49877 -76.50835L40.20058 -76.70139L40.16197 -76.70647L39.92524 -76.65974L39.93438 -76.64246L39.97045 -76.5942L40.02328 -76.53324L40.0497 -76.47736L40.05783 -76.44993L40.06748 -76.38491L40.05732 -76.32496L40.04259 -76.28991L40.01363 -76.25943L39.97248 -76.24064L39.88968 -76.24064L39.71594 -76.28026L39.56304 -76.31887L39.52544 -76.31887L39.44975 -76.26248L39.4462 -76.25791L39.34815 -76.18475L39.32275 -76.16088L39.32275 -76.15123L39.39895 -76.10602L39.46702 -76.0608L39.50157 -76.01203L39.51782 -75.97546L39.5356 -75.92161L39.53611 -75.83576L39.51681 -75.79664L39.48379 -75.76362L39.4528 -75.74788L39.35628 -75.72451L39.14597 -75.68844L39.09009 -75.67675L39.07282 -75.66355L38.94683 -75.42733L38.94683 -75.41514L39.07028 -75.39481L39.12209 -75.37602L39.15257 -75.34249L39.18813 -75.29575L39.21963 -75.24089L39.2308 -75.20533L39.23029 -75.14285L39.20439 -75.08798L39.14495 -75.02906L38.89959 -74.86243L38.87673 -74.82636L38.87673 -74.80401L38.83863 -74.54595L38.84574 -74.54138L38.90975 -74.55103L38.95344 -74.56576L39.00525 -74.56576L39.04183 -74.55001L39.08399 -74.52207L39.13835 -74.46772L39.15918 -74.43266L39.17391 -74.39152L39.17391 -74.32192L39.15003 -74.25232L39.11803 -74.19187L39.1038 -74.17104L39.1038 -74.16546L39.08907 -74.14463L38.97122 -73.95464L38.96664 -73.91806L38.98137 -73.8317L38.98544 -73.82002L39.01897 -73.63358L39.03167 -73.6224L39.13784 -73.69657L39.17086 -73.69657L39.23131 -73.66457L39.26586 -73.63612L39.28973 -73.61224L39.30904 -73.58888L39.33698 -73.53452L39.34561 -73.50302L39.35526 -73.44714L39.35018 -73.37755L39.32631 -73.23277L39.31869 -73.1586L39.31361 -73.0824L39.32326 -72.9747L39.33951 -72.88479L39.35729 -72.81824L39.39641 -72.70851L39.44467 -72.58913L39.53001 -72.41082L39.62146 -72.25436L39.70782 -72.13092L39.78401 -72.03897L39.86529 -71.95972L39.89679 -71.94397L39.94454 -71.93381L39.99788 -71.94448L40.02227 -71.95464L40.04665 -71.97547L40.05834 -71.99985L40.06646 -72.05472L40.06646 -72.1746L40.04716 -72.29957L39.96385 -72.70953L39.96893 -72.71816L39.97909 -72.70851L40.08323 -72.55205L40.18534 -72.40727L40.23004 -72.3524L40.30319 -72.28078L40.3738 -72.22794L40.38549 -72.22388L40.40479 -72.21067L40.45712 -72.19035L40.50893 -72.17816L40.58665 -72.17816L40.62831 -72.18934L40.64355 -72.19543L40.67301 -72.21423L40.69079 -72.24268L40.70045 -72.27011L40.70045 -72.3265L40.66794 -72.47737L40.64508 -72.54595L40.6532 -72.54595L40.74007 -72.50684L40.75074 -72.50684L40.75531 -72.50023L40.86707 -72.47128L40.96918 -72.46112L41.03522 -72.46772L41.08551 -72.4855L41.12209 -72.51852L41.13885 -72.55357L41.13885 -72.61199L41.12158 -72.66533L41.11548 -72.67295L41.11548 -72.68311L41.06824 -72.79386L41.0784 -72.80097L41.13428 -72.79741L41.20337 -72.76338L41.29582 -72.71054L41.38726 -72.64908L41.43806 -72.61809L41.49039 -72.5932L41.49902 -72.5932L41.51274 -72.58608L41.54474 -72.57643L41.61028 -72.57948L41.64837 -72.59726L41.68292 -72.62926L41.69867 -72.65466L41.71035 -72.69276L41.71035 -72.71766L41.69918 -72.75931L41.67733 -72.81418L41.6311 -72.90409L41.593 -72.95845L41.593 -72.96962L41.60672 -72.96403L41.64228 -72.95743L41.75201 -72.92187L41.80789 -72.92187L41.84904 -72.94067L41.87088 -72.9615L41.88307 -72.99045L41.87342 -73.0255L41.83481 -73.08189L41.72 -73.20178L41.70121 -73.22769L41.73575 -73.22413L41.78249 -73.21092L41.84142 -73.19873L42.02125 -73.19518L42.07611 -73.20432L42.10761 -73.21803L42.12691 -73.23937L42.12691 -73.28763L42.10862 -73.32268L42.07662 -73.36993L42.03242 -73.42479L41.93692 -73.53452L41.90593 -73.56144L41.90593 -73.57059L41.94301 -73.58278L42.17873 -73.63053L42.27982 -73.65847L42.29963 -73.66863L42.33164 -73.70318L42.34535 -73.74432L42.3418 -73.7809L42.32706 -73.8124L42.29455 -73.8444L42.2275 -73.87691L42.22343 -73.87691L42.17212 -73.90028L42.16806 -73.90028L42.07052 -73.94092L42.0497 -73.96225L42.25645 -74.05827L42.29963 -74.08722L42.32452 -74.11567L42.33672 -74.14361L42.33672 -74.19238L42.32351 -74.2188L42.2915 -74.2508L42.2407 -74.27518L42.17009 -74.29855L42.05681 -74.33005L42.02785 -74.33513L42.01972 -74.34478L42.04665 -74.38542L42.04665 -74.38948L42.16349 -74.56373L42.19549 -74.62621L42.19549 -74.63637L42.2026 -74.64958L42.21124 -74.67752L42.21124 -74.73696L42.19346 -74.76998L42.16247 -74.79131L42.12437 -74.80147L42.08424 -74.79182L42.037 -74.77556L41.92778 -74.7207L41.89171 -74.69936L41.87444 -74.69428L41.87444 -74.70444L41.92625 -74.81011L41.94505 -74.86091L41.94505 -74.92593L41.93387 -74.94727L41.91558 -74.96352L41.88358 -74.97267L41.81957 -74.97267L41.63771 -74.93762L41.54576 -74.9173L41.54576 -74.90714L41.58386 -74.88275L41.62094 -74.87005L41.7515 -74.87462L41.85818 -74.88783L41.86732 -74.87056L41.85767 -74.8416L41.81043 -74.77099L41.77487 -74.7268L41.74794 -74.68209L41.74744 -74.62875L41.77436 -74.60132L41.80941 -74.58913L41.85869 -74.58913L41.90796 -74.6003L41.99229 -74.6318L42.0751 -74.66736L42.10151 -74.67193L42.10151 -74.66025L42.08221 -74.62621L41.98315 -74.51648L41.92117 -74.44231L41.90034 -74.39914L41.89729 -74.33818L41.91508 -74.28941L41.92981 -74.26858L41.96435 -74.24013L42.06849 -74.20508L42.16044 -74.16444L42.16044 -74.15936L42.07713 -74.13853L42.00956 -74.11923L41.96791 -74.09789L41.93235 -74.06284L41.90746 -74.02372L41.8912 -73.98816L41.88561 -73.96276L41.8912 -73.93127L41.91965 -73.90333L41.96334 -73.8698L42.12894 -73.78192L42.1645 -73.75093L42.1645 -73.74534L42.10761 -73.7362L41.99026 -73.72807L41.92727 -73.72756L41.8531 -73.71638L41.81805 -73.70673L41.77487 -73.68794L41.75048 -73.66457L41.74032 -73.62952L41.75048 -73.57719L41.76979 -73.53046L41.7896 -73.49134L41.82872 -73.43241L41.86834 -73.38568L41.93133 -73.32065L41.94098 -73.30338L41.94098 -73.29728L41.89628 -73.29728L41.64634 -73.36028L41.59199 -73.36028L41.56201 -73.343L41.55694 -73.32116L41.56252 -73.29576L41.60012 -73.2409L41.72305 -73.10374L41.76877 -73.04633L41.76877 -73.0382L41.71238 -73.04278L41.63415 -73.05852L41.54779 -73.06665L41.49293 -73.06208L41.46448 -73.05395L41.44518 -73.03719L41.43654 -73.01992L41.43654 -72.99909L41.44568 -72.96658L41.46448 -72.93152L41.55236 -72.78674L41.561 -72.75931L41.56608 -72.72629L41.55795 -72.72629L41.37355 -72.84364L41.36948 -72.84364L41.33646 -72.86599L41.23588 -72.92187L41.09262 -72.96861L41.01947 -72.96861L40.96613 -72.95184L40.93718 -72.9234L40.92194 -72.89241L40.91889 -72.82332L40.9321 -72.771L40.99102 -72.59675L40.98696 -72.59218L40.90212 -72.60945L40.80408 -72.64653L40.74769 -72.67143L40.74363 -72.67143L40.69079 -72.69429L40.6405 -72.71054L40.5577 -72.71003L40.52722 -72.69988L40.5008 -72.67854L40.48861 -72.66025L40.47337 -72.61859L40.4688 -72.53224L40.47744 -72.454L40.48658 -72.33208L40.4815 -72.31837L40.45458 -72.34072L40.18229 -72.66127L40.06291 -72.79131L40.01363 -72.83653L39.94708 -72.88123L39.91 -72.8985L39.86631 -72.8985L39.84345 -72.88631L39.82059 -72.85481L39.80078 -72.77912L39.79164 -72.72375L39.79621 -72.59878L39.83126 -72.19746L39.8404 -72.11923L39.82364 -72.12431L39.82364 -72.13092L39.80179 -72.18019L39.73829 -72.34072L39.6941 -72.47381L39.66057 -72.59878L39.64432 -72.67702L39.62806 -72.79843L39.62806 -72.8411L39.6367 -72.90816L39.65194 -72.95896L39.67327 -73.00112L39.70832 -73.0377L39.73169 -73.05395L39.77894 -73.07224L39.89273 -73.07173L39.99788 -73.05497L40.13911 -73.03922L40.28795 -73.03058L40.4246 -73.03922L40.49115 -73.04735L40.56176 -73.05903L40.62984 -73.07427L40.70654 -73.09612L40.78833 -73.12609L40.88434 -73.16978L40.96054 -73.20889L41.03115 -73.25156L41.08602 -73.29119L41.14495 -73.33843L41.19168 -73.38161L41.24096 -73.43241L41.30395 -73.50709L41.35678 -73.58532L41.39031 -73.64018L41.45178 -73.77125L41.48328 -73.8571L41.50258 -73.91806L41.52646 -74.01559L41.54576 -74.13091L41.54576 -74.20203L41.53001 -74.30922L41.50563 -74.39914L41.48785 -74.454L41.45534 -74.5363L41.39996 -74.64196L41.35729 -74.71257L41.3136 -74.77302L41.30801 -74.77302L41.23182 -74.69276L41.09415 -74.52817L41.04081 -74.46772L41.04944 -74.45197L41.1038 -74.39202L41.15358 -74.31684L41.18559 -74.24928L41.18559 -74.23861L41.1927 -74.23099L41.21353 -74.14869L41.2247 -74.05878L41.2247 -73.99985L41.21404 -73.90993L41.18914 -73.79665L41.17492 -73.7494L41.15003 -73.6854L41.11548 -73.61783L41.06722 -73.5462L41.02252 -73.49134L40.95699 -73.42835L40.90212 -73.38517L40.85488 -73.35316L40.81983 -73.33234L40.72178 -73.28357L40.66743 -73.26122L40.56176 -73.22769L40.45204 -73.20381L40.32859 -73.18806L40.11523 -73.18806L40.00957 -73.20025L39.9039 -73.21854L39.82161 -73.23937L39.72356 -73.27239L39.69664 -73.28357L39.59606 -73.33691L39.52697 -73.38364L39.5224 -73.39075L39.53713 -73.43648L39.55389 -73.50099L39.5732 -73.60869L39.58234 -73.70673L39.57777 -73.92568L39.56964 -74.02728L39.55389 -74.12532L39.54576 -74.16444L39.53357 -74.24267L39.52189 -74.34834L39.51782 -74.64196L39.53865 -74.81824L39.55389 -74.90104L39.58539 -75.02956L39.62349 -75.14386L39.63568 -75.16977L39.63568 -75.17993L39.65854 -75.23276L39.72255 -75.36484L39.75354 -75.41564L39.75354 -75.41818L39.79468 -75.48321L39.85056 -75.56144L39.91101 -75.63612L40.02125 -75.74635L40.10101 -75.80985L40.1955 -75.87284L40.34231 -75.94955L40.45965 -75.99375L40.53789 -76.01813L40.62628 -76.03845L40.75734 -76.0608L40.92549 -76.06538L41.04284 -76.05674L41.15257 -76.04048L41.2115 -76.0288L41.29735 -76.00696L41.45026 -75.95819L41.51376 -75.92669L41.5676 -75.88656L41.63009 -75.82357L41.64939 -75.78547L41.64888 -75.73009L41.62856 -75.69047L41.5102 -75.53198L41.48937 -75.52334L41.4655 -75.52334L40.40632 -75.65593L40.39615 -75.63612L40.1447 -74.81214L40.0243 -74.41082L40.00754 -74.36815L39.97299 -74.29703L39.94048 -74.24267L39.89832 -74.18781L39.84701 -74.13498L39.7007 -73.99477L39.66921 -73.946L39.65448 -73.90993L39.64482 -73.84745L39.65498 -73.7809L39.67581 -73.71435L39.70488 -73.65288L39.77538 -73.65288L39.78097 -73.66609L39.82974 -73.66152L39.85717 -73.66101L39.89628 -73.66609L39.94556 -73.69048L39.9862 -73.73416L40.00296 -73.76922L40.0116 -73.79716L40.0116 -73.85456L40.00296 -73.8825L39.96385 -73.95413L39.96791 -74.00391L39.97706 -74.03896L39.98112 -74.06487L39.98823 -74.06894L39.98823 -74.0918L39.99585 -74.09637L39.99585 -74.11516L40.00398 -74.11974L40.00398 -74.13853L40.0116 -74.1431L40.0116 -74.15885L40.02125 -74.17612L40.03243 -74.18984L40.09339 -74.18984L40.09847 -74.18222L40.11523 -74.18171L40.15079 -74.17003L40.20718 -74.14209L40.20718 -74.13498L40.21785 -74.13498L40.27678 -74.07808L40.31691 -74.01814L40.31691 -74.0095L40.33265 -73.97851L40.33265 -73.96429L40.33977 -73.95718L40.34536 -73.92162L40.34536 -73.82764L40.33977 -73.79258L40.33265 -73.78496L40.33265 -73.77074L40.3164 -73.73366L40.28795 -73.6793L40.21988 -73.61072L40.20718 -73.61072L40.20718 -73.60361L40.19346 -73.59954L40.17416 -73.58786L40.13504 -73.57262L40.08018 -73.5584L39.95572 -73.55535L39.94759 -73.56348L39.92219 -73.56348L39.91711 -73.5716L39.90238 -73.5716L39.87444 -73.58735L39.86377 -73.58735L39.86072 -73.59294L39.82364 -73.61174L39.82364 -73.61834L39.81399 -73.61885L39.77538 -73.65288L39.70488 -73.65288L39.7388 -73.60056L39.78808 -73.54214L39.84548 -73.49439L39.89222 -73.4634L39.97858 -73.42327L40.037 -73.40701L40.12641 -73.39126L40.19448 -73.39126L40.26814 -73.40295L40.31487 -73.41514L40.37736 -73.44003L40.43426 -73.47153L40.48302 -73.50709L40.54652 -73.56957L40.56938 -73.60056L40.57446 -73.60462L40.61256 -73.66762L40.62577 -73.69454L40.6527 -73.76922L40.66895 -73.84491L40.66895 -73.96988L40.6527 -74.04303L40.63695 -74.09027L40.60698 -74.15072L40.57446 -74.19848L40.52671 -74.25436L40.47286 -74.31227L40.47693 -74.36002L40.67251 -75.24394L40.68267 -75.25054L40.73753 -75.24648L41.62399 -75.1337L41.63923 -75.12862L41.67327 -75.13777L41.69511 -75.15352L41.75658 -75.24445L41.93082 -75.4888L41.96892 -75.52842L42.00144 -75.54468L42.0497 -75.54163L42.11167 -75.51166L42.13555 -75.49489L42.17771 -75.45984L42.25239 -75.39278L42.33824 -75.28966L42.44492 -75.14691L42.49166 -75.0763L42.54398 -74.99045L42.57903 -74.92746L42.65371 -74.77912L42.69282 -74.68717L42.73245 -74.58303L42.77918 -74.43622L42.81424 -74.29144L42.82948 -74.21524L42.84878 -74.08824L42.85691 -74.01559L42.86859 -73.82002L42.86097 -73.69098L42.85335 -73.60259L42.8376 -73.4954L42.82186 -73.41514L42.80306 -73.3364L42.7802 -73.26426L42.7675 -73.26172L42.6278 -73.32878L42.61408 -73.18603L42.59478 -73.05497L42.57954 -72.98232L42.55262 -72.87259L42.50791 -72.7395L42.47743 -72.66736L42.47743 -72.66381L42.42663 -72.5556L42.35907 -72.4347L42.27322 -72.30668L42.19854 -72.21118L42.19244 -72.20915L41.88968 -72.6694L41.88256 -72.67651L41.86682 -72.66228L41.86682 -72.65568L41.83735 -72.5871L41.77385 -72.45807L41.70984 -72.3524L41.64431 -72.26249L41.58335 -72.18781L41.4655 -72.06996L41.36593 -71.9902L41.35221 -71.98106L41.34815 -71.97598L41.25417 -71.91349L41.17594 -71.86879L41.05859 -71.81138L41.00017 -71.78649L40.87672 -71.74128L40.80052 -71.71791L40.70045 -71.69251L40.56938 -71.66864L40.4754 -71.65746L40.28389 -71.64679L40.12692 -71.6534L40.02938 -71.66152L39.99229 -71.66152L39.99229 -71.65441L40.20515 -71.6031L40.28389 -71.58736L40.41698 -71.56805L40.6085 -71.55078L40.83964 -71.55535L40.92956 -71.56297L41.0784 -71.5838L41.15663 -71.59955L41.29125 -71.63409L41.41165 -71.6727L41.49902 -71.70826L41.50309 -71.70826L41.66514 -71.78598L41.81398 -71.87387L41.87088 -71.91248L41.99229 -71.63765L41.99229 -71.63409L42.03141 -71.54773L42.03141 -71.54418L42.0817 -71.43038L42.08932 -71.43038L42.21327 -71.5137L42.29557 -71.57618L42.40123 -71.66356L42.55871 -71.82002L42.61002 -71.87895L42.71924 -72.0156L42.81271 -72.15682L42.87215 -72.26046L42.91533 -72.34428L42.98188 -72.48906L43.02048 -72.59066L43.02709 -72.5932L43.2816 -72.40371L43.28566 -72.39863L43.40707 -72.30973L43.41063 -72.30516L43.43806 -72.28636L43.44365 -72.27824L43.45381 -72.28687L43.46346 -72.32091L43.4787 -72.41489L43.49496 -72.54392L43.51172 -72.76693L43.50715 -72.99807L43.49496 -73.14082L43.47565 -73.2917L43.46702 -73.33843L43.46295 -73.41717L43.47972 -73.45324L43.49699 -73.46848L43.54017 -73.49185L43.59402 -73.52436L43.66158 -73.57719L43.73168 -73.6478L43.75759 -73.68082L43.815 -73.76515L43.86681 -73.87081L43.8912 -73.93736L43.9105 -74.00188L43.93742 -74.1172L43.94606 -74.21118L43.93641 -74.34681L43.942 -74.39152L43.96943 -74.4479L44.00194 -74.48143L44.05833 -74.52817L44.05884 -74.53375L43.99838 -74.53934L43.93539 -74.53122L43.9039 -74.52309L43.83024 -74.4855L43.76572 -74.4225L43.73168 -74.3524L43.7073 -74.27417L43.67885 -74.13498L43.66564 -74.10196L43.64736 -74.07198L43.62602 -74.05065L43.60265 -74.03439L43.55338 -74.01712L43.47362 -74.01712L43.43857 -74.02982L43.40301 -74.05268L43.37456 -74.08214L43.35627 -74.1172L43.35322 -74.18324L43.36288 -74.23099L43.38675 -74.28941L43.41571 -74.33259L43.47768 -74.39152L43.68088 -74.54392L43.70425 -74.56322L43.75962 -74.61859L43.79874 -74.67701L43.81144 -74.70444L43.82719 -74.75169L43.8404 -74.8157L43.83582 -74.93558L43.80738 -75.216L43.81703 -75.26426L43.83125 -75.29779L43.86224 -75.34249L43.94708 -75.41971L43.94962 -75.42682L43.89374 -75.42682L43.8216 -75.41006L43.77486 -75.39431L43.7139 -75.36332L43.65955 -75.30947L43.62754 -75.26223L43.62246 -75.26223L43.5356 -75.4131L43.49546 -75.49896L43.47565 -75.55941L43.46397 -75.6163L43.46397 -75.73365L43.47565 -75.78852L43.49191 -75.84744L43.49597 -75.8698L43.47362 -75.86421L43.41774 -75.8383L43.37964 -75.80934L43.33748 -75.76921L43.3009 -75.71435L43.28261 -75.67117L43.26839 -75.6163L43.26788 -75.53045L43.2943 -75.42072L43.34256 -75.26629L43.38167 -75.11948L43.39183 -75.06309L43.38218 -74.994L43.36897 -74.95489L43.34256 -74.91526L43.31868 -74.89393L43.29328 -74.8797L43.24604 -74.86294L43.16272 -74.86294L43.10888 -74.88681L43.07078 -74.91577L43.04538 -74.94879L43.03318 -74.99146L43.03318 -75.01128L43.04385 -75.05293L43.09414 -75.17638L43.11548 -75.24851L43.12818 -75.30744L43.12818 -75.38923L43.11802 -75.42072L43.09465 -75.47051L43.03725 -75.53147L42.97273 -75.57465L42.9199 -75.60056L42.90822 -75.58531L42.84319 -75.45679L42.81728 -75.43546L42.78071 -75.42479L42.70248 -75.42479L42.66742 -75.43596L42.62272 -75.46594L42.58868 -75.5147L42.56379 -75.57363L42.55109 -75.62037L42.53585 -75.71028L42.49775 -76.00492L42.47794 -76.04861L42.3037 -76.24673L42.26458 -76.28788L42.26001 -76.28788L42.24985 -76.22336L42.24324 -76.11668L42.22394 -76.0862L42.19752 -76.06182L42.17416 -76.04607L42.12894 -76.02931L42.06951 -76.02931L42.02684 -76.05369L41.9801 -76.09687L41.93743 -76.16088L41.847 -76.35798L41.77944 -76.51648L41.75302 -76.55712L41.71238 -76.58404L41.4909 -76.71816L41.48226 -76.71816L41.51122 -76.54798L41.50614 -76.50124L41.48175 -76.44993L41.43806 -76.40675L41.40098 -76.38948L41.34662 -76.38948L41.30446 -76.40878L41.24248 -76.45857L41.18457 -76.52054L40.98239 -76.76438L40.95851 -76.7847L40.93311 -76.79537"></path><path d="M43.84344 -76.70241L43.8089 -76.66532L43.75454 -76.59878L43.73118 -76.56372L43.70019 -76.50124L43.68139 -76.44231L43.68139 -76.35494L43.70171 -76.28991L43.74083 -76.19593L43.78248 -76.0862L43.79569 -76.04302L43.81601 -75.93177L43.81601 -75.77937L43.82465 -75.77429L43.86072 -75.81239L43.92828 -75.90231L43.96333 -75.95717L43.98924 -76.03032L43.98873 -76.12125L43.97705 -76.16444L43.95774 -76.21524L43.94098 -76.25232L43.94098 -76.25638L43.90237 -76.34427L43.87088 -76.44993L43.85513 -76.54086L43.85513 -76.69326"></path><path d="M43.35272 -76.27315L43.33189 -76.24825L43.32122 -76.22692L43.29023 -76.18069L43.27398 -76.16088L43.22419 -76.10805L43.09008 -76.00696L43.05757 -75.9719L43.03674 -75.93177L43.02556 -75.89062L43.02556 -75.82662L43.04233 -75.73975L43.05452 -75.73975L43.08856 -75.79664L43.12615 -75.84744L43.19574 -75.91399L43.2308 -75.94193L43.28972 -75.98156L43.32528 -76.01305L43.35424 -76.05471L43.3705 -76.09789L43.3705 -76.19695"></path><path d="M36.19246 -75.29372L36.18382 -75.28306L36.18585 -73.42479L36.66134 -73.42276L36.66134 -74.23556L36.66642 -74.24064L36.69284 -74.20203L36.69284 -74.19695L36.70757 -74.17612L36.7477 -74.10703L36.75532 -74.09688L36.75532 -74.09129L36.77869 -74.05725L36.77869 -74.0542L36.91178 -73.83272L36.91178 -73.82916L36.93515 -73.79512L36.93515 -73.79106L36.97427 -73.72756L36.97427 -73.7235L36.99814 -73.68946L36.99814 -73.6859L37.05351 -73.59294L37.06571 -73.57922L37.1226 -73.57922L37.14597 -73.61529L37.5163 -74.2447L37.5224 -74.2447L37.5224 -73.42276L37.99789 -73.42479L37.99992 -75.28306L37.99128 -75.29372L37.62451 -75.29372L37.60876 -75.27645L37.60876 -75.27086L37.0967 -74.34834L37.08755 -74.34834L36.57447 -75.28763L36.56533 -75.29322"></path><path d="M35.02355 -75.29372L34.94125 -75.28255L34.89401 -75.26985L34.83 -75.23886L34.77666 -75.18501L34.75177 -75.13523L34.73907 -75.09611L34.73043 -75.05293L34.72915 -74.36815L35.20541 -74.36815L35.20744 -74.86091L35.51326 -74.86294L35.51834 -74.85786L35.51834 -74.36256L35.51377 -74.35037L35.20948 -74.35037L35.20541 -74.36815L34.72915 -74.36815L34.72789 -73.42276L35.21151 -73.42479L35.21354 -73.92365L35.51631 -73.92162L35.51834 -73.42276L35.99789 -73.42479L35.99789 -75.05293L35.9791 -75.1271L35.94811 -75.18857L35.89934 -75.23683L35.85311 -75.26121L35.80637 -75.27696L35.76726 -75.28559L35.72001 -75.29271"></path><path d="M33.31159 -75.29372L33.30651 -75.28509L33.60877 -74.47737L33.60877 -74.47178L33.53866 -74.47178L33.49701 -74.4606L33.44621 -74.43927L33.39846 -74.40574L33.35426 -74.35799L33.32734 -74.31125L33.31413 -74.27417L33.30346 -74.23099L33.30346 -73.42276L33.7825 -73.42479L33.78657 -74.09383L34.05479 -74.09586L34.05682 -73.42479L34.53993 -73.42276L34.53993 -75.28814L34.53485 -75.29372L34.06394 -75.29372L34.05479 -75.28407L34.05479 -74.52207L34.04514 -74.52512L33.80384 -75.24089L33.79673 -75.25613L33.78657 -75.28763L33.77895 -75.29322"></path><path d="M32.07105 -75.29372L32.05886 -75.28864L32.05886 -74.86294L32.66135 -74.86294L32.66135 -74.581L32.07105 -74.581L32.05886 -74.57643L32.05886 -74.1553L32.07105 -74.15072L32.66135 -74.15072L32.66135 -73.85303L32.05886 -73.85303L32.05886 -73.42276L33.14649 -73.42276L33.14649 -75.28814L33.14141 -75.29372"></path><path d="M36.1442 -73.15657L35.65347 -73.15453L35.65144 -70.72985L36.26612 -70.72985L36.26612 -71.79106L36.27526 -71.78852L36.36365 -71.6407L36.36365 -71.63765L36.38753 -71.6031L36.38753 -71.59955L36.42664 -71.53554L36.42664 -71.53198L36.45001 -71.49744L36.45001 -71.49439L36.58311 -71.2729L36.58311 -71.26935L36.60648 -71.23531L36.60648 -71.23023L36.62121 -71.2094L36.77208 -70.9549L36.78732 -70.93356L36.86149 -70.93356L36.88029 -70.95439L36.88029 -70.95998L37.17137 -71.45223L37.37508 -71.80224L37.38168 -71.80224L37.38168 -70.72985L37.99992 -70.72985L37.99992 -73.14742L37.99078 -73.15657L37.51173 -73.15657L37.50411 -73.14692L37.41267 -72.98385L37.41267 -72.9808L36.83254 -71.9333L36.82492 -71.92365L36.81882 -71.92365L36.81425 -71.93737L36.15944 -73.13523"></path><path d="M32.47542 -73.15657L32.35807 -73.14488L32.29559 -73.13015L32.25647 -73.11694L32.20923 -73.09307L32.18586 -73.07681L32.13608 -73.02957L32.11423 -72.99756L32.09086 -72.95134L32.07766 -72.91171L32.0614 -72.82586L32.0611 -71.42073L32.68472 -71.42073L32.68675 -72.4855L32.70199 -72.52716L32.73602 -72.56525L32.76498 -72.58303L32.79241 -72.59269L33.084 -72.5932L33.084 -71.2856L32.78835 -71.28764L32.73907 -71.3105L32.70758 -71.34656L32.69386 -71.374L32.68472 -71.42073L32.0611 -71.42073L32.06089 -71.06056L32.07359 -70.99046L32.08375 -70.9549L32.10712 -70.90003L32.14624 -70.84314L32.18129 -70.81215L32.23463 -70.77709L32.23869 -70.77709L32.27171 -70.76186L32.32302 -70.74662L32.3601 -70.73798L32.38703 -70.73798L32.3916 -70.72985L33.71037 -70.72985L33.71037 -73.15149L33.70529 -73.15657"></path><path d="M34.26409 -73.15606L34.1508 -73.14488L34.10153 -73.13371L34.0487 -73.11694L34.00196 -73.09307L33.97453 -73.07275L33.93389 -73.03465L33.90188 -72.98537L33.87598 -72.9239L33.85921 -72.84415L33.85921 -72.5932L34.87674 -72.5932L34.87674 -71.2856L34.48507 -71.2856L34.48507 -72.5932L33.85921 -72.5932L33.85921 -71.03465L33.87598 -70.9549L33.89833 -70.90054L33.91763 -70.86803L33.95218 -70.82536L33.99383 -70.79335L34.0299 -70.77354L34.08019 -70.75474L34.10762 -70.74662L34.19754 -70.72934L35.18001 -70.73239L35.2425 -70.74509L35.28568 -70.75627L35.32632 -70.77252L35.36645 -70.79437L35.41725 -70.83602L35.45281 -70.88479L35.4716 -70.92137L35.49142 -70.9803L35.50259 -71.04481L35.50259 -72.83551L35.48583 -72.91984L35.45992 -72.98131L35.42741 -73.0316L35.37102 -73.08443L35.30904 -73.11644L35.26231 -73.13218L35.20338 -73.1459L35.1094 -73.15555"></path><path d="M22.50897 -77.68742L22.31491 -77.68132L20.74621 -77.39938L20.73452 -77.39227L20.73452 -76.56169L20.75637 -76.55306L21.86432 -76.71714L21.88565 -76.71714L21.87448 -76.17002L21.85263 -76.15275L21.74798 -76.14208L21.21204 -76.07249L21.07234 -76.03998L20.94026 -75.98562L20.83612 -75.91653L20.75637 -75.82814L20.70506 -75.72705L20.67255 -75.62088L20.65477 -75.51775L20.65782 -74.35443L20.67864 -74.23607L20.70607 -74.16647L20.75535 -74.08875L20.81936 -74.03084L20.91334 -73.98359L21.04898 -73.94956L21.32076 -73.95108L22.76348 -74.02931L22.77465 -74.04201L22.80158 -74.57795L22.81021 -74.83805L21.56155 -74.73848L21.54783 -74.74712L21.55545 -75.28153L21.56917 -75.29525L22.12086 -75.35062L22.25294 -75.36738L22.36927 -75.39024L22.47036 -75.42072L22.61311 -75.49032L22.70556 -75.56753L22.7777 -75.66101L22.81631 -75.74838L22.85441 -75.87996L22.87016 -76.05318L22.8854 -76.47279L22.91842 -77.13268L22.91029 -77.32674L22.88438 -77.42783L22.83917 -77.52181L22.78176 -77.58938L22.70302 -77.63865L22.63343 -77.66659"></path><path d="M20.57806 -77.36941L18.88998 -77.06614L18.79193 -77.04328L18.67255 -76.99451L18.59076 -76.94218L18.51964 -76.87665L18.47342 -76.8101L18.4282 -76.69987L18.40331 -76.56677L18.40382 -76.41844L18.40966 -76.30972L19.19833 -76.30972L19.21154 -76.32344L19.72411 -76.39913L19.73275 -76.3844L19.75713 -75.40345L19.75053 -75.39685L19.24304 -75.34046L19.23338 -75.35011L19.19833 -76.30972L18.40966 -76.30972L18.47545 -75.0824L18.48967 -74.92746L18.51406 -74.835L18.56079 -74.73746L18.63394 -74.66228L18.70506 -74.62062L18.828 -74.58862L19.02968 -74.58913L19.76018 -74.65009L19.77034 -74.64348L19.77898 -74.5622L19.7871 -74.15834L19.79726 -73.87488L20.59838 -73.91552L20.61616 -73.92974L20.61159 -74.16647L20.60193 -76.66685L20.59533 -77.14081L20.59482 -77.36941"></path><path d="M11.23492 -76.88834L11.14755 -76.83957L11.08964 -76.80045L11.08964 -76.78369L11.20952 -76.60741L11.33398 -76.41691L11.68196 -75.89977L11.71041 -75.95514L11.79423 -76.04607L11.74394 -76.13142L11.621 -76.30972L11.55903 -76.40777L11.38631 -76.66075L11.367 -76.69682"></path><path d="M17.98929 -76.87259L17.77187 -76.867L16.41297 -76.62164L16.39366 -76.6069L16.40078 -76.57388L16.45434 -76.01407L17.13484 -76.01407L17.52346 -76.07198L17.57273 -76.08112L17.58137 -76.06741L17.63572 -75.29982L17.64385 -75.24343L17.62455 -75.2287L17.43811 -75.21041L17.25168 -75.18806L17.19325 -75.18755L17.19325 -75.25258L17.17852 -75.38567L17.13839 -75.87488L17.13484 -76.01407L16.45434 -76.01407L16.47088 -75.83576L16.4785 -75.78953L16.49425 -75.59497L16.54098 -75.13675L16.55673 -74.95844L16.68119 -73.71689L16.6883 -73.70978L17.19732 -73.73518L17.30959 -73.74432L17.31568 -73.75448L17.26285 -74.37577L17.2532 -74.50937L17.26692 -74.51801L17.68297 -74.55255L17.69008 -74.54595L17.74596 -73.77785L17.75764 -73.76617L18.42871 -73.80071L18.44548 -73.81087L18.4277 -74.08875L18.31086 -76.17002L18.2885 -76.5114L18.25752 -76.63332L18.2118 -76.72882L18.15693 -76.79334L18.0787 -76.84312"></path><path d="M12.86408 -76.6638L12.3317 -76.12227L12.3317 -76.10602L12.39774 -76.07655L12.48765 -76.01864L12.49476 -76.01864L12.84122 -76.3717L12.99565 -76.53223L12.99565 -76.54442"></path><path d="M16.0401 -76.5307L15.86941 -76.52512L14.90624 -76.35087L14.89456 -76.3397L14.97431 -75.72705L14.9865 -75.69504L15.72056 -75.80172L15.73174 -75.78953L15.8181 -75.05141L15.82724 -74.9427L15.8496 -74.77963L15.87347 -74.53884L15.89532 -74.37577L15.90497 -74.28839L15.82267 -74.27874L15.24863 -74.23251L15.1831 -74.23251L15.17548 -74.22032L15.25066 -73.64831L15.26489 -73.63358L16.16456 -73.68082L16.25752 -73.68997L16.34286 -73.71384L16.40484 -73.74534L16.45412 -73.78242L16.49577 -73.84592L16.52625 -73.9333L16.53539 -74.06131L16.32305 -76.17764L16.30121 -76.27061L16.27073 -76.35798L16.22856 -76.42453L16.1798 -76.47025L16.12544 -76.50683"></path><path d="M14.76146 -76.32649L14.61871 -76.29855L13.82674 -76.15681L13.59408 -76.11719L13.57528 -76.09992L13.66977 -75.51775L13.68704 -75.50048L13.95882 -75.54315L14.28496 -75.59141L14.3195 -75.59141L14.32712 -75.55636L14.3764 -75.20228L14.36268 -75.18908L13.75105 -75.11084L13.73835 -75.09814L13.81455 -74.63231L13.82471 -74.55103L13.84249 -74.52817L14.44752 -74.58964L14.4658 -74.58303L14.48409 -74.47686L14.52676 -74.18527L14.51 -74.17206L14.37843 -74.16393L13.91615 -74.12837L13.89735 -74.11669L13.98524 -73.57719L13.99743 -73.56652L15.13535 -73.6285L15.13535 -73.6539L15.02664 -74.44587L14.97228 -74.88072L14.95755 -74.95844L14.87932 -75.56042L14.77619 -76.31734"></path><path d="M12.12392 -75.79309L12.04061 -75.74991L11.99184 -75.67726L11.98067 -75.61325L11.99083 -75.54569L12.03502 -75.48067L12.10005 -75.43647L12.16761 -75.42682L12.23111 -75.43749L12.30477 -75.48625L12.34744 -75.57058L12.34744 -75.64018L12.32865 -75.70368L12.25804 -75.77429L12.20368 -75.79156"></path><path d="M10.52017 -75.71689L10.53134 -75.55077L10.53846 -75.53299L11.6718 -75.52436L11.6718 -75.53401L11.64996 -75.61072L11.63929 -75.70724L11.54379 -75.71181"></path><path d="M12.67968 -75.70012L12.69136 -75.65745L12.6939 -75.51775L13.4366 -75.51318L13.42593 -75.67828L13.41882 -75.69606"></path><path d="M11.70127 -75.46136L11.43558 -75.18349L10.95349 -74.68971L11.09472 -74.56627L11.80795 -75.29728L11.81252 -75.311L11.72667 -75.41209"></path><path d="M12.38351 -75.16571L12.34338 -75.15809L12.19606 -75.13828L12.19098 -75.13472L12.2494 -75.04379L12.39926 -74.82636L12.40586 -74.80909L12.7132 -74.34884L12.73606 -74.34884L12.87627 -74.42809L12.8717 -74.44079L12.70457 -74.68666L12.40028 -75.14488"></path><path d="M12.19606 -74.52004L12.10919 -74.51344L12.06195 -74.48905L12.01318 -74.44028L11.98676 -74.39152L11.98626 -74.28179L12.0335 -74.20559L12.10665 -74.15987L12.18438 -74.15275L12.25804 -74.17308L12.32865 -74.24369L12.34744 -74.3077L12.34744 -74.37577L12.31036 -74.45552L12.25448 -74.4982"></path><path d="M12.13967 -73.57211L12.0716 -73.54824L12.00607 -73.48423L11.9827 -73.41412L11.98321 -73.35875L12.00404 -73.30033L12.04671 -73.24394L12.13104 -73.20534L12.2306 -73.21194L12.29664 -73.25817L12.34135 -73.32167L12.34948 -73.42428L12.30731 -73.51014L12.25448 -73.55078L12.19606 -73.5716"></path><path d="M22.7081 -73.36739L22.04313 -73.34707L21.53818 -73.33843L21.2984 -73.32218L21.15007 -73.28509L20.99106 -73.20534L20.88134 -73.10424L20.81377 -73.00925L20.76754 -72.91578L20.71979 -72.78065L20.68779 -72.61555L20.67204 -72.39558L20.68068 -72.24014L20.69567 -72.08266L21.34666 -72.08266L21.36343 -72.23252L21.3868 -72.32599L21.4508 -72.4535L21.56917 -72.56678L21.67788 -72.62317L21.79828 -72.66533L21.81352 -72.62875L21.85416 -72.45756L22.14778 -71.26935L22.16505 -71.21804L22.15642 -71.20991L22.11171 -71.24141L21.78253 -71.4126L21.64689 -71.501L21.52497 -71.61885L21.45639 -71.71486L21.39594 -71.84542L21.37105 -71.92975L21.34666 -72.08266L20.69567 -72.08266L20.71878 -71.92975L20.76704 -71.7743L20.80564 -71.68134L20.87524 -71.53808L20.9809 -71.37806L21.09673 -71.24649L21.21204 -71.1393L21.33092 -71.04888L21.48382 -70.95236L21.717 -70.83958L21.8694 -70.7837L22.05786 -70.72934L22.24481 -70.69175L22.40026 -70.66788L23.46248 -70.59015L23.52649 -70.59066L23.50058 -70.60539L22.84272 -70.84009L22.80869 -70.84822L22.7904 -70.86955L22.71522 -71.23074L22.35657 -72.91273L22.34895 -72.93356L22.71572 -73.35469"></path><path d="M16.64512 -73.36231L16.4592 -73.33843L16.37385 -73.31506L16.28089 -73.28204L16.1483 -73.21651L16.01673 -73.11999L15.87347 -72.97318L15.76374 -72.80909L15.71701 -72.71664L15.67078 -72.59777L15.63319 -72.44994L15.61388 -72.31786L15.6146 -72.12685L16.30781 -72.12685L16.30781 -72.2503L16.33829 -72.42708L16.37995 -72.55865L16.44548 -72.69937L16.53895 -72.84821L16.62938 -72.96251L16.71523 -73.05192L16.72589 -73.05192L17.32127 -72.13142L17.31721 -71.89876L17.30044 -71.4695L16.9357 -71.0565L16.92046 -71.03719L16.89455 -71.05396L16.71066 -71.27748L16.55013 -71.51827L16.46885 -71.66559L16.38757 -71.8444L16.3322 -72.00747L16.30781 -72.12685L15.6146 -72.12685L15.6149 -72.04608L15.63319 -71.914L15.66214 -71.7743L15.71904 -71.60361L15.81759 -71.40143L15.91157 -71.26122L16.03451 -71.11339L16.19656 -70.95896L16.34286 -70.85482L16.52168 -70.76186L16.669 -70.71309L16.85543 -70.67296L17.12722 -70.67296L17.28622 -70.70648L17.3802 -70.73798L17.51126 -70.79843L17.65503 -70.89698L17.79524 -71.03821L17.88566 -71.1647L17.95424 -71.28408L18.01012 -71.41718L18.05381 -71.58786L18.07768 -71.77278L18.07006 -71.9841L18.0472 -72.13955L18.01622 -72.27163L17.97608 -72.39558L17.92173 -72.52766L17.85874 -72.644L17.7678 -72.77963L17.65401 -72.91578L17.52346 -73.04074L17.39188 -73.14082L17.24456 -73.23023L17.08048 -73.29931L16.92503 -73.33843L16.76247 -73.36078"></path><path d="M15.8435 -73.28103L15.76832 -73.27747L14.56436 -73.25563L14.29258 -73.25614L14.14526 -73.23734L14.00556 -73.20483L13.87094 -73.15403L13.80337 -73.11948L13.71295 -73.05802L13.60728 -72.95845L13.53007 -72.84618L13.49705 -72.78065L13.46657 -72.69835L13.4493 -72.6313L13.4384 -72.56627L13.92021 -72.56627L13.96034 -72.65212L14.04416 -72.73442L14.15288 -72.78624L14.25397 -72.81672L14.33169 -72.83653L14.61109 -72.84313L14.6304 -72.82992L14.56588 -72.13346L14.40942 -72.14412L14.27734 -72.16546L14.17472 -72.18883L14.0716 -72.22794L14.00556 -72.26655L13.95577 -72.31786L13.92326 -72.39203L13.92021 -72.56627L13.4384 -72.56627L13.41932 -72.44994L13.41932 -72.36256L13.45641 -72.21575L13.50416 -72.12075L13.60119 -72.01712L13.68704 -71.95921L13.78 -71.91248L13.90446 -71.87184L14.00657 -71.84847L14.18386 -71.82256L14.56131 -71.82103L14.55318 -71.78192L14.51813 -71.37196L14.49476 -71.35875L14.24889 -71.24242L14.24432 -71.24242L14.08328 -71.16673L14.04721 -71.15556L14.05331 -71.13778L15.60118 -71.00773L15.60118 -71.02195L15.55089 -71.05903L15.18564 -71.35317L15.15414 -71.3872L15.2593 -72.68311L15.28978 -73.03058L15.30248 -73.04278L15.86128 -73.26985"></path><path d="M20.73452 -73.27544L20.5364 -73.26934L19.6281 -73.25156L18.92096 -73.2475L18.74113 -73.22261L18.59483 -73.18552L18.44751 -73.12558L18.33372 -73.04887L18.2504 -72.96708L18.18944 -72.87717L18.15033 -72.79944L18.11883 -72.69683L18.09953 -72.53884L18.10537 -72.48296L18.65884 -72.48296L18.6695 -72.56729L18.71472 -72.64653L18.78228 -72.7014L18.89861 -72.75677L19.05304 -72.79741L19.39848 -72.80503L19.4122 -72.76846L19.45335 -72.34529L19.48383 -72.05472L19.4691 -72.04557L19.25218 -72.06437L19.06727 -72.09637L18.92909 -72.136L18.80463 -72.19543L18.73046 -72.26147L18.69389 -72.32599L18.65884 -72.48296L18.10537 -72.48296L18.11832 -72.36459L18.16252 -72.23201L18.22094 -72.13142L18.29866 -72.03338L18.40788 -71.93889L18.52523 -71.86218L18.68068 -71.78802L18.78126 -71.75449L18.8026 -71.74128L18.62074 -71.19569L18.60092 -71.17638L18.16455 -70.92797L18.16912 -70.91222L19.304 -70.89089L19.32635 -70.89952L19.36953 -71.69251L19.38731 -71.70674L19.53615 -71.7174L19.65502 -70.97623L19.67026 -70.95794L20.90064 -70.83094L20.90674 -70.83755L20.87829 -70.86092L20.31542 -71.2343L20.3078 -71.26935L20.15998 -72.74509L20.15286 -72.78725L20.40432 -72.99452L20.73452 -73.26274"></path><path d="M12.12596 -72.83399L10.92657 -71.07529L11.00429 -71.07072L13.40713 -71.1266L13.41272 -71.1327L12.13408 -72.83399"></path><circle cx="49.35479" cy="-68.14624" r="0.8008"></circle><circle cx="44.27479" cy="-68.14624" r="0.8008"></circle><rect x="48.5193915" y="-45.932598" width="1.703197" height="2.2031959999999997" rx="0.8515985" ry="0.8515985"></rect><rect x="46.019271499999995" y="-45.932598" width="1.703197" height="2.2031959999999997" rx="0.8515985" ry="0.8515985"></rect><rect x="43.5194015" y="-45.932598" width="1.703197" height="2.2031959999999997" rx="0.8515985" ry="0.8515985"></rect><circle cx="43.00474" cy="-55.21705" r="0.9906"></circle><circle cx="50.62474" cy="-55.21705" r="0.9906"></circle><rect x="49.622202" y="-52.882799999999996" width="2.1015960000000002" height="1.6256000000000002" rx="0.8128000000000001" ry="0.8128000000000001"></rect><rect x="49.622202" y="-50.3428" width="2.1015960000000002" height="1.6256000000000002" rx="0.8128000000000001" ry="0.8128000000000001"></rect><rect x="42.002202" y="-52.882799999999996" width="2.1015960000000002" height="1.6256000000000002" rx="0.8128000000000001" ry="0.8128000000000001"></rect><rect x="42.002202" y="-50.3428" width="2.1015960000000002" height="1.6256000000000002" rx="0.8128000000000001" ry="0.8128000000000001"></rect><circle cx="50.62481" cy="-64.48259" r="0.9906"></circle><circle cx="43.00481" cy="-64.48259" r="0.9906"></circle><circle cx="50.54602" cy="-61.4681" r="0.9906"></circle><circle cx="42.92602" cy="-61.4681" r="0.9906"></circle><polygon points="23.427500000000002,-43.0835 23.368000000000002,-43.143 23.368000000000002,-46.519000000000005 23.427500000000002,-46.578500000000005 25.3405,-46.578500000000005 25.4,-46.519000000000005 25.4,-43.143 25.3405,-43.0835 23.427500000000002,-43.0835"></polygon><polygon points="25.9675,-43.0835 25.908,-43.143 25.908,-46.519000000000005 25.9675,-46.578500000000005 27.880499999999998,-46.578500000000005 27.939999999999998,-46.519000000000005 27.939999999999998,-43.143 27.880499999999998,-43.0835 25.9675,-43.0835"></polygon><polygon points="8.1875,-65.9435 8.128,-66.003 8.128,-69.379 8.1875,-69.4385 10.1005,-69.4385 10.16,-69.379 10.16,-66.003 10.1005,-65.9435 8.1875,-65.9435"></polygon><polygon points="10.7275,-65.9435 10.668,-66.003 10.668,-69.379 10.7275,-69.4385 12.6405,-69.4385 12.7,-69.379 12.7,-66.003 12.6405,-65.9435 10.7275,-65.9435"></polygon><polygon points="13.2675,-65.9435 13.208,-66.003 13.208,-69.379 13.2675,-69.4385 15.1805,-69.4385 15.24,-69.379 15.24,-66.003 15.1805,-65.9435 13.2675,-65.9435"></polygon><polygon points="15.8075,-65.9435 15.748,-66.003 15.748,-69.379 15.8075,-69.4385 17.720499999999998,-69.4385 17.78,-69.379 17.78,-66.003 17.720499999999998,-65.9435 15.8075,-65.9435"></polygon><polygon points="18.3475,-65.9435 18.287999999999997,-66.003 18.287999999999997,-69.379 18.3475,-69.4385 20.260499999999997,-69.4385 20.32,-69.379 20.32,-66.003 20.260499999999997,-65.9435 18.3475,-65.9435"></polygon><polygon points="20.887500000000003,-65.9435 20.828000000000003,-66.003 20.828000000000003,-69.379 20.887500000000003,-69.4385 22.8005,-69.4385 22.86,-69.379 22.86,-66.003 22.8005,-65.9435 20.887500000000003,-65.9435"></polygon><polygon points="23.427500000000002,-65.9435 23.368000000000002,-66.003 23.368000000000002,-69.379 23.427500000000002,-69.4385 25.3405,-69.4385 25.4,-69.379 25.4,-66.003 25.3405,-65.9435 23.427500000000002,-65.9435"></polygon><polygon points="25.9675,-65.9435 25.908,-66.003 25.908,-69.379 25.9675,-69.4385 27.880499999999998,-69.4385 27.939999999999998,-69.379 27.939999999999998,-66.003 27.880499999999998,-65.9435 25.9675,-65.9435"></polygon><polygon points="8.1875,-43.0835 8.128,-43.143 8.128,-46.519000000000005 8.1875,-46.578500000000005 10.1005,-46.578500000000005 10.16,-46.519000000000005 10.16,-43.143 10.1005,-43.0835 8.1875,-43.0835"></polygon><polygon points="10.7275,-43.0835 10.668,-43.143 10.668,-46.519000000000005 10.7275,-46.578500000000005 12.6405,-46.578500000000005 12.7,-46.519000000000005 12.7,-43.143 12.6405,-43.0835 10.7275,-43.0835"></polygon><polygon points="13.2675,-43.0835 13.208,-43.143 13.208,-46.519000000000005 13.2675,-46.578500000000005 15.1805,-46.578500000000005 15.24,-46.519000000000005 15.24,-43.143 15.1805,-43.0835 13.2675,-43.0835"></polygon><polygon points="15.8075,-43.0835 15.748,-43.143 15.748,-46.519000000000005 15.8075,-46.578500000000005 17.720499999999998,-46.578500000000005 17.78,-46.519000000000005 17.78,-43.143 17.720499999999998,-43.0835 15.8075,-43.0835"></polygon><polygon points="18.3475,-43.0835 18.287999999999997,-43.143 18.287999999999997,-46.519000000000005 18.3475,-46.578500000000005 20.260499999999997,-46.578500000000005 20.32,-46.519000000000005 20.32,-43.143 20.260499999999997,-43.0835 18.3475,-43.0835"></polygon><polygon points="20.887500000000003,-43.0835 20.828000000000003,-43.143 20.828000000000003,-46.519000000000005 20.887500000000003,-46.578500000000005 22.8005,-46.578500000000005 22.86,-46.519000000000005 22.86,-43.143 22.8005,-43.0835 20.887500000000003,-43.0835"></polygon><polygon points="2.0918900000000002,-9.62618 2.06219,-9.65598 2.06219,-14.698080000000001 2.0918900000000002,-14.727780000000001 5.13399,-14.727780000000001 5.16379,-14.698080000000001 5.16379,-9.65598 5.13399,-9.62618 2.0918900000000002,-9.62618"></polygon><rect x="2.0621929999999997" y="-25.649774999999998" width="3.101594" height="5.10159" rx="1.550797" ry="1.550797"></rect><rect x="2.0621929999999997" y="-36.698775" width="3.101594" height="5.10159" rx="1.550797" ry="1.550797"></rect><rect x="50.195192999999996" y="-36.698775" width="3.101594" height="5.10159" rx="1.550797" ry="1.550797"></rect><rect x="50.195192999999996" y="-25.649774999999998" width="3.101594" height="5.10159" rx="1.550797" ry="1.550797"></rect><rect x="50.195192999999996" y="-14.727775" width="3.101594" height="5.10159" rx="1.550797" ry="1.550797"></rect><circle cx="50.673" cy="-58.293" r="0.9906"></circle><circle cx="43.053" cy="-58.293" r="0.9906"></circle><rect x="21.8748838" y="-11.5501096" width="2.8500324000000004" height="3.1000192" rx="1.4250162000000002" ry="1.4250162000000002"></rect><rect x="30.6749638" y="-11.5501096" width="2.8500324000000004" height="3.1000192" rx="1.4250162000000002" ry="1.4250162000000002"></rect><circle cx="25.20007" cy="-2.99986" r="0.9"></circle><circle cx="27.69994" cy="-2.99986" r="0.9"></circle><circle cx="30.20006" cy="-2.99986" r="0.9"></circle><circle cx="31.49701" cy="-79.75625" r="0.8758"></circle><circle cx="28.95701" cy="-79.75625" r="0.8758"></circle><circle cx="26.41701" cy="-79.75625" r="0.8758"></circle><circle cx="23.87701" cy="-79.75371" r="0.8758"></circle><circle cx="33.93592" cy="-28.615" r="1.3008"></circle><circle cx="21.43607" cy="-28.615" r="1.3008"></circle><circle cx="33.93592" cy="-33.61499" r="1.3008"></circle><circle cx="21.43607" cy="-33.61499" r="1.3008"></circle><circle cx="4.064" cy="-41.783" r="0.9906"></circle><circle cx="11.684" cy="-41.783" r="0.9906"></circle><rect x="21.400422499999998" y="-5.550784999999999" width="2.601595" height="5.10159" rx="1.3007975" ry="1.3007975"></rect><rect x="26.3991425" y="-5.550784999999999" width="2.601595" height="5.10159" rx="1.3007975" ry="1.3007975"></rect><rect x="31.4004025" y="-5.550784999999999" width="2.601595" height="5.10159" rx="1.3007975" ry="1.3007975"></rect><rect x="25.4352044" y="-27.974798" width="4.5015912" height="2.101596" rx="1.050798" ry="1.050798"></rect><rect x="25.4352044" y="-36.610798" width="4.5015912" height="2.101596" rx="1.050798" ry="1.050798"></rect></svg>