<svg xmlns="http://www.w3.org/2000/svg" viewBox="0.10652 -82.46386 54.999939999999995 82.49987"><path d="M0.36576 -80.09534L0.37033 -80.58353L0.4003 -80.80756L0.4572 -81.0199L0.53949 -81.22107L0.64465 -81.40801L0.77216 -81.58073L0.91897 -81.73567L1.08407 -81.87181L1.26492 -81.98713L1.4605 -82.08009L1.66776 -82.14817L1.88569 -82.18982L2.11836 -82.20456L53.22773 -82.19948L53.45023 -82.17001L53.66258 -82.11312L53.86324 -82.03082L54.05069 -81.92566L54.2229 -81.79866L54.37835 -81.65134L54.51449 -81.48624L54.62981 -81.3054L54.72277 -81.11032L54.79084 -80.90255L54.8325 -80.68462L54.84723 -80.45196L54.84723 -2.33222L54.84266 -1.84404L54.81269 -1.62001L54.75579 -1.40766L54.6735 -1.207L54.56834 -1.01955L54.44083 -0.84734L54.29402 -0.6924L54.12892 -0.55575L53.94807 -0.44043L53.75249 -0.34798L53.54523 -0.2799L53.3273 -0.23774L53.09463 -0.22301L33.44672 -0.22301L33.40354 -0.23266L33.36696 -0.26314L33.35985 -0.25298L33.32683 -0.23063L33.28822 -0.22301L32.11423 -0.22301L32.07562 -0.23063L32.03397 -0.25958L31.99892 -0.23266L31.95574 -0.22301L28.44546 -0.22301L28.40228 -0.23266L28.36722 -0.25958L28.3469 -0.29921L28.34589 -0.3434L28.36316 -0.38404L28.39618 -0.41351L28.50286 -0.47244L28.64053 -0.57048L28.76702 -0.68326L28.8798 -0.80924L28.97733 -0.94742L29.05963 -1.09524L29.12414 -1.25171L29.17088 -1.41427L29.19933 -1.58089L29.20898 -1.7526L29.20898 -2.18135L29.21711 -2.22046L29.23895 -2.25348L29.27248 -2.27584L29.3116 -2.28295L29.35071 -2.27482L29.38373 -2.25196L29.45434 -2.17881L29.5656 -2.09042L29.68701 -2.01676L29.71139 -2.00609L29.71139 -2.3125941161078463L29.599019235991435 -2.398819235991435L29.512517878392178 -2.51155L29.31058 -2.51155L29.27197 -2.51917L29.23895 -2.54101L29.2166 -2.57403L29.20898 -2.61315L29.20898 -3.38683L29.2166 -3.42544L29.23895 -3.45846L29.27197 -3.48081L29.31058 -3.48843L29.51271738340905 -3.48843L29.599019235991435 -3.600900764008565L29.71139 -3.6871258838921532L29.71139 -3.99389L29.68701 -3.98322L29.5656 -3.90956L29.45434 -3.82066L29.38373 -3.74751L29.35071 -3.72516L29.3116 -3.71652L29.27248 -3.72414L29.23895 -3.74599L29.21711 -3.77901L29.20898 -3.81812L29.20898 -4.24738L29.19933 -4.41909L29.17088 -4.58571L29.12414 -4.74827L29.05963 -4.90474L28.97733 -5.05256L28.8798 -5.19074L28.76702 -5.31672L28.64053 -5.4295L28.50286 -5.52754L28.35452 -5.60933L28.19806 -5.67436L28.0355 -5.72109L27.86888 -5.74954L27.69971 -5.75868L27.53106 -5.74954L27.36392 -5.72109L27.20136 -5.67436L27.04541 -5.60933L26.89707 -5.52754L26.7589 -5.4295L26.63291 -5.31672L26.52014 -5.19074L26.42209 -5.05256L26.3403 -4.90474L26.27579 -4.74827L26.22905 -4.58571L26.2006 -4.41909L26.19095 -4.24738L26.19095 -3.81914L26.18282 -3.77901L26.15895 -3.74548L26.1244 -3.72364L26.08376 -3.71754L26.04414 -3.72821L26.01214 -3.7531L25.99639 -3.77139L25.89123 -3.86689L25.7749 -3.94817L25.64892 -4.0137L25.51531 -4.06298L25.37714 -4.09448L25.2354 -4.10819L25.09367 -4.10362L24.95296 -4.08076L24.81681 -4.04063L24.68727 -3.98322L24.56535 -3.90956L24.45461 -3.82066L24.38501 -3.74904L24.35199 -3.72618L24.31288 -3.71805L24.27376 -3.72567L24.24023 -3.74751L24.21839 -3.78053L24.21026 -3.81965L24.21026 -4.24738L24.20061 -4.41909L24.17216 -4.58571L24.12542 -4.74827L24.06091 -4.90474L23.97861 -5.05256L23.88108 -5.19074L23.7683 -5.31672L23.64181 -5.4295L23.50414 -5.52754L23.3558 -5.60933L23.19934 -5.67436L23.03678 -5.72109L22.87016 -5.74954L22.70099 -5.75868L22.53234 -5.74954L22.3652 -5.72109L22.20264 -5.67436L22.04669 -5.60933L21.89835 -5.52754L21.76018 -5.4295L21.63419 -5.31672L21.52142 -5.19074L21.42337 -5.05256L21.34158 -4.90474L21.27707 -4.74827L21.23033 -4.58571L21.20188 -4.41909L21.19223 -4.24738L21.19223 -1.7526L21.20188 -1.58089L21.23033 -1.41427L21.27707 -1.25171L21.34158 -1.09524L21.42337 -0.94742L21.52142 -0.80924L21.63419 -0.68326L21.76018 -0.57048L21.89835 -0.47244L22.00452 -0.41351L22.03805 -0.38404L22.05532 -0.3434L22.0538 -0.29921L22.03399 -0.25958L21.99894 -0.23266L21.95576 -0.22301L2.34696 -0.22301L1.98729 -0.22809L1.76276 -0.25806L1.55041 -0.31495L1.34975 -0.39674L1.1623 -0.50241L0.99009 -0.62941L0.83464 -0.77673L0.6985 -0.94132L0.58318 -1.12268L0.49022 -1.31775L0.42214 -1.52501L0.38049 -1.74345L0.36576 -1.97561ZM21.4512225 -4.2499875L21.49381513195323 -4.5735106593305375L21.61869041033296 -4.874986249999999L21.817338291283768 -5.133869208716231L22.07622125 -5.332517089667038L22.37769684066946 -5.457392368046769L22.70122 -5.499985L23.024743159330537 -5.457392368046769L23.32621875 -5.332517089667038L23.58510170871623 -5.133869208716231L23.78374958966704 -4.874986249999999L23.90862486804677 -4.5735106593305375L23.9512175 -4.2499875L23.9512175 -3.1269600000000004L24.366803032443357 -3.1269600000000004L24.379033047654293 -3.2198561883371424L24.463948406783228 -3.4248600000000002L24.599029235991434 -3.600900764008565L24.77507 -3.7359815932167724L24.98007381166286 -3.820896952345708L25.20007 -3.84986L25.42006618833714 -3.820896952345708L25.62507 -3.7359815932167724L25.801110764008566 -3.600900764008565L25.936191593216773 -3.4248600000000002L26.021106952345708 -3.2198561883371424L26.05007 -2.99986L26.021106952345708 -2.7798638116628576L25.936191593216773 -2.57486L25.801110764008566 -2.398819235991435L25.62507 -2.263738406783227L25.42006618833714 -2.178823047654292L25.20007 -2.14986L24.98007381166286 -2.178823047654292L24.77507 -2.263738406783227L24.599029235991434 -2.398819235991435L24.463948406783228 -2.57486L24.379033047654293 -2.7798638116628576L24.36677670194384 -2.87296L23.9512175 -2.87296L23.9512175 -1.7499925L23.90862486804677 -1.426469340669462L23.78374958966704 -1.1249937500000002L23.58510170871623 -0.8661107912837688L23.32621875 -0.6674629103329615L23.024743159330537 -0.5425876319532306L22.70122 -0.4999950000000002L22.37769684066946 -0.5425876319532306L22.07622125 -0.6674629103329612L21.817338291283768 -0.8661107912837688L21.61869041033296 -1.1249937499999998L21.49381513195323 -1.426469340669462L21.4512225 -1.7499925ZM26.449942500000002 -4.2499875L26.492535131953233 -4.5735106593305375L26.617410410332962 -4.874986249999999L26.81605829128377 -5.133869208716231L27.074941250000002 -5.332517089667038L27.376416840669464 -5.457392368046769L27.69994 -5.499985L28.02346315933054 -5.457392368046769L28.32493875 -5.332517089667038L28.583821708716233 -5.133869208716231L28.78246958966704 -4.874986249999999L28.90734486804677 -4.5735106593305375L28.9499375 -4.2499875L28.9499375 -1.7499925L28.90734486804677 -1.426469340669462L28.78246958966704 -1.1249937500000002L28.583821708716233 -0.8661107912837688L28.32493875 -0.6674629103329615L28.02346315933054 -0.5425876319532306L27.69994 -0.4999950000000002L27.376416840669464 -0.5425876319532306L27.074941250000002 -0.6674629103329612L26.81605829128377 -0.8661107912837688L26.617410410332962 -1.1249937499999998L26.492535131953233 -1.426469340669462L26.449942500000002 -1.7499925Z" fill="currentColor" fill-rule="evenodd"/></svg>